<?xml version="1.0" encoding="UTF-8" standalone="no"?>
<!DOCTYPE svg PUBLIC "-//W3C//DTD SVG 1.1//EN" "http://www.w3.org/Graphics/SVG/1.1/DTD/svg11.dtd">
<svg width="100%" height="100%" viewBox="0 0 880 1356" version="1.1" xmlns="http://www.w3.org/2000/svg" xmlns:xlink="http://www.w3.org/1999/xlink" xml:space="preserve" xmlns:serif="http://www.serif.com/" style="fill-rule:evenodd;clip-rule:evenodd;stroke-linecap:round;stroke-linejoin:round;stroke-miterlimit:1.5;">
    <g transform="matrix(1,0,0,1,-732.046,-23.6749)">
        <path d="M736.545,754.158L987.696,276.401L1260.08,240.59L1328.45,287.253L1364.18,308.573L1398.68,344.132L1437.08,412.762L1463.4,459.434L1469.44,511.707L1474.78,586.382L1447.04,688.083L1369.88,801.607L1349.69,861.792L1359.3,951.402L1317.34,922.243L1256.17,874.949L1237.77,873.004L1284.44,1041.91L1277.78,1165.26L1209.99,1208.04L1124.98,1228.6L1047.19,1208.6L1029.97,1185.82L1037.75,1148.59L1059.97,1128.03L1117.76,1104.14L1169.99,1101.92L1090.53,996.908L1022.47,1079.14L975.796,1134.15L877.174,1198.6L813.277,1227.49L784.941,1243.6L749.381,1328.61L740.491,1372.51L736.545,754.158Z" style="fill:rgb(138,84,46);"/>
        <path d="M1092.4,997.449L1118.1,1035.65" style="fill:none;stroke:black;stroke-width:14.68px;"/>
        <path d="M736.545,758.303C799.132,734.09 857.385,730.677 912.563,742.025L921.245,685.594L957.056,631.335C912.398,570.57 927.096,532.171 1010.23,519.56C998.418,496.409 995.185,473.258 1002.63,450.107L1061.24,368.718C1183.03,295.879 1298.66,278.589 1404.16,352.44L1438.88,410.769L1446.48,432.473L1474.69,430.302L1512.68,432.473L1547.4,447.665L1558.25,473.71L1556.37,504.826L1519.05,536.232L1474.44,553.301L1472.85,593.811L1563.2,552.618L1602.8,501.64L1601.2,455.896L1567.29,402.756L1509.71,370.894L1469.43,368.618L1427.9,369.529L1419.71,367.935L1394.39,338.407L1322.3,276.163L1237.7,231.557L1202.19,214.944L1198.78,194.916L1198.1,140.695L1182.4,100.868L1130,51.71L1074.98,33.049L1013.02,36.69L969.777,57.172L943.833,87.441L926.081,132.957L919.937,166.639L923.35,210.051L818.037,273.318L782.307,305.863L736.449,350.355L736.545,758.303Z" style="fill:rgb(99,61,30);"/>
        <path d="M983.499,185.34L992.18,131.081L1022.57,96.354L1058.38,86.588L1089.85,96.354L1123.49,118.058L1141.3,157.177L1137.6,190.766C1090.73,170.967 1039.26,169.58 983.499,185.34Z" style="fill:rgb(211,172,105);"/>
        <path d="M1452.68,437.583C1451.73,437.583 1454.51,436.888 1455.46,436.888C1457.58,436.888 1458.15,434.805 1460.33,434.805L1477.69,434.805C1481.6,434.805 1485.63,433.811 1488.11,431.332C1492.57,426.871 1505.16,432.297 1509.64,433.416C1512.93,434.24 1522.61,432.503 1524.91,434.805C1531.62,441.507 1548.42,444.996 1552.7,453.557C1558.78,465.72 1564.72,500.328 1545.75,509.814C1543.17,511.105 1543.34,514.837 1540.89,516.064C1539.34,516.842 1538.94,524.963 1537.42,526.482C1532.13,531.773 1523.49,535.182 1517.28,538.289C1505.52,544.168 1491.75,543.672 1483.94,551.485C1483.56,551.861 1476.68,553.26 1475.6,552.18C1474.9,551.481 1474.91,525.774 1474.91,523.01C1474.91,515.252 1471.41,493.761 1468.66,485.505C1467.35,481.564 1470.97,473.002 1468.66,469.531C1464.91,463.911 1462.85,459.557 1458.94,455.641C1457.4,454.102 1458.22,443.139 1454.07,443.139" style="fill:rgb(211,172,105);"/>
        <path d="M1025.9,523.878C1009.71,523.878 997.872,521.794 982.145,521.794C977.636,521.794 967.532,520.433 964.781,523.183C959.351,528.613 955.018,535.705 948.113,539.157C944.326,541.051 937.349,541.587 934.222,544.713C932.383,546.552 933.669,548.116 930.75,549.575C929.754,550.073 927.657,563.97 927.277,564.16C923.582,566.008 924.02,583.931 926.583,587.774C928.33,590.396 927.131,598.045 929.361,600.275C934.701,605.616 936.456,615.161 939.779,621.806C942.207,626.662 952.763,640.347 957.142,644.725C965.423,653.007 979.895,652.282 989.784,657.226C1003.71,664.187 1042.38,678.568 1052.29,688.48C1055.94,692.132 1074.79,686.672 1080.77,692.647C1084.44,696.317 1088.78,715.405 1091.88,716.955C1093.37,717.703 1097.76,720.385 1098.83,722.512C1101.79,728.447 1103.72,737.828 1107.85,741.958C1113.22,747.328 1140.07,768.672 1145.36,770.434C1152.91,772.952 1158.67,774.311 1166.19,778.074C1168.2,779.077 1171.7,777.361 1173.83,778.074C1186.26,782.214 1193.28,778.536 1203,775.296C1219.99,769.635 1219.36,768.667 1232.17,755.849C1234.87,753.155 1239.83,753.754 1242.59,750.987C1256.63,736.952 1250.9,716.237 1238.42,703.76C1234.3,699.633 1234.88,684.241 1230.78,680.146C1229.9,679.26 1229.34,673.2 1228.01,673.2C1188.64,609.876 1122.68,559.421 1025.9,523.878Z" style="fill:rgb(211,172,105);"/>
        <g transform="matrix(1.08183,0.711029,-0.484375,0.736977,207.12,-632.013)">
            <ellipse cx="1126.43" cy="638.683" rx="44.797" ry="43.061"/>
        </g>
        <path d="M1111.43,741.759C1111.43,738.968 1108.56,737.724 1107.45,735.501C1105.22,731.047 1103.38,724.891 1099.77,721.277C1096.35,717.866 1092.6,715.454 1089.52,711.605C1089.02,710.971 1087.2,710.09 1086.96,709.614C1086.29,708.267 1085.36,706.583 1084.4,705.631C1083.04,704.271 1084.97,699.66 1083.83,698.519C1081.76,696.449 1081.62,694.026 1079.57,691.976C1078.49,690.895 1077.08,689.086 1075.87,688.278C1074.89,687.629 1073.08,688.307 1071.89,687.709C1069.38,686.458 1065.23,683.61 1063.64,682.019C1063.16,681.546 1058.86,682.019 1058.52,682.019C1056.39,682.019 1054.74,681.363 1052.83,680.597C1051.59,680.104 1049.82,681.017 1048.56,680.597C1045.94,679.723 1043.43,677.992 1040.88,676.899C1037.87,675.609 1034.53,676.427 1031.49,674.907C1030.31,674.315 1029.04,672.354 1027.88,672.227C1026.1,672.032 1024.18,672.604 1022.39,672.347C1015.26,671.329 1011.6,667.521 1005.89,664.666C1004.62,664.033 1002.72,664.358 1001.34,663.528C1000.48,663.014 993.792,659.693 992.517,660.968C991.579,661.906 991.091,664.105 990.526,665.235C988.78,668.726 985.352,672.168 983.698,675.476C982.837,677.198 982.048,680.427 981.422,682.304C980.861,683.987 979.401,685.208 978.577,686.855C976.219,691.573 973.502,696.152 971.181,700.795C969.575,704.007 968.576,709.641 968.052,713.312C967.592,716.532 968.689,720.082 968.052,723.268C967.494,726.057 966.663,727.468 965.492,729.811C964.549,731.696 965.492,736.427 965.492,738.63C965.492,748.093 966.733,757.561 971.75,765.087C972.827,766.702 971.023,768.847 971.466,771.061C972.53,776.381 975.104,782.095 978.862,785.853C980.236,787.228 980.251,790.372 981.422,791.543C982.007,792.128 983.334,791.748 983.698,792.112C984.898,793.312 986.654,794.214 987.965,795.526C988.364,795.925 989.842,795.695 990.241,796.095C992.655,798.509 997.07,799.082 1000.2,800.646C1005.1,803.096 1009.56,801.837 1014.99,802.922C1015.79,803.081 1017.78,803.724 1018.12,804.06C1018.45,804.389 1020.69,804.06 1021.25,804.06C1024.94,804.06 1028.36,802.495 1030.92,801.215C1032.17,800.589 1034.28,801.026 1035.47,800.362C1037.21,799.395 1039.92,798.48 1041.45,796.948C1042.01,796.382 1044.56,796.407 1044.86,795.81C1046.13,793.273 1049.96,792.419 1051.97,790.405C1052.29,790.087 1053.12,788.693 1053.68,788.414C1054.88,787.813 1056.31,788.377 1057.38,787.845C1058.12,787.476 1058.33,785.804 1059.37,785.284C1060.5,784.719 1061.66,784.414 1062.5,783.578C1062.92,783.151 1064.63,784.004 1065.06,783.578C1065.84,782.799 1066.63,782.294 1067.62,781.302L1111.43,741.759Z" style="fill:rgb(247,186,185);"/>
        <g>
            <path d="M984.527,188.964C1046.31,168.038 1096.66,171.4 1139.93,189.832C1159.1,82.565 979.248,36.489 984.527,188.964Z" style="fill:none;stroke:black;stroke-width:15px;"/>
            <path d="M739.546,347.535C815.075,268.727 877.793,221.739 948.69,207.748" style="fill:none;stroke:black;stroke-width:15px;"/>
            <path d="M923.944,203.407C900.199,-48.118 1235.07,-6.445 1197.36,214.005" style="fill:none;stroke:black;stroke-width:15px;"/>
            <path d="M1197.36,214.005C1313.43,258.923 1381.16,309.357 1416.2,372.796C1578.86,329.974 1715.42,527.099 1471.77,592.222C1483.58,516.747 1464.58,443.641 1416.2,372.796L1450.63,434.521C1569.14,395.031 1615.93,518.221 1475.15,552.235" style="fill:none;stroke:black;stroke-width:15px;"/>
            <path d="M1026.2,523.945C946.617,512.369 891.055,564.169 955.878,635.069C991.263,660.663 1034.51,679.216 1079.16,686.29C1094.83,723.68 1121.36,753.658 1141.66,767.896C1228.56,790.551 1281.65,749.877 1231.08,676.74" style="fill:none;stroke:black;stroke-width:15px;"/>
            <path d="M955.878,635.069C840.628,774.909 959.713,953.036 1131.25,767.028" style="fill:none;stroke:black;stroke-width:15px;"/>
            <path d="M994.945,658.509C930.651,738.074 972.412,846.63 1062.66,782.655" style="fill:none;stroke:black;stroke-width:15px;"/>
            <path d="M744.49,593.452L741.823,653.014L780.939,634.79" style="fill:none;stroke:black;stroke-width:15px;"/>
            <path d="M739.934,1372.04C748.115,1321.72 763.053,1278.83 786.051,1244.81C941.222,1177.72 1043.7,1083.12 1118.87,949.354" style="fill:none;stroke:black;stroke-width:15px;"/>
            <path d="M1167.21,857.399L1147.76,915.739L1223.32,896.293" style="fill:none;stroke:black;stroke-width:15px;"/>
            <path d="M1472.05,596.512C1457.38,725.625 1295.8,850.323 1363.53,939.026" style="fill:none;stroke:black;stroke-width:15px;"/>
            <g transform="matrix(1.05199,0.189711,-0.146783,0.99326,70.2476,-248.199)">
                <path d="M1363.53,939.026L1305.62,925.219" style="fill:none;stroke:black;stroke-width:13.93px;"/>
            </g>
            <path d="M1030.58,299.722L1106.11,477.694" style="fill:none;stroke:black;stroke-width:15px;"/>
            <g transform="matrix(-0.230253,-0.96086,-0.90106,0.215923,1940.75,1550.42)">
                <path d="M1030.58,299.722L1095.94,453.743" style="fill:none;stroke:black;stroke-width:15.66px;"/>
            </g>
            <g transform="matrix(-0.230253,-0.96086,-0.90106,0.215923,1940.75,1550.42)">
                <path d="M1095.94,453.743L1106.11,477.694" style="fill:none;stroke:black;stroke-width:15.66px;"/>
            </g>
            <g transform="matrix(-0.230253,-0.96086,-0.90106,0.215923,1940.75,1550.42)">
                <path d="M1041.86,335.316C947.418,392.425 1004.59,506.472 1095.94,453.743L1041.86,335.316Z" style="stroke:black;stroke-width:15.66px;"/>
            </g>
            <path d="M1041.86,335.316C947.206,392.553 1004.85,506.983 1096.56,453.385L1041.86,335.316Z" style="stroke:black;stroke-width:15px;"/>
        </g>
        <path d="M739.934,1372.04L739.546,347.535" style="fill:none;stroke:black;stroke-width:15px;"/>
        <path d="M1437.48,722.318L1541.69,603.49L1562.16,621.439L1457.94,740.267L1492.51,770.587L969.827,1366.55L878.998,1286.89L1401.68,690.926L1437.48,722.318Z" style="fill:rgb(255,0,0);stroke:black;stroke-width:17.32px;"/>
        <path d="M1225.05,1102.32C1214.59,1099.71 1204.3,1102.43 1193.8,1100.93C1161.09,1096.26 1093.81,1099.53 1074.34,1118.99C1068.43,1124.9 1056.34,1129.3 1052.12,1137.74C1049.68,1142.62 1039.03,1145.28 1035.45,1148.86C1031.31,1153 1033.36,1190.06 1033.36,1197.47C1033.36,1201.03 1032.43,1210.42 1034.75,1212.75C1046.71,1224.71 1064.49,1218.1 1081.98,1222.48C1086.81,1223.68 1090.27,1226.62 1094.48,1228.73C1101.54,1232.25 1117.28,1224.56 1125.74,1224.56C1133.47,1224.56 1145.78,1227.37 1154.21,1224.56C1165.28,1220.87 1179.95,1227.66 1190.33,1222.48C1196.91,1219.18 1202.62,1213.55 1209.77,1209.97C1211.48,1209.12 1228.52,1207.9 1228.53,1207.89C1231.94,1204.47 1257.4,1193.8 1262.56,1191.22C1269.63,1187.68 1273.6,1175.28 1280.61,1171.78C1282.09,1171.04 1281.36,1166.17 1282.7,1164.83C1302.75,1029.07 1280.94,1015.83 1225.05,1102.32Z" style="fill:rgb(138,84,46);"/>
        <path d="M1046.42,1143.22C1046.42,1148.28 1021.61,1177.64 1028.36,1191.14C1032.94,1200.31 1036.41,1201.97 1043.64,1209.2C1047.21,1212.77 1057.04,1210.09 1060.31,1213.36C1076.38,1229.43 1117.23,1226.56 1142.26,1226.56C1151.99,1226.56 1162.27,1225.87 1172.12,1225.87C1173.78,1225.87 1182.17,1226.94 1183.24,1225.87C1192.6,1216.5 1208.49,1214.28 1220.05,1208.5C1221.95,1207.55 1224.84,1201.56 1226.3,1201.56C1141.53,1206.06 1077.47,1190.58 1046.42,1143.22Z" style="fill:rgb(100,58,33);"/>
        <path d="M1222.63,1098.52C1145.55,1094.55 998.381,1102.48 1040.32,1206.17C1050.45,1231.2 1237.51,1241.37 1278.19,1173.18C1304.25,1129.52 1295.93,1073.76 1278.19,1015.18" style="fill:none;stroke:black;stroke-width:14.68px;"/>
    </g>
</svg>
