<?xml version="1.0" encoding="UTF-8" standalone="no"?>
<!DOCTYPE svg PUBLIC "-//W3C//DTD SVG 1.1//EN" "http://www.w3.org/Graphics/SVG/1.1/DTD/svg11.dtd">
<svg width="100%" height="100%" viewBox="0 0 197 388" version="1.1" xmlns="http://www.w3.org/2000/svg" xmlns:xlink="http://www.w3.org/1999/xlink" xml:space="preserve" xmlns:serif="http://www.serif.com/" style="fill-rule:evenodd;clip-rule:evenodd;stroke-linecap:round;stroke-linejoin:round;stroke-miterlimit:1.5;">
    <g transform="matrix(1,0,0,1,-1183.78,-513.729)">
        <path d="M1352.46,672.77C1384.58,707.638 1385.23,750.015 1343.28,754.945C1352.38,804.952 1308.66,846.561 1336.13,867.749C1343.67,873.564 1360.18,880.737 1352.27,890.428C1338.18,901.866 1327.13,898.429 1315.57,893.551C1306.07,889.544 1285.79,880.718 1293.42,870.996C1302.45,859.485 1289.95,837.265 1287.36,812.766C1260.68,804.295 1248.14,784.043 1243.32,757.363L1255.9,672.77L1352.46,672.77Z" style="fill:rgb(136,83,52);"/>
        <g transform="matrix(0.965784,0.259348,-0.259348,0.965784,220.118,-312.321)">
            <path d="M1255.9,672.77L1256.69,667.468L1229.95,566.194L1256.4,540.164C1271.95,537.29 1287.51,538.068 1303.06,541.871C1305.56,538.979 1306.03,535.997 1307.52,533.725C1309.71,530.39 1312.95,529.258 1317.02,528.153C1336.67,522.813 1357.11,544.228 1340.89,562.638C1347.73,581.719 1349.73,595.27 1352.77,609.719C1353.98,615.505 1351.72,626.244 1352.88,631.296C1356.89,648.724 1364.4,655.521 1371.33,655.093C1366.95,659.455 1359.14,659.588 1346.87,654.24L1350,670.171C1350.84,671.032 1351.66,671.898 1352.46,672.77C1312.69,681.822 1262.25,703.59 1255.9,672.77Z" style="fill:rgb(136,83,52);"/>
        </g>
        <path d="M1316.44,796.864C1317.35,829.803 1305.41,854.149 1320.65,866.833C1337.3,870.938 1347.54,878.886 1352.06,890.274C1341.71,902.82 1328.81,899.795 1315.42,893.915C1301.18,889.544 1293.31,882.28 1292.43,871.84L1296.75,865.695C1295.37,849.525 1291.91,831.873 1286.29,812.668L1286.74,803.11C1297.54,802.225 1307.47,800.176 1316.44,796.864Z" style="fill:rgb(100,59,37);"/>
        <path d="M1264.09,672.77C1256.59,694.827 1254.02,719.691 1253.13,737.939C1250.54,791.032 1266.95,814.631 1316.85,796.491C1303.69,804.762 1290.77,813.474 1272.05,811.249C1264.54,832.31 1257.7,861.328 1265.3,874.314C1266.96,877.151 1263,879.17 1263.51,882.724C1228.64,907.244 1200.66,901.575 1204.35,882.275C1205.61,875.693 1216.61,869.525 1226.53,862.81L1232.08,845.683C1225.62,818.558 1208.72,787.041 1214.8,754.353C1190.56,756.573 1170.07,717.229 1204.89,661.854C1204.86,661.744 1197.35,683.25 1202.46,681.742L1264.09,672.77Z" style="fill:rgb(100,59,37);"/>
        <g transform="matrix(0.965784,0.259348,-0.259348,0.965784,220.118,-312.321)">
            <path d="M1205.99,706.148C1196,718.477 1199.05,719.377 1203.07,692.508C1203.35,690.634 1204.55,682.941 1205.78,674.935C1207.14,666.002 1208.55,656.678 1208.75,654.607C1198.73,660.25 1192.33,659.847 1187.77,656.385C1199.44,651.848 1206.38,638.88 1205.6,617.976C1205.26,609.111 1203.63,599.55 1205.03,588.384C1205.74,582.647 1212.82,573.15 1213.02,566.863C1209.35,561.384 1204.36,556.628 1205.85,549.371C1210.11,528.58 1231.99,517.398 1252.27,540.776L1263.83,538.538C1242.48,560.894 1238.48,594.16 1264.94,618.07L1266,667.498C1265.33,669.234 1264.7,670.993 1264.09,672.77C1261.43,740.03 1230.83,727.909 1205.99,706.148Z" style="fill:rgb(100,59,37);"/>
        </g>
        <g transform="matrix(0.965784,0.259348,-0.259348,0.965784,220.118,-312.321)">
            <path d="M1315.82,544.547C1327.29,537.092 1336.59,545.78 1331.29,557.065L1315.82,544.547Z" style="fill:rgb(221,179,121);"/>
        </g>
        <g transform="matrix(0.965784,0.259348,-0.259348,0.965784,220.118,-312.321)">
            <path d="M1220.18,557.125C1214.14,542.754 1226.36,538.039 1237.24,544.153L1220.18,557.125Z" style="fill:rgb(221,179,121);"/>
        </g>
        <g transform="matrix(0.965784,0.259348,-0.259348,0.965784,220.118,-312.321)">
            <path d="M1252.09,620.219C1264.17,613.869 1280.75,613.217 1301.93,618.398C1316.95,628.708 1310.53,639.011 1296.7,639.944C1291.52,640.293 1287.26,637.763 1279.86,635.695C1268.52,638.594 1259.74,641.491 1253.82,640.627C1244.8,639.311 1242.39,631.98 1247.6,623.921C1248.74,622.169 1250.23,622.3 1252.09,620.219Z" style="fill:rgb(221,179,121);"/>
        </g>
        <path d="M1221.36,695.913L1335.52,685.354L1342.62,760.729L1228.28,770.379L1221.36,695.913Z" style="fill:rgb(248,213,147);"/>
        <path d="M1222.27,696.824L1248.49,694.457L1278.35,700.465L1237.57,704.471L1324.41,703.378L1267.24,712.664L1317.13,714.666L1268.15,723.223L1313.49,732.691C1314.7,739.926 1316.94,745.365 1322.04,745.8C1327.2,751.309 1332.36,753.46 1337.52,753.629L1343.35,755.085L1343.16,761.639L1227.19,770.561L1225.91,753.993C1244.8,747.613 1250.82,730.971 1239.99,720.279C1236.15,716.482 1230.18,715.345 1221.91,713.028L1222.27,696.824Z" style="fill:rgb(222,178,117);"/>
        <path d="M1219.17,713.738L1223.72,753.822C1253.93,747.579 1253.71,717.687 1219.17,713.738Z" style="fill:rgb(100,59,37);"/>
        <path d="M1338.9,712.782L1343.65,755.29C1309.66,749.884 1301.44,713.789 1338.9,712.782Z" style="fill:rgb(136,83,52);"/>
        <g>
            <g transform="matrix(0.965784,0.259348,-0.259348,0.965784,220.118,-312.321)">
                <path d="M1258.05,641.128C1259.8,658.376 1265.96,669.47 1278.59,671.57C1292.44,668.479 1298.53,657.619 1298.4,640.545C1286.84,634.118 1273.49,633.961 1258.05,641.128Z" style="fill:rgb(100,59,37);"/>
            </g>
            <g transform="matrix(0.965784,0.259348,-0.259348,0.965784,220.118,-312.321)">
                <path d="M1266.2,639.62C1268.82,666.42 1287.34,671.881 1290.33,639.393C1283.52,635.47 1275.44,635.654 1266.2,639.62Z" style="fill:rgb(247,186,193);"/>
            </g>
            <path d="M1263.71,806.87C1274.07,813.129 1285.23,812.749 1297.05,806.87" style="fill:none;stroke:black;stroke-width:3px;"/>
            <g transform="matrix(0.963796,0.266641,-0.266641,0.963796,227.248,-320.108)">
                <path d="M1359.48,662.383C1357.17,660.029 1351.08,656.66 1347.18,654.14C1360.45,660.433 1367.28,659.766 1370.84,654.407C1340.16,646.016 1361.41,590.11 1339.28,561.729C1365.74,541.793 1311.01,506.329 1304.16,542.171C1285.55,537.327 1267.93,536.942 1251.27,540.838C1229.96,507.007 1188.7,544.446 1213.49,566.174C1192.83,602.427 1219.68,649.665 1185.93,656.407C1193.13,660.173 1201.37,660.137 1210.31,655.774C1205.06,661.972 1204.61,669.29 1207.11,675.181" style="fill:none;stroke:black;stroke-width:3px;"/>
            </g>
            <path d="M1212.92,651.879C1188.85,676.073 1164.7,741.153 1213.93,755.975C1213.25,829.998 1242.11,828.915 1226.82,862.655C1184.61,884.451 1203.08,906.097 1241.93,895.992C1258.88,888.927 1270.77,880.528 1261.93,866.655C1261.61,850.381 1264.71,832.181 1272.16,811.537L1285.49,811.759C1292.73,830.098 1296.25,848.902 1295.72,868.211C1288.79,874.642 1296.09,883.267 1307.12,889.555C1317.34,895.38 1330.93,899.093 1335.28,899.77C1344.29,901.174 1359.57,886.083 1349.95,876.656C1298.84,851.407 1353.12,816.724 1343.28,754.864C1391.88,746.65 1381.93,700.816 1351.41,669.595" style="fill:none;stroke:black;stroke-width:3px;"/>
            <path d="M1212.66,754.724C1257.57,754.976 1253.24,710.699 1216.53,713.759" style="fill:none;stroke:black;stroke-width:3px;"/>
            <path d="M1341.48,712.849C1307.22,709.305 1303.52,751.913 1343.98,754.724" style="fill:none;stroke:black;stroke-width:3px;"/>
            <path d="M1222.22,713.304L1221.54,696.69L1335.79,685.766L1338.06,711.483" style="fill:none;stroke:black;stroke-width:3px;"/>
            <path d="M1341.48,755.179L1341.93,761.551L1227.23,770.882L1225.87,754.041" style="fill:none;stroke:black;stroke-width:3px;"/>
            <g transform="matrix(0.965784,0.259348,-0.259348,0.965784,220.118,-312.321)">
                <path d="M1253.86,618.117C1233.39,633.665 1248.29,642.993 1265.1,639.806C1268.97,639.071 1273.53,637.483 1277.53,636.666C1284.16,635.312 1285.4,637.833 1292.3,639.757C1305.27,643.376 1316.13,634.325 1303.47,617.889" style="fill:none;stroke:black;stroke-width:3px;"/>
            </g>
            <g transform="matrix(0.965784,0.259348,-0.259348,0.965784,220.118,-312.321)">
                <path d="M1266.38,640.136C1268.7,666.61 1284.9,671.36 1290.73,640.363" style="fill:none;stroke:black;stroke-width:3px;"/>
            </g>
            <g transform="matrix(0.965784,0.259348,-0.259348,0.965784,220.118,-312.321)">
                <path d="M1298.46,641.274C1295.01,683.833 1261.41,678.52 1258.18,641.046" style="fill:none;stroke:black;stroke-width:3px;"/>
            </g>
            <g transform="matrix(0.965784,0.259348,-0.259348,0.965784,220.118,-312.321)">
                <path d="M1220.18,557.125L1237.24,544.153C1228.88,534.174 1210.33,545.551 1220.18,557.125Z" style="fill:none;stroke:black;stroke-width:3px;"/>
            </g>
            <g transform="matrix(0.965784,0.259348,-0.259348,0.965784,220.118,-312.321)">
                <path d="M1314.62,544.38C1323.44,535.22 1341,546.94 1330.55,557.352L1314.62,544.38Z" style="fill:none;stroke:black;stroke-width:3px;"/>
            </g>
            <g transform="matrix(0.869206,0.233413,-0.181544,0.676049,316.966,-70.8677)">
                <ellipse cx="1246.35" cy="597.236" rx="10.241" ry="9.103" style="stroke:black;stroke-width:3.72px;"/>
            </g>
        </g>
        <g transform="matrix(0.986402,0.164351,-0.164351,0.986402,129.227,-207.092)">
            <path d="M1306.52,663.929C1309.05,665.795 1309.63,669.242 1307.98,674.489C1312.81,672.659 1315.89,670.247 1316.54,667.024C1319.47,669.154 1321.02,672.009 1320.18,676.127C1324.83,673.042 1326.01,667.846 1325.09,661.38C1327.26,666.797 1330.37,671.33 1335.92,673.563C1337.8,671.439 1339.32,667.644 1338.02,663.929C1343.07,667.274 1346.21,671.471 1345.49,677.402C1349.31,675.188 1350.01,668.514 1349.46,664.113" style="fill:none;stroke:black;stroke-width:3px;"/>
        </g>
        <g transform="matrix(0.933007,0.359857,-0.359857,0.933007,326.918,-412.123)">
            <path d="M1208.93,655.554C1204.89,661.881 1204.48,668.89 1208.21,676.674C1210.62,670.472 1213.68,666.064 1218.04,665.203L1218.77,672.304C1223.55,671.648 1227.52,669.198 1229.87,663.201C1230.5,671.604 1232.03,677.44 1236.06,676.127C1233.83,672.258 1234.11,668.891 1239.16,666.478C1241.34,671.724 1245.48,676.162 1248.63,674.125C1246.14,670.787 1246.02,667.449 1249.35,664.111" style="fill:none;stroke:black;stroke-width:3px;"/>
        </g>
        <g transform="matrix(0.838747,0.225234,-0.225234,0.838747,645.118,-117.799)">
            <path d="M895.156,577.152L926.035,603.37" style="fill:none;stroke:black;stroke-width:3.45px;"/>
        </g>
        <g transform="matrix(0.838747,0.225234,-0.225234,0.838747,645.118,-117.799)">
            <path d="M900.4,581.376C881.262,606.953 910.379,620.096 920.354,598.272" style="stroke:black;stroke-width:3.45px;"/>
        </g>
        <g transform="matrix(-0.838747,-0.225234,-0.225234,0.838747,2225.32,306.543)">
            <path d="M895.156,577.152L926.035,603.37" style="fill:none;stroke:black;stroke-width:3.45px;"/>
        </g>
        <g transform="matrix(-0.838747,-0.225234,-0.225234,0.838747,2225.32,306.543)">
            <path d="M900.4,581.376C881.262,606.953 910.379,620.096 920.354,598.272" style="stroke:black;stroke-width:3.45px;"/>
        </g>
        <g transform="matrix(0.996286,-0.0861076,0.0971572,1.12413,-439.755,71.6802)">
            <path d="M1633.07,688.202L1636.56,688.202C1638.89,688.202 1640.46,688.292 1641.29,688.471C1642.11,688.651 1642.78,689.11 1643.3,689.848C1643.82,690.587 1644.08,691.764 1644.08,693.382C1644.08,694.858 1643.9,695.85 1643.53,696.358C1643.16,696.866 1642.44,697.171 1641.36,697.272C1642.34,697.514 1643,697.839 1643.33,698.245C1643.67,698.651 1643.88,699.024 1643.96,699.364C1644.04,699.704 1644.08,700.639 1644.08,702.171L1644.08,707.174L1639.5,707.174L1639.5,700.87C1639.5,699.854 1639.42,699.225 1639.26,698.983C1639.1,698.741 1638.68,698.62 1638,698.62L1638,707.174L1633.07,707.174L1633.07,688.202ZM1638,691.448L1638,695.667C1638.56,695.667 1638.94,695.59 1639.17,695.438C1639.39,695.286 1639.5,694.792 1639.5,693.956L1639.5,692.913C1639.5,692.311 1639.39,691.917 1639.18,691.729C1638.96,691.542 1638.57,691.448 1638,691.448Z" style="fill:rgb(37,36,35);fill-opacity:0.95;fill-rule:nonzero;"/>
            <path d="M1654.52,688.202L1657.34,707.174L1652.3,707.174L1652.04,703.764L1650.27,703.764L1649.97,707.174L1644.87,707.174L1647.39,688.202L1654.52,688.202ZM1651.91,700.401C1651.66,698.252 1651.41,695.596 1651.15,692.432C1650.65,696.065 1650.34,698.721 1650.21,700.401L1651.91,700.401Z" style="fill:rgb(37,36,35);fill-opacity:0.95;fill-rule:nonzero;"/>
            <path d="M1658.18,688.202L1663.15,688.202C1664.49,688.202 1665.53,688.307 1666.25,688.518C1666.97,688.729 1667.51,689.034 1667.88,689.432C1668.24,689.831 1668.49,690.313 1668.62,690.88C1668.75,691.446 1668.81,692.323 1668.81,693.51L1668.81,695.163C1668.81,696.374 1668.68,697.257 1668.43,697.811C1668.18,698.366 1667.73,698.792 1667.06,699.089C1666.39,699.385 1665.52,699.534 1664.44,699.534L1663.11,699.534L1663.11,707.174L1658.18,707.174L1658.18,688.202ZM1663.11,691.448L1663.11,696.276C1663.26,696.284 1663.38,696.288 1663.48,696.288C1663.93,696.288 1664.25,696.176 1664.42,695.954C1664.6,695.731 1664.68,695.268 1664.68,694.565L1664.68,693.007C1664.68,692.358 1664.58,691.936 1664.38,691.741C1664.18,691.546 1663.76,691.448 1663.11,691.448Z" style="fill:rgb(37,36,35);fill-opacity:0.95;fill-rule:nonzero;"/>
            <path d="M1670.23,688.202L1678.45,688.202L1678.45,691.999L1675.16,691.999L1675.16,695.596L1678.24,695.596L1678.24,699.206L1675.16,699.206L1675.16,703.378L1678.78,703.378L1678.78,707.174L1670.23,707.174L1670.23,688.202Z" style="fill:rgb(37,36,35);fill-opacity:0.95;fill-rule:nonzero;"/>
        </g>
        <g transform="matrix(0.996286,-0.0861076,0.0971572,1.12413,-444.28,103.701)">
            <path d="M1633.07,688.202L1641.42,688.202L1641.42,691.999L1638,691.999L1638,695.596L1641.05,695.596L1641.05,699.206L1638,699.206L1638,707.174L1633.07,707.174L1633.07,688.202Z" style="fill:rgb(37,36,35);fill-opacity:0.95;fill-rule:nonzero;"/>
            <path d="M1642.62,688.202L1646.11,688.202C1648.44,688.202 1650.01,688.292 1650.84,688.471C1651.66,688.651 1652.34,689.11 1652.85,689.848C1653.37,690.587 1653.63,691.764 1653.63,693.382C1653.63,694.858 1653.45,695.85 1653.08,696.358C1652.72,696.866 1651.99,697.171 1650.91,697.272C1651.89,697.514 1652.55,697.839 1652.88,698.245C1653.22,698.651 1653.43,699.024 1653.51,699.364C1653.59,699.704 1653.63,700.639 1653.63,702.171L1653.63,707.174L1649.05,707.174L1649.05,700.87C1649.05,699.854 1648.97,699.225 1648.81,698.983C1648.65,698.741 1648.23,698.62 1647.55,698.62L1647.55,707.174L1642.62,707.174L1642.62,688.202ZM1647.55,691.448L1647.55,695.667C1648.11,695.667 1648.5,695.59 1648.72,695.438C1648.94,695.286 1649.05,694.792 1649.05,693.956L1649.05,692.913C1649.05,692.311 1648.94,691.917 1648.73,691.729C1648.51,691.542 1648.12,691.448 1647.55,691.448Z" style="fill:rgb(37,36,35);fill-opacity:0.95;fill-rule:nonzero;"/>
            <path d="M1666.82,699.311C1666.82,701.217 1666.77,702.567 1666.68,703.36C1666.59,704.153 1666.31,704.878 1665.84,705.534C1665.37,706.19 1664.73,706.694 1663.92,707.046C1663.12,707.397 1662.18,707.573 1661.11,707.573C1660.1,707.573 1659.18,707.407 1658.37,707.075C1657.57,706.743 1656.91,706.245 1656.42,705.581C1655.93,704.917 1655.64,704.194 1655.54,703.413C1655.45,702.632 1655.4,701.264 1655.4,699.311L1655.4,696.065C1655.4,694.159 1655.45,692.809 1655.54,692.016C1655.63,691.223 1655.91,690.499 1656.38,689.842C1656.85,689.186 1657.49,688.682 1658.3,688.331C1659.1,687.979 1660.04,687.803 1661.11,687.803C1662.13,687.803 1663.04,687.969 1663.85,688.301C1664.65,688.633 1665.31,689.132 1665.8,689.796C1666.29,690.46 1666.58,691.182 1666.68,691.964C1666.77,692.745 1666.82,694.112 1666.82,696.065L1666.82,699.311ZM1661.88,693.077C1661.88,692.194 1661.84,691.63 1661.74,691.383C1661.64,691.137 1661.44,691.014 1661.13,691.014C1660.88,691.014 1660.68,691.114 1660.54,691.313C1660.4,691.512 1660.34,692.1 1660.34,693.077L1660.34,701.936C1660.34,703.038 1660.38,703.717 1660.47,703.975C1660.56,704.233 1660.77,704.362 1661.1,704.362C1661.43,704.362 1661.65,704.214 1661.74,703.917C1661.84,703.62 1661.88,702.913 1661.88,701.796L1661.88,693.077Z" style="fill:rgb(37,36,35);fill-opacity:0.95;fill-rule:nonzero;"/>
            <path d="M1679.98,695.186L1675.04,695.186L1675.04,693.464C1675.04,692.378 1675,691.698 1674.9,691.424C1674.81,691.151 1674.59,691.014 1674.24,691.014C1673.93,691.014 1673.72,691.132 1673.61,691.366C1673.51,691.6 1673.45,692.202 1673.45,693.171L1673.45,702.276C1673.45,703.128 1673.51,703.688 1673.61,703.958C1673.72,704.227 1673.94,704.362 1674.27,704.362C1674.63,704.362 1674.87,704.21 1675,703.905C1675.13,703.6 1675.2,703.007 1675.2,702.124L1675.2,699.874L1674.2,699.874L1674.2,696.991L1679.98,696.991L1679.98,707.174L1676.88,707.174L1676.42,705.815C1676.09,706.401 1675.66,706.84 1675.15,707.133C1674.64,707.426 1674.03,707.573 1673.34,707.573C1672.51,707.573 1671.73,707.372 1671.01,706.969C1670.29,706.567 1669.74,706.069 1669.36,705.475C1668.99,704.882 1668.75,704.258 1668.66,703.606C1668.56,702.954 1668.52,701.975 1668.52,700.671L1668.52,695.034C1668.52,693.221 1668.61,691.905 1668.81,691.085C1669.01,690.264 1669.57,689.512 1670.49,688.829C1671.42,688.145 1672.61,687.803 1674.08,687.803C1675.53,687.803 1676.73,688.1 1677.68,688.694C1678.63,689.288 1679.26,689.993 1679.54,690.809C1679.83,691.626 1679.98,692.811 1679.98,694.366L1679.98,695.186Z" style="fill:rgb(37,36,35);fill-opacity:0.95;fill-rule:nonzero;"/>
            <path d="M1692.34,693.944L1687.76,693.944L1687.76,692.538C1687.76,691.882 1687.7,691.464 1687.58,691.284C1687.47,691.104 1687.27,691.014 1687,691.014C1686.7,691.014 1686.48,691.136 1686.32,691.378C1686.17,691.62 1686.1,691.988 1686.1,692.48C1686.1,693.113 1686.18,693.59 1686.35,693.911C1686.52,694.231 1686.98,694.618 1687.75,695.071C1689.94,696.374 1691.33,697.444 1691.89,698.28C1692.47,699.116 1692.75,700.464 1692.75,702.323C1692.75,703.674 1692.59,704.671 1692.28,705.311C1691.96,705.952 1691.35,706.489 1690.44,706.923C1689.54,707.356 1688.48,707.573 1687.28,707.573C1685.96,707.573 1684.83,707.323 1683.9,706.823C1682.96,706.323 1682.35,705.686 1682.06,704.913C1681.77,704.139 1681.63,703.042 1681.63,701.62L1681.63,700.378L1686.21,700.378L1686.21,702.686C1686.21,703.397 1686.28,703.854 1686.4,704.057C1686.53,704.26 1686.76,704.362 1687.09,704.362C1687.42,704.362 1687.66,704.233 1687.82,703.975C1687.98,703.717 1688.06,703.335 1688.06,702.827C1688.06,701.71 1687.91,700.979 1687.61,700.635C1687.29,700.292 1686.52,699.717 1685.3,698.913C1684.07,698.1 1683.26,697.51 1682.86,697.143C1682.46,696.776 1682.13,696.268 1681.87,695.62C1681.61,694.971 1681.48,694.143 1681.48,693.135C1681.48,691.682 1681.66,690.62 1682.03,689.948C1682.4,689.276 1683.01,688.751 1683.83,688.372C1684.66,687.993 1685.66,687.803 1686.83,687.803C1688.11,687.803 1689.21,688.01 1690.11,688.424C1691.01,688.839 1691.61,689.36 1691.9,689.989C1692.19,690.618 1692.34,691.686 1692.34,693.194L1692.34,693.944Z" style="fill:rgb(37,36,35);fill-opacity:0.95;fill-rule:nonzero;"/>
        </g>
    </g>
</svg>
