<?xml version="1.0" encoding="UTF-8" standalone="no"?>
<!DOCTYPE svg PUBLIC "-//W3C//DTD SVG 1.1//EN" "http://www.w3.org/Graphics/SVG/1.1/DTD/svg11.dtd">
<svg width="100%" height="100%" viewBox="0 0 845 778" version="1.1" xmlns="http://www.w3.org/2000/svg" xmlns:xlink="http://www.w3.org/1999/xlink" xml:space="preserve" xmlns:serif="http://www.serif.com/" style="fill-rule:evenodd;clip-rule:evenodd;stroke-linecap:round;stroke-linejoin:round;stroke-miterlimit:1.5;">
    <g transform="matrix(1,0,0,1,-907.934,-308.533)">
        <path d="M1495.4,1025.01C1419.03,1050.27 1343.36,1062.06 1267.94,1069.29L1215.85,1045.85L1081.29,1007.65C1053.8,991.086 1048.1,959.14 1037.88,930.385C1027.62,950.508 1018.77,968.714 1000.17,978.113L975.373,904.341L921.547,900.868C949.4,879.86 966.485,852.122 975.373,819.261L1010.97,691.642L1038.05,590.554L1059.58,531.033L1031.8,477.859L1018.78,423.165L1028.33,370.207L1057.85,336.349L1093.44,319.854L1145.53,323.327L1182.86,346.767C1201.65,351.248 1214.68,365.309 1222.8,387.57C1234.82,391.178 1257.3,384.318 1280.1,377.153L1366.91,378.672C1402.2,382.16 1435.19,388.722 1459.8,406.453L1478.9,394.299C1483.82,369.722 1504.39,355.982 1524.92,342.209C1546.04,323.434 1567.17,317.077 1588.29,319.637L1646.46,331.791C1671.2,341.975 1686.37,357.269 1693.34,376.936C1712.62,404.63 1712.86,424.163 1707.23,441.179C1712.64,457.998 1712.2,476.046 1695.07,497.609L1657.74,556.644L1656.01,576.611L1674.24,636.514L1680.32,704.231L1685.53,793L1695.94,863.32L1716.49,934.195L1737.61,974.444L1679.45,947.531L1689.21,992.606L1695.94,1041.29C1696.64,1051.06 1690.35,1049.19 1677.71,1036.73L1645.59,1015.9L1656.01,1064.52L1596.1,1022.84L1577.01,1078.41L1544.02,1022.84L1517.1,1054.1L1495.4,1025.01Z" style="fill:rgb(99,61,30);"/>
        <path d="M1081.72,1005.26C1056.67,988.044 1048.23,956.291 1041.79,922.789L1005.32,976.615C989.271,967.56 982.131,939.308 978.411,903.689L922.849,908.03L953.235,868.095L990.565,751.762L1005.32,678.837L1029.63,605.044L1057.41,537.327L1093.92,486.749L1126.87,450.946C1147.75,432.564 1171.09,415.718 1204.13,404.934L1291.82,378.021C1394.44,422.172 1459.77,497.082 1469.79,617.632C1493.28,676.177 1468.3,727.799 1410.75,774.768L1440.27,829.028L1430.72,869.831L1405.54,894.14L1378.63,904.558L1365.61,959.251C1352.09,996.122 1332.01,1027.72 1307.44,1053.01C1285.07,1065.68 1261.66,1070.25 1236.25,1059.09L1211.94,1043.46C1185.54,1053.66 1127.51,1035.87 1081.72,1005.26Z" style="fill:rgb(137,84,47);"/>
        <path d="M1168.04,757.579L1130.53,795.083L1121.51,819.391L1121.51,843.7L1139.56,869.397L1168.04,887.455L1195.12,885.371L1233.32,873.564L1263.19,870.092L1315.28,885.371L1356.25,896.484L1391.67,899.262L1431.96,877.732L1444.46,845.783L1435.43,813.835L1400.01,768.691C1317.98,729.222 1240.81,726.669 1168.04,757.579Z" style="fill:rgb(216,166,112);"/>
        <path d="M1081.86,496.958L1058.94,442.785L1053.38,402.503L1071.44,376.111L1104.08,370.555L1138.12,382.361L1157.56,396.252L1174.23,413.615L1131.17,443.48L1094.36,479.595L1081.86,496.958Z" style="fill:rgb(216,166,112);"/>
        <g transform="matrix(0.126018,0.992028,-0.992028,0.126018,1887.89,-709.165)">
            <path d="M1081.86,496.958C1057.06,516.229 1039.14,469.311 1042.78,426.73L1053.38,402.503L1073.41,382.662L1103.38,376.066L1138.12,382.361L1165.74,397.991L1174.23,413.615L1131.17,443.48L1094.36,479.595L1081.86,496.958Z" style="fill:rgb(216,166,112);"/>
        </g>
        <path d="M1210.07,884.527C1203.6,916.39 1209.84,945.708 1217.7,968.02C1224.93,988.7 1233.32,1001.29 1243.39,1002.05C1257.31,1013.68 1270.63,1016.9 1282.64,1003.88C1292.6,1000.39 1302.2,984.286 1312.15,969.409L1331.6,918.014L1332.29,889.539L1280.2,870.092L1210.07,884.527Z" style="fill:rgb(249,168,205);"/>
        <g>
            <path d="M1061.86,530.292C1103.23,457.517 1160.61,409.395 1230.92,391.603" style="fill:none;stroke:black;stroke-width:18.65px;"/>
            <path d="M1107.17,948.877C1100.05,975.159 1089.68,994.942 1076.78,1009.65C1060.22,1000.7 1049.21,972.29 1044.22,922.832C1031.93,940.06 1019.63,959.141 1007.33,979.263C992.011,974.335 981.77,949.102 978.028,897.873C950.17,906.197 930.646,906.188 917.257,900.043C990.044,857.893 985.08,705.226 1061.59,529.991C926.09,350.65 1135.59,235.825 1228.71,392.172C1310.53,364.343 1390.7,371.167 1469.62,404.109C1561.85,216.51 1834.55,363.847 1647.59,570.144C1715.06,617.556 1650.69,882.248 1743.09,973.837L1680.15,952.133L1699.68,1056.31L1650.85,1015.07L1660.62,1063.91L1598.76,1012.9L1580.31,1076.93L1543.41,1011.82L1516.29,1062.82L1491.33,1017.24" style="fill:none;stroke:black;stroke-width:18.65px;"/>
            <path d="M1079.29,493.485C1020.35,397.932 1082.16,323.472 1174.43,407.702" style="fill:none;stroke:black;stroke-width:18.65px;"/>
            <path d="M1522.8,417.131C1578.77,333.686 1705.93,394.227 1631.32,510.458C1602.64,476.351 1565.94,445.451 1522.8,417.131Z" style="fill:none;stroke:black;stroke-width:18.65px;"/>
            <path d="M1165.77,755.712C1091.49,809.788 1116.37,873.546 1177.7,889.191L1261.26,869.658L1380.64,901.128C1446.35,891.863 1466.71,837.643 1399.08,768.735" style="fill:none;stroke:black;stroke-width:18.65px;"/>
            <path d="M1177.7,893.532C1181.27,1116.15 1323.59,1124.75 1382.81,905.469" style="fill:none;stroke:black;stroke-width:18.65px;"/>
            <path d="M1330.72,892.447C1319.71,1019.05 1241.61,1052.97 1215.69,961.899" style="fill:none;stroke:black;stroke-width:18.65px;"/>
            <g transform="matrix(1,0,0,1,-0.444489,2.22248)">
                <path d="M1626.98,548.169L1648.68,568.787" style="fill:none;stroke:black;stroke-width:18.65px;"/>
            </g>
            <path d="M1084.38,575.298L1221.11,682.733" style="fill:none;stroke:black;stroke-width:18.65px;"/>
            <path d="M1370.87,689.244L1500.01,578.554" style="fill:none;stroke:black;stroke-width:18.65px;"/>
            <path d="M1391.77,672.218C1460.79,771.723 1539.56,694.793 1481.56,598.088L1391.77,672.218Z" style="stroke:black;stroke-width:12px;"/>
            <path d="M1102.83,593.747C1068.33,652.311 1086.89,699.883 1119.87,706.483C1140.97,710.704 1167.95,698.166 1190.73,661.029L1102.83,593.747Z" style="stroke:black;stroke-width:12px;"/>
        </g>
        <g transform="matrix(1.19512,0,0,1,-249.305,-4.16692)">
            <ellipse cx="1267.01" cy="805.848" rx="42.713" ry="43.408" style="fill:rgb(11,6,0);"/>
        </g>
    </g>
</svg>
