<?xml version="1.0" encoding="UTF-8" standalone="no"?>
<!DOCTYPE svg PUBLIC "-//W3C//DTD SVG 1.1//EN" "http://www.w3.org/Graphics/SVG/1.1/DTD/svg11.dtd">
<svg width="100%" height="100%" viewBox="0 0 1004 1431" version="1.1" xmlns="http://www.w3.org/2000/svg" xmlns:xlink="http://www.w3.org/1999/xlink" xml:space="preserve" xmlns:serif="http://www.serif.com/" style="fill-rule:evenodd;clip-rule:evenodd;stroke-linejoin:round;stroke-miterlimit:2;">
    <g transform="matrix(1,0,0,1,-481.344,-5.15675)">
        <g transform="matrix(-28.1291,-36.6634,33.7759,-25.9138,921.917,1586.05)">
            <path id="twitter" d="M17.316,6.246C17.324,6.408 17.327,6.572 17.327,6.734C17.327,11.724 13.53,17.476 6.587,17.476C4.454,17.476 2.471,16.851 0.8,15.779C1.096,15.814 1.396,15.832 1.7,15.832C3.47,15.832 5.097,15.228 6.388,14.217C4.737,14.186 3.342,13.096 2.862,11.596C3.092,11.639 3.329,11.662 3.572,11.662C3.917,11.662 4.251,11.617 4.567,11.531C2.84,11.183 1.539,9.658 1.539,7.828L1.539,7.781C2.048,8.064 2.631,8.234 3.249,8.254C2.236,7.576 1.569,6.422 1.569,5.111C1.569,4.42 1.755,3.771 2.081,3.213C3.942,5.498 6.725,7 9.862,7.158C9.798,6.881 9.765,6.594 9.765,6.297C9.765,4.213 11.454,2.524 13.539,2.524C14.625,2.524 15.606,2.981 16.295,3.715C17.154,3.545 17.962,3.231 18.692,2.799C18.41,3.68 17.811,4.42 17.032,4.887C17.796,4.795 18.522,4.594 19.2,4.293C18.694,5.051 18.054,5.715 17.316,6.246Z" style="fill:rgb(28,155,240);fill-rule:nonzero;stroke:black;stroke-width:0.42px;"/>
        </g>
        <g transform="matrix(1,0,0,1,149.03,-99.4856)">
            <g transform="matrix(1,0,0,1,-320.049,-4.23904)">
                <path d="M863.362,849.933C856.347,834.064 848.875,817.161 849.304,799.816C849.781,780.485 854.667,759.94 865.972,744.253C879.687,725.223 902.492,714.798 920.979,700.359C927.869,694.978 938.399,692.725 942.093,684.802C951.792,663.997 937.969,626.564 959.317,618.127C990.8,605.684 1028.02,624.534 1058.77,638.685C1101.42,658.311 1134.08,695.396 1175.45,717.583C1186.4,723.452 1200.21,719.667 1212.54,721.138C1235.55,723.882 1258.42,727.71 1281.07,732.63C1343.25,746.139 1404.68,768.138 1458.42,802.677C1481.6,817.576 1505.66,836.217 1521.19,859.504C1526.48,867.445 1531.6,877.178 1531.4,887.056C1530.94,909.48 1501.95,909.791 1486.11,907.988C1480.59,907.36 1475.11,906.42 1469.68,905.246C1463.27,903.859 1456.84,902.411 1450.62,900.313C1435.1,895.072 1419.55,889.777 1404.52,883.253C1385.15,874.846 1366.15,865.568 1347.55,855.573C1324.44,843.149 1303.58,826.4 1279.47,816.04C1253.95,805.076 1226.76,798.207 1199.68,792.037C1157.23,782.365 1109.23,780.248 1067.11,784.258C1044.85,786.377 1020.48,797.573 1002.1,797.593C983.974,797.613 1005.71,758.232 994.877,743.698C989.083,735.922 987.279,761.879 980.986,769.256C970.065,782.061 975.816,784.91 967.318,799.593C962.588,807.766 951.641,810.162 943.392,814.757C920.632,827.437 884.184,840.912 863.362,849.933Z" style="fill:rgb(137,84,47);"/>
            </g>
            <g transform="matrix(1,0,0,1,-320.049,-4.23904)">
                <path d="M1175.33,736.396C1268.43,767.094 1348.44,810.707 1323.96,862.105L1320.48,895.443L1298.95,910.722L1250.34,905.861L1189.91,898.221L1168.38,921.835L1167.69,952.394L1192,993.371L1300.34,1021.85L1346.88,1016.99L1399.66,987.815L1406.4,1023.79L1400.35,1128.46L1351.04,1207.63L1455.22,1227.78L1494.12,1195.48L1533.7,1129.15L1553.85,993.024L1525.37,863.842L1473.28,737.264L1441.33,684.479L1412.86,662.255L1175.33,736.396" style="fill:rgb(99,61,30);"/>
            </g>
            <g transform="matrix(1,0,0,1,-320.049,-4.23904)">
                <path d="M991.377,741.478L1000.06,796.172" style="fill:none;stroke:black;stroke-width:18.6px;stroke-linecap:round;stroke-miterlimit:1.5;"/>
            </g>
            <g transform="matrix(0.803207,-0.0685775,0.0685775,0.803207,-250.814,-31.6712)">
                <path d="M1495.4,1025.01C1419.03,1050.27 1343.36,1062.06 1267.94,1069.29L1215.85,1045.85L1081.29,1007.65C1053.8,991.086 1048.1,959.14 1037.88,930.385C1027.62,950.508 1018.77,968.714 1000.17,978.113L975.373,904.341L921.547,900.868C949.4,879.86 966.485,852.122 975.373,819.261L1010.97,691.642L1038.05,590.554L1059.58,531.033L1031.8,477.859L1018.78,423.165L1028.33,370.207L1057.85,336.349L1093.44,319.854L1145.53,323.327L1182.86,346.767C1201.65,351.248 1214.68,365.309 1222.8,387.57C1234.82,391.178 1257.3,384.318 1280.1,377.153L1366.91,378.672C1402.2,382.16 1435.19,388.722 1459.8,406.453L1478.9,394.299C1483.82,369.722 1504.39,355.982 1524.92,342.209C1546.04,323.434 1567.17,317.077 1588.29,319.637L1646.46,331.791C1671.2,341.975 1686.37,357.269 1693.34,376.936C1712.62,404.63 1712.86,424.163 1707.23,441.179C1712.64,457.998 1712.2,476.046 1695.07,497.609L1657.74,556.644L1656.01,576.611L1674.24,636.514L1680.32,704.231L1685.53,793L1695.94,863.32L1716.49,934.195L1737.61,974.444L1679.45,947.531L1689.21,992.606L1695.94,1041.29C1696.64,1051.06 1690.35,1049.19 1677.71,1036.73L1645.59,1015.9L1656.01,1064.52L1596.1,1022.84L1577.01,1078.41L1544.02,1022.84L1517.1,1054.1L1495.4,1025.01Z" style="fill:rgb(99,61,30);"/>
                <path d="M1081.72,1005.26C1056.67,988.044 1048.23,956.291 1041.79,922.789L1005.32,976.615C989.271,967.56 982.131,939.308 978.411,903.689L922.849,908.03L953.235,868.095L990.565,751.762L1005.32,678.837L1029.63,605.044L1057.41,537.327L1093.92,486.749L1126.87,450.946C1147.75,432.564 1171.09,415.718 1204.13,404.934L1291.82,378.021C1394.44,422.172 1459.77,497.082 1469.79,617.632C1493.28,676.177 1468.3,727.799 1410.75,774.768L1440.27,829.028L1430.72,869.831L1405.54,894.14L1378.63,904.558L1365.61,959.251C1352.09,996.122 1332.01,1027.72 1307.44,1053.01C1285.07,1065.68 1261.66,1070.25 1236.25,1059.09L1211.94,1043.46C1185.54,1053.66 1127.51,1035.87 1081.72,1005.26Z" style="fill:rgb(137,84,47);"/>
                <path d="M1168.04,757.579L1130.53,795.083L1121.51,819.391L1121.51,843.7L1139.56,869.397L1168.04,887.455L1195.12,885.371L1233.32,873.564L1263.19,870.092L1315.28,885.371L1356.25,896.484L1391.67,899.262L1431.96,877.732L1444.46,845.783L1435.43,813.835L1400.01,768.691C1317.98,729.222 1240.81,726.669 1168.04,757.579Z" style="fill:rgb(216,166,112);"/>
                <path d="M1081.86,496.958L1058.94,442.785L1053.38,402.503L1071.44,376.111L1104.08,370.555L1138.12,382.361L1157.56,396.252L1174.23,413.615L1131.17,443.48L1094.36,479.595L1081.86,496.958Z" style="fill:rgb(216,166,112);"/>
                <g transform="matrix(0.126018,0.992028,-0.992028,0.126018,1887.89,-709.165)">
                    <path d="M1081.86,496.958C1057.06,516.229 1039.14,469.311 1042.78,426.73L1053.38,402.503L1073.41,382.662L1103.38,376.066L1138.12,382.361L1165.74,397.991L1174.23,413.615L1131.17,443.48L1094.36,479.595L1081.86,496.958Z" style="fill:rgb(216,166,112);"/>
                </g>
                <path d="M1210.07,884.527C1203.6,916.39 1209.84,945.708 1217.7,968.02C1224.93,988.7 1233.32,1001.29 1243.39,1002.05C1257.31,1013.68 1270.63,1016.9 1282.64,1003.88C1292.6,1000.39 1302.2,984.286 1312.15,969.409L1331.6,918.014L1332.29,889.539L1280.2,870.092L1210.07,884.527Z" style="fill:rgb(249,168,205);"/>
                <path d="M1061.86,530.292C1103.23,457.517 1160.61,409.395 1230.92,391.603" style="fill:none;stroke:black;stroke-width:23.13px;stroke-linecap:round;stroke-miterlimit:1.5;"/>
                <path d="M1107.17,948.877C1100.05,975.159 1089.68,994.942 1076.78,1009.65C1060.22,1000.7 1049.21,972.29 1044.22,922.832C1031.93,940.06 1019.63,959.141 1007.33,979.263C992.011,974.335 981.77,949.102 978.028,897.873C950.17,906.197 930.646,906.188 917.257,900.043C975.864,866.105 984.063,760.516 1024.97,629.188C1034.87,597.413 1046.68,564.13 1061.59,529.991C926.09,350.65 1135.59,235.825 1228.71,392.172C1310.53,364.343 1390.7,371.167 1469.62,404.109C1561.85,216.51 1834.55,363.847 1647.59,570.144C1715.06,617.556 1650.69,882.248 1743.09,973.837L1680.15,952.133L1699.68,1056.31L1650.85,1015.07L1660.62,1063.91L1598.76,1012.9L1580.31,1076.93L1543.41,1011.82L1516.29,1062.82L1491.33,1017.24" style="fill:none;stroke:black;stroke-width:23.13px;stroke-linecap:round;stroke-miterlimit:1.5;"/>
                <path d="M1079.29,493.485C1020.35,397.932 1082.16,323.472 1174.43,407.702" style="fill:none;stroke:black;stroke-width:23.13px;stroke-linecap:round;stroke-miterlimit:1.5;"/>
                <path d="M1522.8,417.131C1578.77,333.686 1705.93,394.227 1631.32,510.458C1602.64,476.351 1565.94,445.451 1522.8,417.131Z" style="fill:none;stroke:black;stroke-width:23.13px;stroke-linecap:round;stroke-miterlimit:1.5;"/>
                <path d="M1165.77,755.712C1091.49,809.788 1116.37,873.546 1177.7,889.191L1261.26,869.658L1380.64,901.128C1446.35,891.863 1466.71,837.643 1399.08,768.735" style="fill:none;stroke:black;stroke-width:23.13px;stroke-linecap:round;stroke-miterlimit:1.5;"/>
                <path d="M1177.7,893.532C1181.27,1116.15 1323.59,1124.75 1382.81,905.469" style="fill:none;stroke:black;stroke-width:23.13px;stroke-linecap:round;stroke-miterlimit:1.5;"/>
                <path d="M1330.72,892.447C1319.71,1019.05 1241.61,1052.97 1215.69,961.899" style="fill:none;stroke:black;stroke-width:23.13px;stroke-linecap:round;stroke-miterlimit:1.5;"/>
                <g transform="matrix(1,0,0,1,-0.444489,2.22248)">
                    <path d="M1626.98,548.169L1648.68,568.787" style="fill:none;stroke:black;stroke-width:23.13px;stroke-linecap:round;stroke-miterlimit:1.5;"/>
                </g>
                <path d="M1084.38,575.298L1221.11,682.733" style="fill:none;stroke:black;stroke-width:23.13px;stroke-linecap:round;stroke-miterlimit:1.5;"/>
                <path d="M1370.87,689.244L1500.01,578.554" style="fill:none;stroke:black;stroke-width:23.13px;stroke-linecap:round;stroke-miterlimit:1.5;"/>
                <path d="M1391.77,672.218C1460.79,771.723 1539.56,694.793 1481.56,598.088L1391.77,672.218Z" style="stroke:black;stroke-width:14.89px;stroke-linecap:round;stroke-miterlimit:1.5;"/>
                <path d="M1102.83,593.747C1068.33,652.311 1086.89,699.883 1119.87,706.483C1140.97,710.704 1167.95,698.166 1190.73,661.029L1102.83,593.747Z" style="stroke:black;stroke-width:14.89px;stroke-linecap:round;stroke-miterlimit:1.5;"/>
                <g transform="matrix(1.19512,0,0,1,-249.305,-4.16692)">
                    <ellipse cx="1267.01" cy="805.848" rx="42.713" ry="43.408" style="fill:rgb(11,6,0);"/>
                </g>
            </g>
            <g transform="matrix(1,0,0,1,-320.049,-4.23904)">
                <path d="M943.628,682.443C852.917,728.579 820.396,776.534 866.299,855.804" style="fill:none;stroke:black;stroke-width:18.6px;stroke-linecap:round;stroke-miterlimit:1.5;"/>
            </g>
            <g transform="matrix(1,0,0,1,-320.049,-4.23904)">
                <path d="M993.113,760.577C964.169,772.305 958.391,786.759 968.804,803.117" style="fill:none;stroke:black;stroke-width:18.6px;stroke-linecap:round;stroke-miterlimit:1.5;"/>
            </g>
            <g transform="matrix(1,0,0,1,-320.049,-4.23904)">
                <path d="M1391.82,989.338C1409.57,1026.51 1415.45,1061.85 1403.1,1094.38" style="fill:none;stroke:black;stroke-width:18.6px;stroke-linecap:round;stroke-miterlimit:1.5;"/>
            </g>
            <g transform="matrix(1,0,0,1,-320.049,-4.23904)">
                <path d="M1333.69,853.071L1315.46,901.688L1291.15,912.974L1237.33,902.556L1189.58,896.479L1167.01,932.073L1173.95,975.481L1220.83,1005.87L1307.65,1020.63L1376.23,1000.66L1424.85,966.8L1333.69,853.071" style="fill:rgb(99,61,30);"/>
            </g>
            <g transform="matrix(1,0,0,1,-320.049,-4.23904)">
                <path d="M1336.69,809.194C1337.51,827.506 1335.29,850.112 1329.77,869.589C1323.13,893.011 1311.7,911.909 1295.02,913.374C1270.59,915.518 1198.41,880.321 1177.81,902.088C1156.26,924.87 1138.11,1015.2 1315.85,1023.63C1429.61,1001.59 1422.35,939.476 1466.91,884.203" style="fill:none;stroke:black;stroke-width:18.6px;stroke-linecap:round;stroke-miterlimit:1.5;"/>
            </g>
            <g transform="matrix(1,0,0,1,-320.049,-4.23904)">
                <path d="M1440.43,688.086C1541.95,852.903 1593.69,1015.23 1509.89,1170.78" style="fill:none;stroke:black;stroke-width:18.6px;stroke-linecap:round;stroke-miterlimit:1.5;"/>
            </g>
            <g transform="matrix(1,0,0,1,-320.049,-4.23904)">
                <path d="M806.63,710.901C773.33,725.518 751.329,747.994 760.848,792.291" style="fill:none;stroke:rgb(255,144,0);stroke-width:8px;stroke-linecap:round;stroke-miterlimit:1.5;"/>
            </g>
            <g transform="matrix(0.56604,0,0,0.744,56.9086,204.664)">
                <path d="M806.63,710.901C773.33,725.518 751.329,747.994 760.848,792.291" style="fill:none;stroke:rgb(255,144,0);stroke-width:12.1px;stroke-linecap:round;stroke-miterlimit:1.5;"/>
            </g>
            <g transform="matrix(-1.13699,1.00529,-0.788692,-0.892017,2789.04,765.24)">
                <path d="M806.63,710.901C773.33,725.518 751.329,747.994 760.848,792.291" style="fill:none;stroke:rgb(255,144,0);stroke-width:5.87px;stroke-linecap:round;stroke-miterlimit:1.5;"/>
            </g>
            <g transform="matrix(-1.13699,1.00529,-0.788692,-0.892017,2742.16,789.548)">
                <path d="M806.63,710.901C773.33,725.518 751.329,747.994 760.848,792.291" style="fill:none;stroke:rgb(255,144,0);stroke-width:5.87px;stroke-linecap:round;stroke-miterlimit:1.5;"/>
            </g>
        </g>
        <g transform="matrix(1,0,0,1,149.03,-99.4856)">
            <path d="M1126.19,1106.96L1075.69,1089.54L1033.02,1084.2L978.616,1094.16L952.302,1120.48L944.835,1152.83L965.815,1208.31C1000.39,1241.06 1030.33,1253.55 1055.43,1236.04C1063.77,1249.39 1098.63,1231.96 1143.97,1208.31L1187.71,1175.59L1197.66,1146.79L1204.42,1132.92L1126.19,1106.96Z" style="fill:rgb(99,61,30);"/>
        </g>
        <g transform="matrix(1,0,0,1,149.03,-99.4856)">
            <path d="M1083.05,1090.98C996.269,1067.25 973.287,1093.6 953.391,1115.3C933.496,1137.01 947.248,1193.54 972.925,1216.23C1048.38,1282.9 1198.55,1205.04 1207.37,1129.01" style="fill:none;stroke:black;stroke-width:18.6px;stroke-linecap:round;stroke-miterlimit:1.5;"/>
        </g>
    </g>
</svg>
