<?xml version="1.0" encoding="UTF-8" standalone="no"?>
<!DOCTYPE svg PUBLIC "-//W3C//DTD SVG 1.1//EN" "http://www.w3.org/Graphics/SVG/1.1/DTD/svg11.dtd">
<svg width="100%" height="100%" viewBox="0 0 197 388" version="1.1" xmlns="http://www.w3.org/2000/svg" xmlns:xlink="http://www.w3.org/1999/xlink" xml:space="preserve" xmlns:serif="http://www.serif.com/" style="fill-rule:evenodd;clip-rule:evenodd;stroke-linecap:round;stroke-linejoin:round;stroke-miterlimit:1.5;">
    <g transform="matrix(1,0,0,1,-1183.78,-513.729)">
        <path d="M1352.46,672.77C1384.58,707.638 1385.23,750.015 1343.28,754.945C1352.38,804.952 1308.66,846.561 1336.13,867.749C1343.67,873.564 1360.18,880.737 1352.27,890.428C1338.18,901.866 1327.13,898.429 1315.57,893.551C1306.07,889.544 1285.79,880.718 1293.42,870.996C1302.45,859.485 1289.95,837.265 1287.36,812.766C1260.68,804.295 1248.14,784.043 1243.32,757.363L1255.9,672.77L1352.46,672.77Z" style="fill:rgb(136,83,52);"/>
        <g transform="matrix(0.965784,0.259348,-0.259348,0.965784,220.118,-312.321)">
            <path d="M1255.9,672.77L1256.69,667.468L1229.95,566.194L1256.4,540.164C1271.95,537.29 1287.51,538.068 1303.06,541.871C1305.56,538.979 1306.03,535.997 1307.52,533.725C1309.71,530.39 1312.95,529.258 1317.02,528.153C1336.67,522.813 1357.11,544.228 1340.89,562.638C1347.73,581.719 1349.73,595.27 1352.77,609.719C1353.98,615.505 1351.72,626.244 1352.88,631.296C1356.89,648.724 1364.4,655.521 1371.33,655.093C1366.95,659.455 1359.14,659.588 1346.87,654.24L1350,670.171C1350.84,671.032 1351.66,671.898 1352.46,672.77C1312.69,681.822 1262.25,703.59 1255.9,672.77Z" style="fill:rgb(136,83,52);"/>
        </g>
        <path d="M1316.44,796.864C1317.35,829.803 1305.41,854.149 1320.65,866.833C1337.3,870.938 1347.54,878.886 1352.06,890.274C1341.71,902.82 1328.81,899.795 1315.42,893.915C1301.18,889.544 1293.31,882.28 1292.43,871.84L1296.75,865.695C1295.37,849.525 1291.91,831.873 1286.29,812.668L1286.74,803.11C1297.54,802.225 1307.47,800.176 1316.44,796.864Z" style="fill:rgb(100,59,37);"/>
        <path d="M1264.09,672.77C1256.59,694.827 1254.02,719.691 1253.13,737.939C1250.54,791.032 1266.95,814.631 1316.85,796.491C1303.69,804.762 1290.77,813.474 1272.05,811.249C1264.54,832.31 1257.7,861.328 1265.3,874.314C1266.96,877.151 1263,879.17 1263.51,882.724C1228.64,907.244 1200.66,901.575 1204.35,882.275C1205.61,875.693 1216.61,869.525 1226.53,862.81L1232.08,845.683C1225.62,818.558 1208.72,787.041 1214.8,754.353C1190.56,756.573 1170.07,717.229 1204.89,661.854C1204.86,661.744 1197.35,683.25 1202.46,681.742L1264.09,672.77Z" style="fill:rgb(100,59,37);"/>
        <g transform="matrix(0.965784,0.259348,-0.259348,0.965784,220.118,-312.321)">
            <path d="M1205.99,706.148C1196,718.477 1199.05,719.377 1203.07,692.508C1203.35,690.634 1204.55,682.941 1205.78,674.935C1207.14,666.002 1208.55,656.678 1208.75,654.607C1198.73,660.25 1192.33,659.847 1187.77,656.385C1199.44,651.848 1206.38,638.88 1205.6,617.976C1205.26,609.111 1203.63,599.55 1205.03,588.384C1205.74,582.647 1212.82,573.15 1213.02,566.863C1209.35,561.384 1204.36,556.628 1205.85,549.371C1210.11,528.58 1231.99,517.398 1252.27,540.776L1263.83,538.538C1242.48,560.894 1238.48,594.16 1264.94,618.07L1266,667.498C1265.33,669.234 1264.7,670.993 1264.09,672.77C1261.43,740.03 1230.83,727.909 1205.99,706.148Z" style="fill:rgb(100,59,37);"/>
        </g>
        <g transform="matrix(0.411875,0,0,0.411875,640.832,426.592)">
            <path d="M1489.35,848.239L1501.55,826.391L1480.06,815.649L1485.89,810.187C1520.57,830.521 1563.36,831.911 1615.52,811.462L1620.62,815.831L1600.23,826.755L1612.06,848.603C1637.09,841.646 1659.67,831.224 1678.88,816.013C1677.91,782.103 1675.19,748.629 1664.5,717.151L1612.24,748.831C1619.35,769.293 1613.75,782.26 1593.67,786.701C1578.89,786.344 1572.76,776.991 1569.64,764.489C1568.7,751.909 1572.83,742.779 1584.02,738.453C1595.65,734.789 1605.46,736.958 1612.24,748.831L1664.5,717.151C1659.51,702.019 1651.58,686.66 1640.28,671.043C1625.41,662.199 1607.02,656.34 1585.84,652.836L1581.29,666.491C1562.08,665.088 1542.37,664.796 1521.21,667.766L1518.02,738.043C1541.57,753.124 1528.9,790.619 1502.91,785.153C1490.8,780.668 1486.48,772.468 1484.57,763.123C1482.81,755.112 1486.27,747.101 1495.67,739.09L1511.51,735.813L1518.02,738.043L1521.21,667.766L1514.06,653.064L1498.77,656.523L1460.9,669.632C1425.34,723.636 1416.23,771.628 1423.39,815.922C1442.82,831.351 1464.58,842.521 1489.35,848.239Z" style="fill:rgb(255,144,0);"/>
            <g transform="matrix(0.935103,0,0,0.945055,99.8824,43.1629)">
                <ellipse cx="1505.43" cy="759.056" rx="24.688" ry="26.509" style="fill:none;stroke:black;stroke-width:7.75px;"/>
            </g>
            <g transform="matrix(0.935103,0,0,0.945055,184.361,43.7455)">
                <ellipse cx="1505.43" cy="759.056" rx="24.688" ry="26.509" style="fill:none;stroke:black;stroke-width:7.75px;"/>
            </g>
            <path d="M1488.28,849.044L1501.17,825.847C1493.46,823.137 1486.27,819.724 1479.73,815.461L1485.4,810.217C1522.63,831.28 1565.91,831.442 1615.18,810.945L1620.86,815.606C1615,820.522 1607.36,823.655 1599.16,826.239L1612.71,848.232C1636.64,841.577 1659.09,831.828 1678.36,815.461C1679.33,755.338 1667.04,706.455 1640.05,670.026C1624.87,662.631 1607.57,656.689 1586.16,653.567L1580.92,666.967C1559.15,665.025 1538.97,664.977 1521.09,667.695L1514.25,652.984C1491.45,658.039 1473.56,663.66 1460.86,669.88C1431.37,712.126 1416.96,760.008 1422.81,815.461C1443.22,831.719 1465.16,842.496 1488.28,849.044Z" style="fill:none;stroke:black;stroke-width:7.28px;"/>
        </g>
        <g transform="matrix(0.965784,0.259348,-0.259348,0.965784,220.118,-312.321)">
            <path d="M1315.82,544.547C1327.29,537.092 1336.59,545.78 1331.29,557.065L1315.82,544.547Z" style="fill:rgb(221,179,121);"/>
        </g>
        <g transform="matrix(0.965784,0.259348,-0.259348,0.965784,220.118,-312.321)">
            <path d="M1220.18,557.125C1214.14,542.754 1226.36,538.039 1237.24,544.153L1220.18,557.125Z" style="fill:rgb(221,179,121);"/>
        </g>
        <g transform="matrix(0.965784,0.259348,-0.259348,0.965784,220.118,-312.321)">
            <path d="M1252.09,620.219C1264.17,613.869 1280.75,613.217 1301.93,618.398C1316.95,628.708 1310.53,639.011 1296.7,639.944C1291.52,640.293 1287.26,637.763 1279.86,635.695C1268.52,638.594 1259.74,641.491 1253.82,640.627C1244.8,639.311 1242.39,631.98 1247.6,623.921C1248.74,622.169 1250.23,622.3 1252.09,620.219Z" style="fill:rgb(221,179,121);"/>
        </g>
        <path d="M1219.17,713.738L1223.72,753.822C1253.93,747.579 1253.71,717.687 1219.17,713.738Z" style="fill:rgb(100,59,37);"/>
        <path d="M1338.9,712.782L1343.65,755.29C1309.66,749.884 1301.44,713.789 1338.9,712.782Z" style="fill:rgb(136,83,52);"/>
        <g>
            <g transform="matrix(0.965784,0.259348,-0.259348,0.965784,220.118,-312.321)">
                <path d="M1258.05,641.128C1259.8,658.376 1265.96,669.47 1278.59,671.57C1292.44,668.479 1298.53,657.619 1298.4,640.545C1286.84,634.118 1273.49,633.961 1258.05,641.128Z" style="fill:rgb(100,59,37);"/>
            </g>
            <g transform="matrix(0.965784,0.259348,-0.259348,0.965784,220.118,-312.321)">
                <path d="M1266.2,639.62C1268.82,666.42 1287.34,671.881 1290.33,639.393C1283.52,635.47 1275.44,635.654 1266.2,639.62Z" style="fill:rgb(247,186,193);"/>
            </g>
            <path d="M1263.71,806.87C1274.07,813.129 1285.23,812.749 1297.05,806.87" style="fill:none;stroke:black;stroke-width:3px;"/>
            <g transform="matrix(0.963796,0.266641,-0.266641,0.963796,227.248,-320.108)">
                <path d="M1359.48,662.383C1357.17,660.029 1351.08,656.66 1347.18,654.14C1360.45,660.433 1367.28,659.766 1370.84,654.407C1340.16,646.016 1361.41,590.11 1339.28,561.729C1365.74,541.793 1311.01,506.329 1304.16,542.171C1285.55,537.327 1267.93,536.942 1251.27,540.838C1229.96,507.007 1188.7,544.446 1213.49,566.174C1192.83,602.427 1219.68,649.665 1185.93,656.407C1193.13,660.173 1201.37,660.137 1210.31,655.774C1205.06,661.972 1204.61,669.29 1207.11,675.181" style="fill:none;stroke:black;stroke-width:3px;"/>
            </g>
            <path d="M1212.92,651.879C1188.85,676.073 1164.7,741.153 1213.93,755.975C1213.25,829.998 1242.11,828.915 1226.82,862.655C1184.61,884.451 1203.08,906.097 1241.93,895.992C1258.88,888.927 1270.77,880.528 1261.93,866.655C1261.61,850.381 1264.71,832.181 1272.16,811.537L1285.49,811.759C1292.73,830.098 1296.25,848.902 1295.72,868.211C1288.79,874.642 1296.09,883.267 1307.12,889.555C1317.34,895.38 1330.93,899.093 1335.28,899.77C1344.29,901.174 1359.57,886.083 1349.95,876.656C1298.84,851.407 1353.12,816.724 1343.28,754.864C1391.88,746.65 1381.93,700.816 1351.41,669.595" style="fill:none;stroke:black;stroke-width:3px;"/>
            <path d="M1212.66,754.724C1257.57,754.976 1253.24,710.699 1216.53,713.759" style="fill:none;stroke:black;stroke-width:3px;"/>
            <path d="M1341.48,712.849C1307.22,709.305 1303.52,751.913 1343.98,754.724" style="fill:none;stroke:black;stroke-width:3px;"/>
            <g transform="matrix(0.965784,0.259348,-0.259348,0.965784,220.118,-312.321)">
                <path d="M1253.86,618.117C1233.39,633.665 1248.29,642.993 1265.1,639.806C1268.97,639.071 1273.53,637.483 1277.53,636.666C1284.16,635.312 1285.4,637.833 1292.3,639.757C1305.27,643.376 1316.13,634.325 1303.47,617.889" style="fill:none;stroke:black;stroke-width:3px;"/>
            </g>
            <g transform="matrix(0.965784,0.259348,-0.259348,0.965784,220.118,-312.321)">
                <path d="M1266.38,640.136C1268.7,666.61 1284.9,671.36 1290.73,640.363" style="fill:none;stroke:black;stroke-width:3px;"/>
            </g>
            <g transform="matrix(0.965784,0.259348,-0.259348,0.965784,220.118,-312.321)">
                <path d="M1298.46,641.274C1295.01,683.833 1261.41,678.52 1258.18,641.046" style="fill:none;stroke:black;stroke-width:3px;"/>
            </g>
            <g transform="matrix(0.965784,0.259348,-0.259348,0.965784,220.118,-312.321)">
                <path d="M1220.18,557.125L1237.24,544.153C1228.88,534.174 1210.33,545.551 1220.18,557.125Z" style="fill:none;stroke:black;stroke-width:3px;"/>
            </g>
            <g transform="matrix(0.965784,0.259348,-0.259348,0.965784,220.118,-312.321)">
                <path d="M1314.62,544.38C1323.44,535.22 1341,546.94 1330.55,557.352L1314.62,544.38Z" style="fill:none;stroke:black;stroke-width:3px;"/>
            </g>
            <g transform="matrix(0.869206,0.233413,-0.181544,0.676049,316.966,-70.8677)">
                <ellipse cx="1246.35" cy="597.236" rx="10.241" ry="9.103" style="stroke:black;stroke-width:3.72px;"/>
            </g>
        </g>
        <g transform="matrix(0.986402,0.164351,-0.164351,0.986402,129.227,-207.092)">
            <path d="M1306.52,663.929C1309.05,665.795 1309.63,669.242 1307.98,674.489C1312.81,672.659 1315.89,670.247 1316.54,667.024C1319.47,669.154 1321.02,672.009 1320.18,676.127C1324.83,673.042 1326.01,667.846 1325.09,661.38C1327.26,666.797 1330.37,671.33 1335.92,673.563C1337.8,671.439 1339.32,667.644 1338.02,663.929C1343.07,667.274 1346.21,671.471 1345.49,677.402C1349.31,675.188 1350.01,668.514 1349.46,664.113" style="fill:none;stroke:black;stroke-width:3px;"/>
        </g>
        <g transform="matrix(0.933007,0.359857,-0.359857,0.933007,326.918,-412.123)">
            <path d="M1208.93,655.554C1204.89,661.881 1204.48,668.89 1208.21,676.674C1210.62,670.472 1213.68,666.064 1218.04,665.203L1218.77,672.304C1223.55,671.648 1227.52,669.198 1229.87,663.201C1230.5,671.604 1232.03,677.44 1236.06,676.127C1233.83,672.258 1234.11,668.891 1239.16,666.478C1241.34,671.724 1245.48,676.162 1248.63,674.125C1246.14,670.787 1246.02,667.449 1249.35,664.111" style="fill:none;stroke:black;stroke-width:3px;"/>
        </g>
        <g transform="matrix(0.838747,0.225234,-0.225234,0.838747,645.118,-117.799)">
            <path d="M895.156,577.152L926.035,603.37" style="fill:none;stroke:black;stroke-width:3.45px;"/>
        </g>
        <g transform="matrix(0.838747,0.225234,-0.225234,0.838747,645.118,-117.799)">
            <path d="M900.4,581.376C881.262,606.953 910.379,620.096 920.354,598.272" style="stroke:black;stroke-width:3.45px;"/>
        </g>
        <g transform="matrix(-0.838747,-0.225234,-0.225234,0.838747,2225.32,306.543)">
            <path d="M895.156,577.152L926.035,603.37" style="fill:none;stroke:black;stroke-width:3.45px;"/>
        </g>
        <g transform="matrix(-0.838747,-0.225234,-0.225234,0.838747,2225.32,306.543)">
            <path d="M900.4,581.376C881.262,606.953 910.379,620.096 920.354,598.272" style="stroke:black;stroke-width:3.45px;"/>
        </g>
    </g>
</svg>
