<?xml version="1.0" encoding="UTF-8" standalone="no"?>
<!DOCTYPE svg PUBLIC "-//W3C//DTD SVG 1.1//EN" "http://www.w3.org/Graphics/SVG/1.1/DTD/svg11.dtd">
<svg width="100%" height="100%" viewBox="0 0 891 1026" version="1.1" xmlns="http://www.w3.org/2000/svg" xmlns:xlink="http://www.w3.org/1999/xlink" xml:space="preserve" xmlns:serif="http://www.serif.com/" style="fill-rule:evenodd;clip-rule:evenodd;stroke-linecap:round;stroke-linejoin:round;stroke-miterlimit:1.5;">
    <g transform="matrix(1,0,0,1,-896.477,-209.134)">
        <path d="M928.864,1080.07L984.795,1079.25L986.659,1091.26L982.259,1099.84L978.307,1103.41L969.06,1096.18L963.989,1101.03L960.111,1102.82L952.28,1097.82L949.447,1093.35L943.481,1096.48L939.006,1100.8L934.532,1101.4L929.535,1090.81L928.417,1083.35L928.864,1080.07Z" style="fill:rgb(215,208,203);"/>
        <path d="M1322.5,1180.07L1332.12,1173.59C1336.01,1177.93 1337.23,1185.69 1336.15,1196.4L1333.46,1203.94L1325.93,1206.47L1323.02,1204.46L1322.5,1180.07Z" style="fill:rgb(215,208,203);"/>
        <path d="M1301.43,1205.86L1295.24,1184.75L1302.85,1180.58L1317.17,1179.31L1322.61,1190.94L1323.06,1200.26L1318.88,1210.63L1311.28,1218.61L1302.7,1218.68L1301.43,1205.86Z" style="fill:rgb(215,208,203);"/>
        <path d="M1292.24,1185.39C1283.26,1184.13 1274.03,1186.41 1264.57,1191.95L1255.46,1200.87L1270.03,1220.71L1296.07,1223.81C1299.04,1215.97 1300.8,1207.8 1298.43,1198.5L1292.24,1185.39Z" style="fill:rgb(215,208,203);"/>
        <path d="M1252.01,1214.71L1254.92,1203.78L1258.56,1197.96C1264.34,1212.64 1276.57,1219.14 1294.97,1217.8L1291.69,1230.18C1276.36,1229.7 1262.97,1224.9 1252.01,1214.71Z" style="fill:rgb(150,145,142);"/>
        <path d="M1286.15,277.99L1296.93,264.153L1314.99,253.083L1333.92,246.092L1357.96,244.781L1379.81,253.811L1394.08,264.007L1400.78,280.32L1401.94,299.109L1399.03,315.568L1382.72,281.048L1330.72,277.844L1315.28,296.488L1303.48,286.729L1293,281.631L1286.15,277.99Z" style="fill:rgb(156,91,51);"/>
        <path d="M1300.86,285.418C1323.5,264.95 1346.82,252.265 1372.96,271.872L1360.43,269.687L1347.18,270.707L1331.59,277.844L1320.09,287.894L1314.41,296.051L1300.86,285.418Z" style="fill:rgb(102,58,29);"/>
        <path d="M999.001,690.334L990.353,704.444L996.497,733.574L1078.43,749.505L1115.98,759.519L1126.9,737.898L1123.49,725.609L1115.07,714.002L1098.68,704.671L1077.97,705.809L1057.49,706.492L1027.68,710.361L1005.83,704.444L999.001,690.334Z" style="fill:rgb(156,91,51);"/>
        <path d="M1316.28,656.597L1315.21,628.86C1307.3,603.703 1306.06,592.261 1315.21,602.19C1311.08,598.527 1308.46,593.76 1307.74,587.611L1308.81,570.186L1318.41,579.076C1326.52,570.057 1330.81,557.989 1329.44,541.383C1345.17,542.416 1358.15,546.511 1365.35,557.029C1364.9,545.485 1366.39,534.907 1373.53,527.159C1388.21,544.32 1400.22,549.706 1410.16,546.006L1420.11,554.896L1411.58,557.385L1400.91,556.674L1389.18,553.118L1383.49,564.497L1379.22,578.721L1374.95,584.41L1365.35,594.367L1357.53,595.078C1354.45,646.816 1380.76,666.236 1414.42,658.73C1420.32,671.028 1421.45,678.555 1419.76,683.267C1405.91,703.264 1386.44,724.668 1365,746.563L1391.67,750.119C1378.16,757.982 1365.11,761.815 1352.55,761.143L1343.3,760.076L1333.7,749.053L1328.37,734.473L1331.92,719.182L1347.22,699.624L1363.57,687.178L1369.26,678.644L1351.13,672.599L1331.21,663.353L1316.28,656.597Z" style="fill:rgb(102,58,29);"/>
        <path d="M1355.75,591.344C1353.25,636.886 1371.29,666.043 1411.22,659.619C1425.93,679.227 1398.94,706.352 1363.57,746.03C1364.94,751.773 1375.37,752.615 1388.11,751.72C1399.6,745.645 1410.64,737.762 1421.18,727.894C1431.34,716.912 1439.12,704.74 1443.58,690.912C1444.96,675.18 1443.04,665.392 1439.67,658.197L1410.87,614.814L1377.09,581.743L1365,593.478C1361.91,597.193 1358.83,595.221 1355.75,591.344Z" style="fill:rgb(156,91,51);"/>
        <path d="M1276.67,273.449C1180.5,277.033 1135.33,312.725 1135.16,376.761L1145.58,471.39L1147.32,533.898L1149.5,558.198L1156.61,582.645L1172.61,606.203L1189.06,615.982L1202.84,618.205C1207.65,627.693 1166.81,630.872 1145.28,604.152C1089.8,617.533 1072.06,651.48 1069.93,703.993C1044.81,710.545 1024.09,712.258 1010.82,705.771C996.485,703.032 994.18,687.174 1005.93,655.987C999.105,660.44 996.006,672.871 997.481,695.103C994.887,705.328 996.787,708.481 1000.59,713.328C1009.33,724.45 1040.58,730.129 1085.49,717.328C1109.68,716.517 1119.68,729.177 1120.16,750.888C1110.95,765.241 1098.85,777.28 1083.71,786.892L1032.15,810.117C1005.08,817.194 979.21,819.489 955.698,812.34C939.902,807.658 933.051,800.74 926.806,793.671C914.247,782.54 906.176,766.278 901.914,745.665C898.715,726.87 900.52,706.823 906.804,685.658C911.432,658.643 923.214,631.181 946.808,602.981L969.033,573.644C958.81,580.319 948.586,584.452 938.363,585.201L941.919,562.531L956.143,534.528L938.363,541.196L916.582,543.418L939.696,507.858L960.143,475.41L973.034,433.96L982.813,393.511L997.926,360.062L1009.48,341.393C989.287,301.148 995.71,274.469 1021.04,258.383L1031.26,247.876L1049.04,241.937L1072.6,242.381L1087.27,249.049L1099.27,260.161L1105.05,268.607L1136.16,265.051L1161.06,260.161L1189.51,257.05L1215.29,257.939L1244.18,262.384L1276.67,273.449Z" style="fill:rgb(102,58,29);"/>
        <path d="M929.126,1080.87C923.516,1063.81 924.645,1045.78 927.348,1027.53C930.042,999.526 932.989,971.522 946.461,943.519C943.784,930.063 944.692,918.599 952.684,911.07L946.017,869.288L946.017,809.725C983.826,820.514 1018.59,817.901 1050.47,802.613L1074.03,790.167C1092.5,807.59 1117.06,831.714 1147.37,862.176C1166.76,890.92 1183.55,919.664 1199.38,948.408C1218.93,966.116 1239.84,971.595 1262.94,957.298C1272.25,981.007 1263.9,1017.11 1243.61,1049.15C1232,1067.47 1229.21,1079.31 1230.94,1085.09C1211.37,1095.62 1201.46,1106.72 1202.05,1118.43L1252.28,1200.22L1251.39,1212.66C1241.9,1213.55 1232.42,1209.55 1222.94,1199.77C1212.95,1190.02 1205.52,1173.22 1200.27,1150.43C1178.39,1139.92 1161.7,1125.09 1146.93,1108.65C1144.24,1091.42 1157.03,1049.28 1181.6,988.191C1153.63,965.843 1130,937.351 1116.26,894.846C1096.27,896.689 1086.74,895.677 1079.81,893.957L1066.03,914.404L1049.14,940.63L1029.14,966.41C1016.88,982.116 1007.02,997.822 1000.69,1013.53C989.256,1035.45 984.417,1057.98 986.021,1081.09C967.056,1087.13 948.091,1086.68 929.126,1080.87Z" style="fill:rgb(102,58,29);"/>
        <path d="M1263.61,955.551C1250.45,971.537 1215.33,969.747 1197.83,947.105C1184.77,922.072 1166,892.287 1145.82,861.317C1107.59,851.406 1077.78,833.921 1075.14,791.975C1095.15,781.647 1110.84,768.078 1121.37,750.637C1128.41,734.264 1124.86,723.596 1116.48,715.522C1105.26,705.613 1086.51,700.982 1069.37,705.298C1064.33,644.082 1089.8,605.013 1144.04,595.952C1162.93,619.055 1186.2,625.892 1213.38,618.176C1236.81,611.058 1257.49,583.794 1262.72,536.944C1278.81,534.589 1293.35,529.158 1303.51,514.942C1311.29,502.991 1310.54,494.147 1305.28,486.938C1297.66,473.664 1288.33,471.439 1279.5,467.825C1240.16,454.508 1196.03,447.495 1137.71,460.268C1134.04,446.647 1131.6,435.069 1131.48,427.375L1131.04,369.591C1135.17,296.207 1198.14,273.411 1272.39,271.468C1334.25,300.508 1360.34,329.549 1372.4,358.589L1385.86,416.787L1396.19,516.629L1410.18,548.168C1395.89,549.938 1385.64,541.341 1373.1,528.442C1370.88,531.187 1367.4,537.862 1365.17,558.435C1361.65,550.492 1352.66,542.922 1330.17,543.278C1332.79,557.855 1327.81,571.82 1318.62,579.283C1314.35,579.122 1311.27,575.33 1308.18,568.045C1304.71,578.783 1303.25,588.24 1312.84,603.73C1319.65,662.427 1310.05,710.179 1295.5,754.637C1284.77,790.739 1266.09,825.253 1243.5,858.984C1249.44,892.313 1255.18,925.947 1263.61,955.551Z" style="fill:rgb(156,91,51);"/>
        <path d="M1106.84,352.878L1164.09,399.461C1132.88,452.662 1065.14,424.023 1106.84,352.878Z"/>
        <path d="M1286.77,427.198C1298.49,446.903 1312.5,458.109 1330.86,453.156C1347.96,444.135 1351.47,429.938 1348.64,413.329C1346.19,407.599 1341.37,397.131 1335.13,383.815L1286.77,427.198Z"/>
        <path d="M1030.65,312.517L1019.27,284.069C1013.36,267.835 1022.54,255.372 1035.63,243.886C1047.34,241.324 1060.42,240.402 1076.88,243.531C1088.38,247.205 1097.5,255.147 1104.26,267.356C1077.88,280.104 1053.24,295.028 1030.65,312.517Z" style="fill:rgb(201,152,94);"/>
        <path d="M1315.66,294.026C1339.17,265.03 1364.21,260.901 1389.63,286.914C1397.98,296.397 1397.86,306.235 1396.74,315.717C1391.06,331.431 1381.44,343.863 1370.07,354.833C1354.05,326.101 1335.48,307.583 1315.66,294.026Z" style="fill:rgb(201,152,94);"/>
        <path d="M1254.16,1203.69L1242.61,1197.91C1237.66,1173.86 1206.97,1134.74 1199.94,1117.02C1198.9,1101.44 1209.48,1091.31 1228.59,1086.4C1254.38,1098.07 1277.27,1113.19 1295.95,1130.79C1313.19,1139.13 1325.82,1151.05 1332.4,1167.69C1334.87,1173.21 1330.52,1176.24 1319.95,1177.02C1306.72,1176.29 1298.22,1178.94 1293.28,1184.13C1275.73,1183.31 1262.24,1189.1 1254.16,1203.69Z" style="fill:rgb(156,91,51);"/>
        <path d="M1009.25,338.031C984.986,261.244 1063.96,198.814 1105.26,270.467C1104.94,272.317 1114.46,271.433 1135.48,267.356C1112.85,225.657 1081.53,200.409 1025.69,221.573C972.689,251.972 978.088,294.593 1009.25,338.031Z" style="fill:rgb(156,91,51);"/>
        <path d="M1145.1,528.827L1173.87,525.003L1214.84,518.631L1261.26,536.656L1260.17,560.506L1250.52,585.267L1237.96,602.746C1229.46,610.965 1219.57,615.828 1208.64,618.221L1187.16,616.036L1166.95,600.197L1154.03,575.618C1149.09,561.733 1146.15,546.11 1145.1,528.827Z" style="fill:rgb(156,91,51);"/>
        <path d="M1175.59,526.07L1173.93,555.518L1181.15,577.188L1192.82,586.633L1211.34,588.884L1225.6,582.188L1240.05,559.963L1243.93,531.071L1215.04,521.07L1175.59,526.07Z" style="fill:rgb(231,168,151);"/>
        <path d="M1280.38,468.745C1261.37,456.172 1198.11,435.688 1141.1,460.006L1121.85,475.982L1110.74,493.096L1115.29,507.843L1136.41,525.504L1148.97,528.781L1188.66,523.501L1215.25,520.042L1258.76,535.882L1270.64,534.607L1292.3,524.776L1304.14,514.58L1309.96,498.012L1301.41,480.169L1288.12,471.066L1280.38,468.745Z" style="fill:rgb(201,152,94);"/>
        <path d="M1296.04,476.938C1300.6,499.623 1300.91,521.398 1246.33,531.376L1262.54,537.566L1284.02,530.101L1304.23,513.897L1308.78,496.237C1307.16,488.848 1303,482.385 1296.04,476.938Z" style="fill:rgb(140,106,66);"/>
        <path d="M1128.75,467.783C1108.57,501.186 1126.52,517.275 1160.42,526.123L1146.06,529.198L1133.94,523.488L1116.23,509.039L1112.51,498.086L1114.02,488.415L1118.45,479.093L1128.75,467.783Z" style="fill:rgb(140,106,66);"/>
        <path d="M1300.61,1217.9L1301.88,1203.36L1312.99,1215.07L1307.47,1220.59L1300.61,1217.9Z" style="fill:rgb(150,145,142);"/>
        <g>
            <path d="M1069.09,578.231C1060.44,586.69 1052.25,593.265 1044.78,596.983C1042.24,592.994 1039.69,584.266 1037.14,571.98C1030.66,585.025 1022.18,594.726 1012.14,601.845C1005.28,598.761 1002.37,590.593 1003.81,576.842C988.181,587.716 974,592.814 960.745,594.205L974.636,569.896C962.366,578.572 950.096,584.8 937.826,585.176C939.061,562.334 946.759,545.955 958.662,533.781C944.918,540.061 930.326,543.353 914.212,544.893C1007.72,422.917 950.888,401.756 1018.39,332.367" style="fill:none;stroke:black;stroke-width:9.03px;"/>
            <path d="M1009.92,338.844C919.772,240.009 1090.43,154.881 1134.38,266.391C1194.21,249.981 1243.75,254.797 1284.62,277.503C1349.24,197.869 1455.48,271.994 1369.96,357.513C1394.91,416.927 1382.48,540.35 1420.19,555.537C1408.93,560.034 1397.67,559.634 1386.41,551.092C1384.05,572.198 1374.4,587.475 1360.18,599.098C1351.31,581.166 1349.29,563.312 1343.29,559.093C1339.17,579.714 1328.3,593.59 1313.51,603.543C1305.31,592.731 1303.78,581.313 1308.62,569.316" style="fill:none;stroke:black;stroke-width:9.03px;"/>
            <path d="M1031.26,313.289C1058.48,291.239 1082.56,277.848 1105.04,268.839C1074.58,213.869 985.675,242.429 1031.26,313.289Z" style="fill:none;stroke:black;stroke-width:9.03px;"/>
            <path d="M1284.21,277.284C1327.08,296.168 1354.35,326.746 1371.14,359.854" style="fill:none;stroke:black;stroke-width:9.03px;"/>
            <path d="M1317.32,295.874C1315.68,297.754 1312.83,297.952 1310.95,296.316C1309.07,294.68 1308.87,291.826 1310.51,289.946C1323.28,276.569 1336.82,267.88 1350.53,266.647C1363.82,265.45 1377.34,271.085 1390.22,286.832C1390.35,286.974 1390.34,287.193 1390.2,287.321C1390.06,287.449 1389.84,287.437 1389.71,287.295C1376.34,273.748 1363.46,269.198 1351.18,271.463C1338.98,273.715 1327.67,282.799 1317.32,295.874Z"/>
            <path d="M1142.65,457.97C1143.56,457.383 1144.77,457.645 1145.36,458.554C1145.95,459.463 1145.69,460.678 1144.78,461.265C1126.85,473.404 1116.03,485.416 1115.11,496.48C1114.67,501.848 1116.89,506.831 1121.82,511.392C1126.99,516.176 1135.02,520.401 1146.14,524.038C1157.26,524.183 1168.44,523.389 1179.72,521.75C1190.75,520.146 1201.88,517.727 1213.1,514.332C1214.27,513.986 1215.52,514.123 1216.58,514.712C1224.04,518.933 1231.52,522.545 1238.99,525.497C1246.66,528.53 1254.32,530.875 1262.01,532.351C1284.76,528.643 1298.96,518.657 1303.79,507.125C1309.62,493.186 1301.2,477.8 1278.67,469.836C1277.64,469.496 1277.09,468.386 1277.42,467.359C1277.76,466.331 1278.87,465.773 1279.9,466.112C1306.55,474.317 1315.73,492.896 1309.54,509.406C1304.5,522.841 1288.81,535.406 1262.63,540.385C1262.18,540.463 1261.72,540.463 1261.26,540.385C1252.81,539.024 1244.35,536.729 1235.88,533.568C1228.54,530.827 1221.21,527.422 1213.87,523.485C1202.79,526.652 1191.81,528.98 1180.9,530.39C1168.96,531.935 1157.12,532.393 1145.38,531.933C1144.99,531.922 1144.59,531.851 1144.22,531.723C1117.69,522.15 1107.4,509.243 1109.05,495.85C1109.65,491 1111.79,485.98 1115.5,480.946C1121.12,473.317 1130.34,465.529 1142.65,457.97Z"/>
            <path d="M1145.94,529.315C1147.89,643.876 1252.34,649.457 1262.39,537.316" style="fill:none;stroke:black;stroke-width:9.03px;"/>
            <path d="M1174.67,527.59C1161.02,598.421 1219.56,607.366 1239.73,560.43" style="fill:none;stroke:black;stroke-width:9.03px;"/>
            <path d="M973.471,570.209C893.06,654.354 874.208,760.58 944.134,809.349C1018.29,836.649 1136.53,773.022 1124.6,728.45C1113.12,685.537 1039.27,715.72 1013.91,708.651C996.562,703.818 993.377,681.963 1004.59,656.442" style="fill:none;stroke:black;stroke-width:9.03px;"/>
            <path d="M945.023,809.127C942.809,883.506 950.793,923.215 966.359,937.142" style="fill:none;stroke:black;stroke-width:9.03px;"/>
            <path d="M951.246,909.139C943.112,923.215 942.044,937.291 951.691,951.366" style="fill:none;stroke:black;stroke-width:9.03px;"/>
            <path d="M945.912,943.365C920.795,1008.15 917.874,1068.01 934.78,1101.38" style="fill:none;stroke:black;stroke-width:9.03px;"/>
            <path d="M1059.7,885.025C1070.66,894.419 1086.08,899.942 1114.82,893.915C1127.49,934.241 1150.31,965.046 1181.94,987.593C1146.42,1074.77 1139.23,1104.78 1149.94,1112.39C1164.52,1128.78 1181.58,1141.03 1199.72,1151.5C1207.31,1187.1 1222.35,1211.1 1251.28,1213.51C1261.78,1227.31 1275.16,1234.09 1293.95,1227.73L1298.92,1214.54C1304.85,1219.69 1310.25,1221.25 1316.18,1215.73L1322.18,1202.98C1325.74,1205.29 1329.07,1206.61 1332.63,1204.17C1337.43,1190.82 1336.12,1181.82 1332.63,1174.39C1333.74,1153.83 1300.17,1131.23 1227.28,1084.38C1252,1031.27 1269.57,995.7 1265.84,981.703L1243.17,857.688C1294.82,776.974 1319.53,700.189 1314.29,627.771" style="fill:none;stroke:black;stroke-width:9.03px;"/>
            <path d="M1314.74,654.441C1329.38,666.676 1344.83,672.137 1368.96,678.444" style="fill:none;stroke:black;stroke-width:9.03px;"/>
            <path d="M1388.65,668.068C1305.75,720.422 1327.51,751.85 1342.07,758.39C1363.74,768.129 1460.88,728.228 1441.42,664.22C1428.31,633.568 1405.04,606.825 1376.52,582.099" style="fill:none;stroke:black;stroke-width:9.03px;"/>
            <path d="M1251.49,1213.56C1251.68,1207.63 1253.66,1201.71 1258.6,1195.78C1269.39,1188.24 1280.84,1184.65 1292.82,1184.22C1303.09,1177.7 1313.76,1175.93 1321.65,1182.44C1324.5,1177.83 1326.71,1174.16 1331.94,1173.11" style="fill:none;stroke:black;stroke-width:9.03px;"/>
            <path d="M1303.94,1152.66C1319.57,1167.64 1325.94,1183.77 1322.61,1201.11" style="fill:none;stroke:black;stroke-width:9.03px;"/>
            <path d="M1263.04,1156.66C1288.51,1170.35 1302.03,1189.51 1299.05,1216.23" style="fill:none;stroke:black;stroke-width:9.03px;"/>
            <path d="M928.79,1080.08C946.422,1087.23 965.479,1082.79 983.111,1080.65" style="fill:none;stroke:black;stroke-width:9.03px;"/>
            <path d="M1079.58,896.188C1023.69,979.733 985.899,1002.57 984.008,1081.1" style="fill:none;stroke:black;stroke-width:9.03px;"/>
            <path d="M934.967,1101.63C946.038,1098.8 949.675,1088.52 948.893,1072.65" style="fill:none;stroke:black;stroke-width:9.03px;"/>
            <path d="M948.147,1090.51C956.528,1105.51 963.478,1107.29 967.117,1092.66L968.451,1077.1" style="fill:none;stroke:black;stroke-width:9.03px;"/>
            <path d="M968.006,1094.43C970.022,1098.27 973.384,1101.32 977.785,1103.77C985.532,1097.08 988.115,1089.87 984.008,1081.99" style="fill:none;stroke:black;stroke-width:9.03px;"/>
            <path d="M1098.13,343.676L1178.14,412.129" style="fill:none;stroke:black;stroke-width:9.03px;"/>
            <path d="M1106.13,353.011C1065.38,425.609 1133.7,454.848 1163.78,400.076" style="fill:none;stroke:black;stroke-width:9.03px;"/>
            <path d="M1274.15,437.91L1345.72,376.125" style="fill:none;stroke:black;stroke-width:9.03px;"/>
            <path d="M1287.49,429.02C1321.51,483.78 1375.86,440.379 1336.38,386.793" style="fill:none;stroke:black;stroke-width:9.03px;"/>
        </g>
        <path d="M1193.35,472.386C1212.86,455.053 1230.65,456.582 1247.24,471.294C1256.08,492.416 1243.09,502.791 1219.39,507.889C1199.42,505.932 1190.01,494.735 1193.35,472.386Z"/>
        <g transform="matrix(0.963269,0.26854,-0.26854,0.963269,164.888,-410.628)">
            <path d="M1767.04,307.26C1767.04,283.677 1747.9,264.53 1724.32,264.53L1491.81,264.53C1468.23,264.53 1449.08,283.677 1449.08,307.26L1449.08,392.719C1449.08,416.302 1468.23,435.449 1491.81,435.449L1552.42,435.449L1503.9,508.7L1600.11,435.449L1724.32,435.449C1747.9,435.449 1767.04,416.302 1767.04,392.719L1767.04,307.26Z" style="fill:rgb(78,85,98);stroke:rgb(78,85,98);stroke-width:1.09px;"/>
        </g>
        <g transform="matrix(0.963269,0.26854,-0.26854,0.963269,162.888,-417.628)">
            <path d="M1767.04,307.26C1767.04,283.677 1747.9,264.53 1724.32,264.53L1491.81,264.53C1468.23,264.53 1449.08,283.677 1449.08,307.26L1449.08,392.719C1449.08,416.302 1468.23,435.449 1491.81,435.449L1552.42,435.449L1512.67,508.7L1600.11,435.449L1724.32,435.449C1747.9,435.449 1767.04,416.302 1767.04,392.719L1767.04,307.26Z" style="fill:rgb(211,211,211);stroke:rgb(78,85,98);stroke-width:1.09px;"/>
        </g>
        <g transform="matrix(0.96363,0.267238,-0.267238,0.96363,127.078,-401.53)">
            <path d="M1547.61,339.575C1546.77,339.575 1545.99,339.247 1545.29,338.59C1540.56,334.153 1535.35,331.075 1529.68,329.356C1529.85,333.903 1529.94,336.426 1529.94,336.926C1529.94,337.817 1529.63,338.571 1529,339.188C1528.38,339.805 1527.59,340.114 1526.66,340.114C1525.72,340.114 1524.94,339.805 1524.31,339.188C1523.69,338.571 1523.38,337.817 1523.38,336.926C1523.38,335.754 1523.39,334.001 1523.42,331.665C1523.45,329.329 1523.47,327.575 1523.47,326.403L1523.52,307.489C1523.52,306.473 1523.82,305.551 1524.43,304.723C1525.23,303.661 1526.33,303.184 1527.74,303.293C1531.53,303.575 1533.48,303.723 1533.57,303.739C1535.76,304.004 1537.62,304.528 1539.15,305.309C1545.82,308.668 1549.16,312.833 1549.16,317.801C1549.16,319.848 1548.46,321.657 1547.06,323.227C1545.66,324.797 1543.56,326.122 1540.77,327.2C1544.91,329.512 1548.02,331.872 1550.12,334.278C1550.66,334.903 1550.94,335.598 1550.94,336.364C1550.94,337.239 1550.61,337.993 1549.95,338.626C1549.3,339.258 1548.52,339.575 1547.61,339.575ZM1532.59,310.09C1532.46,310.075 1531.55,310.012 1529.84,309.903L1529.84,322.348C1530.24,322.364 1530.58,322.372 1530.88,322.372C1534.7,322.372 1537.54,321.895 1539.38,320.942C1540.18,320.536 1540.91,319.997 1541.58,319.325C1542.24,318.653 1542.57,318.145 1542.57,317.801C1542.57,316.051 1541.46,314.364 1539.24,312.739C1537.13,311.208 1534.91,310.325 1532.59,310.09Z" style="fill-opacity:0.75;fill-rule:nonzero;"/>
            <path d="M1574.56,340.583C1573.84,340.583 1572.7,339.887 1571.14,338.497C1569.7,339.184 1568.44,339.704 1567.34,340.055C1566.25,340.407 1565.32,340.583 1564.56,340.583C1560.79,340.583 1557.97,339.575 1556.08,337.559C1554.2,335.543 1553.26,332.528 1553.26,328.512C1553.26,324.747 1554.65,321.524 1557.43,318.844C1560.21,316.165 1563.54,314.825 1567.41,314.825C1568.9,314.825 1570.62,315.242 1572.57,316.078C1574.93,317.084 1576.11,318.251 1576.11,319.582C1576.11,320.139 1575.93,320.626 1575.57,321.044C1575.41,321.663 1575.29,322.44 1575.21,323.376C1575.12,324.312 1575.08,325.406 1575.08,326.66C1575.08,329.614 1575.29,331.741 1575.71,333.041C1575.76,333.18 1576.12,333.984 1576.79,335.454C1577.4,336.785 1577.7,337.543 1577.7,337.728C1577.7,338.548 1577.39,339.229 1576.76,339.77C1576.12,340.312 1575.39,340.583 1574.56,340.583ZM1568.75,324.762C1568.75,324.262 1568.79,323.688 1568.86,323.04C1568.93,322.391 1569.03,321.668 1569.17,320.872C1568.86,320.715 1568.58,320.602 1568.34,320.532C1568.1,320.461 1567.89,320.426 1567.72,320.426C1565.59,320.426 1563.74,321.258 1562.14,322.922C1560.55,324.586 1559.75,326.512 1559.75,328.7C1559.75,330.793 1560.13,332.368 1560.88,333.422C1561.63,334.477 1562.75,335.004 1564.25,335.004C1565.22,335.004 1566.14,334.844 1567.01,334.524C1567.87,334.204 1568.69,333.731 1569.45,333.106C1568.99,329.387 1568.75,326.606 1568.75,324.762Z" style="fill-opacity:0.75;fill-rule:nonzero;"/>
            <path d="M1591.84,340.676C1590.49,340.676 1589.08,340.52 1587.59,340.208L1587.57,349.77C1587.57,350.676 1587.27,351.426 1586.66,352.02C1586.05,352.614 1585.27,352.911 1584.34,352.911C1583.4,352.911 1582.63,352.614 1582.02,352.02C1581.41,351.426 1581.1,350.676 1581.1,349.77C1581.1,349.036 1581.12,346.122 1581.15,341.028C1581.18,337.247 1581.18,334.161 1581.15,331.77C1581.1,328.395 1580.99,325.489 1580.82,323.051C1580.59,319.692 1580.47,318.153 1580.47,318.434C1580.47,317.137 1580.76,316.028 1581.34,315.106C1582.01,314.059 1582.91,313.536 1584.06,313.536C1584.93,313.536 1585.66,313.833 1586.26,314.426C1586.85,315.02 1587.15,315.731 1587.15,316.559L1587.13,316.793C1588.17,316.2 1589.22,315.758 1590.28,315.469C1591.33,315.18 1592.39,315.036 1593.45,315.036C1597.05,315.036 1599.67,316.559 1601.33,319.606C1602.56,321.903 1603.18,324.879 1603.18,328.536C1603.18,331.958 1602.2,334.793 1600.25,337.043C1598.16,339.465 1595.35,340.676 1591.84,340.676ZM1593.45,321.293C1592.47,321.293 1591.47,321.524 1590.45,321.985C1589.44,322.446 1588.41,323.137 1587.38,324.059C1587.57,327.278 1587.66,330.504 1587.66,333.739C1589.06,334.192 1590.45,334.418 1591.84,334.418C1593.45,334.418 1594.68,333.848 1595.54,332.708C1596.32,331.676 1596.71,330.286 1596.71,328.536C1596.71,326.426 1596.62,324.965 1596.43,324.153C1595.98,322.247 1594.99,321.293 1593.45,321.293Z" style="fill-opacity:0.75;fill-rule:nonzero;"/>
            <path d="M1618.49,340.372C1614.75,340.372 1611.7,339.481 1609.32,337.7C1606.7,335.731 1605.38,332.958 1605.38,329.379C1605.38,325.426 1606.42,322.083 1608.5,319.348C1610.81,316.317 1613.93,314.801 1617.85,314.801C1620.57,314.801 1622.83,315.239 1624.63,316.114C1626.99,317.27 1628.16,319.067 1628.16,321.504C1628.16,323.223 1627.2,324.747 1625.28,326.075C1624.41,326.684 1622.65,327.575 1620.01,328.747L1612.11,332.239C1612.86,333.051 1613.77,333.661 1614.83,334.067C1615.89,334.473 1617.11,334.676 1618.49,334.676C1620.58,334.676 1622.35,334.247 1623.81,333.387C1625.1,332.622 1626.14,332.239 1626.92,332.239C1628.55,332.239 1629.36,333.028 1629.36,334.606C1629.36,336.387 1628.06,337.84 1625.45,338.965C1623.26,339.903 1620.94,340.372 1618.49,340.372ZM1617.85,320.473C1616.4,320.473 1615.16,320.958 1614.13,321.926C1613.09,322.895 1612.27,324.348 1611.64,326.286C1613.41,325.52 1615.16,324.762 1616.91,324.012C1619.02,323.059 1620.7,322.176 1621.95,321.364C1620.91,320.77 1619.54,320.473 1617.85,320.473Z" style="fill-opacity:0.75;fill-rule:nonzero;"/>
            <path d="M1661.49,311.192C1660.27,311.192 1658.38,311.106 1655.8,310.934C1653.31,310.762 1651.41,310.684 1650.1,310.7C1650.16,312.481 1650.38,315.653 1650.74,320.215C1651.06,324.247 1651.23,327.434 1651.23,329.778C1651.23,330.309 1651.28,331.098 1651.39,332.145C1651.5,333.192 1651.56,333.981 1651.56,334.512C1651.56,335.684 1651.31,336.739 1650.81,337.676C1650.16,338.879 1649.25,339.481 1648.06,339.481C1647.2,339.481 1646.45,339.208 1645.79,338.661C1645.06,338.051 1644.69,337.286 1644.69,336.364C1644.69,336.145 1644.73,335.813 1644.81,335.368C1644.88,334.922 1644.92,334.583 1644.92,334.348C1644.92,333.629 1644.87,332.543 1644.77,331.09C1644.67,329.637 1644.62,328.543 1644.62,327.809C1644.62,325.715 1644.45,322.879 1644.13,319.301C1643.75,315.192 1643.53,312.356 1643.47,310.793L1642.25,310.793C1638.77,310.793 1636,310.543 1633.95,310.043C1632.22,309.622 1631.35,308.598 1631.35,306.973C1631.35,306.176 1631.63,305.458 1632.2,304.817C1632.85,304.051 1633.71,303.708 1634.77,303.786C1635.32,303.817 1636.56,303.95 1638.5,304.184C1640.05,304.356 1641.3,304.442 1642.25,304.442C1643.2,304.442 1644.63,304.426 1646.53,304.395C1648.43,304.364 1649.85,304.348 1650.81,304.348C1651.99,304.348 1653.77,304.43 1656.15,304.594C1658.52,304.758 1660.31,304.84 1661.49,304.84C1662.43,304.84 1663.22,305.145 1663.85,305.754C1664.48,306.364 1664.8,307.114 1664.8,308.004C1664.8,308.895 1664.48,309.649 1663.85,310.266C1663.22,310.883 1662.43,311.192 1661.49,311.192Z" style="fill-opacity:0.75;fill-rule:nonzero;"/>
            <path d="M1672.25,311.122C1671.25,311.122 1670.38,310.786 1669.65,310.114C1668.91,309.442 1668.55,308.622 1668.55,307.653C1668.55,306.684 1668.91,305.864 1669.65,305.192C1670.38,304.52 1671.25,304.184 1672.25,304.184C1673.25,304.184 1674.11,304.52 1674.84,305.192C1675.57,305.864 1675.93,306.684 1675.93,307.653C1675.93,308.622 1675.57,309.442 1674.84,310.114C1674.11,310.786 1673.25,311.122 1672.25,311.122ZM1674.24,328.301C1674.24,329.192 1674.27,330.622 1674.33,332.59C1674.38,334.559 1674.41,335.989 1674.41,336.879C1674.41,337.786 1674.1,338.532 1673.49,339.118C1672.88,339.704 1672.11,339.997 1671.17,339.997C1670.24,339.997 1669.46,339.704 1668.85,339.118C1668.24,338.532 1667.94,337.786 1667.94,336.879C1667.94,335.989 1667.91,334.559 1667.86,332.59C1667.8,330.622 1667.77,329.192 1667.77,328.301C1667.77,326.911 1667.85,325.168 1668.01,323.075C1668.16,320.981 1668.24,319.239 1668.24,317.848C1668.24,316.942 1668.55,316.196 1669.16,315.61C1669.77,315.024 1670.54,314.731 1671.48,314.731C1672.41,314.731 1673.19,315.024 1673.8,315.61C1674.41,316.196 1674.71,316.942 1674.71,317.848C1674.71,319.239 1674.63,320.981 1674.48,323.075C1674.32,325.168 1674.24,326.911 1674.24,328.301Z" style="fill-opacity:0.75;fill-rule:nonzero;"/>
            <path d="M1686.43,318.551C1688.79,315.817 1691.02,314.45 1693.13,314.45C1695.54,314.45 1697.31,315.364 1698.43,317.192C1699.38,316.348 1700.44,315.715 1701.59,315.293C1702.75,314.872 1704,314.661 1705.34,314.661C1708.41,314.661 1710.49,316.184 1711.58,319.231C1711.8,319.856 1712.13,321.973 1712.59,325.583C1713.02,328.114 1713.59,332.333 1714.27,338.239C1714.34,339.129 1714.03,339.864 1713.36,340.442C1712.69,341.02 1711.9,341.309 1710.99,341.309C1709.2,341.309 1708.14,340.418 1707.83,338.637C1707.55,337.028 1707.26,334.754 1706.96,331.817C1706.65,328.598 1706.39,326.317 1706.19,324.973C1705.77,322.176 1705.23,320.778 1704.57,320.778C1704.21,320.778 1703.39,321.137 1702.11,321.856C1700.83,322.575 1699.89,323.192 1699.3,323.708C1699.3,325.489 1699.51,328.051 1699.93,331.395C1700.37,334.817 1700.59,337.379 1700.59,339.083C1700.59,339.973 1700.28,340.715 1699.67,341.309C1699.06,341.903 1698.29,342.2 1697.35,342.2C1696.41,342.2 1695.64,341.903 1695.03,341.309C1694.42,340.715 1694.12,339.973 1694.12,339.083C1694.12,337.301 1693.93,334.68 1693.54,331.219C1693.16,327.758 1692.97,325.137 1692.97,323.356C1692.97,322.356 1692.88,321.559 1692.71,320.965C1690.9,322.012 1689.08,323.754 1687.25,326.192C1687.17,326.301 1687.04,326.465 1686.85,326.684C1686.79,329.84 1686.76,332.317 1686.76,334.114C1686.76,334.551 1686.74,335.141 1686.71,335.883C1686.68,336.626 1686.66,337.176 1686.66,337.536C1686.66,338.379 1686.32,339.043 1685.63,339.528C1685.01,339.981 1684.24,340.208 1683.31,340.208C1681.99,340.208 1681.09,339.629 1680.62,338.473C1680.29,337.692 1680.13,336.45 1680.13,334.747L1680.13,326.028C1680.13,325.247 1680.09,324.102 1680.03,322.594C1679.97,321.086 1679.94,319.942 1679.94,319.161C1679.94,317.77 1680.19,316.512 1680.69,315.387C1681.3,313.981 1682.16,313.278 1683.27,313.278C1684.14,313.278 1684.92,313.618 1685.61,314.297C1686.3,314.977 1686.64,315.723 1686.64,316.536C1686.64,316.208 1686.57,316.879 1686.43,318.551Z" style="fill-opacity:0.75;fill-rule:nonzero;"/>
            <path d="M1729.46,340.372C1725.73,340.372 1722.67,339.481 1720.3,337.7C1717.67,335.731 1716.36,332.958 1716.36,329.379C1716.36,325.426 1717.4,322.083 1719.48,319.348C1721.79,316.317 1724.91,314.801 1728.83,314.801C1731.55,314.801 1733.81,315.239 1735.6,316.114C1737.96,317.27 1739.14,319.067 1739.14,321.504C1739.14,323.223 1738.18,324.747 1736.26,326.075C1735.38,326.684 1733.63,327.575 1730.99,328.747L1723.09,332.239C1723.84,333.051 1724.74,333.661 1725.81,334.067C1726.87,334.473 1728.09,334.676 1729.46,334.676C1731.56,334.676 1733.33,334.247 1734.78,333.387C1736.08,332.622 1737.12,332.239 1737.9,332.239C1739.52,332.239 1740.34,333.028 1740.34,334.606C1740.34,336.387 1739.03,337.84 1736.42,338.965C1734.24,339.903 1731.91,340.372 1729.46,340.372ZM1728.83,320.473C1727.38,320.473 1726.13,320.958 1725.1,321.926C1724.07,322.895 1723.24,324.348 1722.62,326.286C1724.38,325.52 1726.14,324.762 1727.89,324.012C1730,323.059 1731.68,322.176 1732.93,321.364C1731.88,320.77 1730.52,320.473 1728.83,320.473Z" style="fill-opacity:0.75;fill-rule:nonzero;"/>
            <path d="M1747.77,332.333C1746.89,332.333 1746.17,332.059 1745.6,331.512C1745.03,330.965 1744.74,330.278 1744.74,329.45C1744.74,328.84 1744.72,327.93 1744.68,326.719C1744.64,325.508 1744.63,324.598 1744.63,323.989C1744.63,321.833 1744.64,318.598 1744.68,314.286C1744.72,309.973 1744.74,306.739 1744.74,304.583C1744.74,303.754 1745.03,303.063 1745.61,302.508C1746.19,301.954 1746.91,301.676 1747.77,301.676C1748.63,301.676 1749.34,301.954 1749.92,302.508C1750.5,303.063 1750.79,303.754 1750.79,304.583L1750.79,329.45C1750.79,330.278 1750.51,330.965 1749.93,331.512C1749.36,332.059 1748.64,332.333 1747.77,332.333ZM1747.7,340.84C1746.76,340.84 1745.88,340.34 1745.07,339.34C1744.34,338.418 1743.97,337.559 1743.97,336.762C1743.97,335.95 1744.29,335.27 1744.93,334.723C1745.57,334.176 1746.3,333.903 1747.11,333.903C1748.05,333.903 1748.91,334.403 1749.71,335.403C1750.45,336.325 1750.81,337.176 1750.81,337.958C1750.81,338.754 1750.5,339.434 1749.86,339.997C1749.23,340.559 1748.51,340.84 1747.7,340.84Z" style="fill-opacity:0.75;fill-rule:nonzero;"/>
        </g>
    </g>
</svg>
