<?xml version="1.0" encoding="UTF-8" standalone="no"?>
<!DOCTYPE svg PUBLIC "-//W3C//DTD SVG 1.1//EN" "http://www.w3.org/Graphics/SVG/1.1/DTD/svg11.dtd">
<svg width="100%" height="100%" viewBox="0 0 1068 841" version="1.1" xmlns="http://www.w3.org/2000/svg" xmlns:xlink="http://www.w3.org/1999/xlink" xml:space="preserve" xmlns:serif="http://www.serif.com/" style="fill-rule:evenodd;clip-rule:evenodd;stroke-linecap:round;stroke-linejoin:round;stroke-miterlimit:1.5;">
    <g transform="matrix(1,0,0,1,-797.025,-403.58)">
        <path d="M1531.14,1237.08C1287.78,1238.38 1044.15,1240.8 802.66,1234.93L829.573,1075.19L839.123,1015.29L843.464,983.169L848.673,952.784L846.068,921.53L839.991,874.649L841.727,835.582L841.943,813.871L853.5,795.647L878.392,775.645L900.172,766.755L917.507,768.533L929.953,778.756L934.843,780.534L941.066,747.641L946.844,712.082L969.069,670.299L990.849,635.739L966.846,597.068L952.623,554.73L953.067,520.503L959.734,482.277L991.294,443.05L1038.86,416.38L1092.19,410.157L1145.98,426.159L1193.54,466.164L1220.21,511.058L1245.99,501.279L1276.66,492.833L1366.67,492.833L1449.79,515.947L1481.02,527.06L1502.35,508.391L1535.25,487.055L1575.7,474.609L1617.03,476.832L1648.59,489.722L1669.04,509.28L1683.26,533.727L1687.71,559.508L1688.6,585.289L1679.71,626.183L1649.93,679.411L1678.82,850.765L1689.04,845.431L1703.27,838.319L1723.27,848.987L1733.94,856.543L1755.72,844.097L1778.39,847.653L1789.05,859.654L1798.83,866.322L1821.95,851.654L1834.84,859.654L1843.73,874.323L1856.62,928.107L1848.17,975.668L1835.28,1014.34L1809.95,1058.35L1816.61,1105.91L1824.17,1144.69L1832.62,1177.58L1845.95,1214.92L1852.62,1233.14L1854.05,1237.08L1531.14,1237.08Z" style="fill:rgb(102,60,26);"/>
        <path d="M1114.18,1237.08C1135.9,1160.68 1190.61,1090.5 1258.6,1101.38L1271.62,1145.66L1285.51,1175.17L1310.68,1208.16L1348.88,1229L1384.48,1220.32L1415.73,1185.59L1435.7,1135.24L1452.19,1076.2L1456.54,993.728L1479.98,987.651C1493.58,983.665 1506.33,972.77 1519.93,958.163L1524.62,915.864L1512.97,896.495L1477.7,874.403L1466.95,870.332L1241.84,861.881L1224.47,847.122C1240.61,844.29 1257.53,838.668 1276.04,827.537L1319.49,784.997L1343.41,716.899L1340.81,654.391L1316.5,603.17L1280.9,574.521C1351.87,521.714 1439.13,515.625 1544.82,562.367C1585.32,584.087 1615.74,615.887 1637.72,656.128C1659.1,712.1 1672.84,772.847 1675.7,840.394L1639.24,840.394L1610.59,861.23L1596.7,891.616C1562.54,903.767 1554.74,930.974 1585.41,980.168C1616.16,1021.28 1627.3,1061.17 1621.01,1099.97L1592.36,1039.2C1582.59,1071.1 1564.5,1095.86 1538.53,1113.86L1538.6,1237.08L1114.18,1237.08Z" style="fill:rgb(82,46,19);"/>
        <path d="M1240.22,862.065C1218.28,862.843 1203.66,871.494 1191.6,882.9C1178.68,896.328 1175.07,909.755 1181.88,923.183L1195.77,953.047L1221.46,969.716C1237.9,974.188 1254.34,975.042 1270.78,970.411L1316.9,966.343L1347.17,962.076L1382.59,969.716L1408.29,980.134L1436.07,989.857L1458.99,992.635L1493.72,982.912L1515.94,959.298L1522.89,927.35L1520.81,909.292L1501.24,889.125L1489.01,878.884L1463.12,866.367C1398.88,856.21 1320.86,855.437 1240.22,862.065Z" style="fill:rgb(216,166,112);"/>
        <g transform="matrix(2.17955,0,0,1.69678,-1924,-352.496)">
            <ellipse cx="1514.52" cy="740.922" rx="21.669" ry="20.836" style="fill:rgb(10,6,3);stroke:rgb(10,6,3);stroke-width:4.28px;"/>
        </g>
        <path d="M924.785,1237.08C923.419,1113 929.886,997.013 984.03,965.487C988.943,959.811 991.092,952.291 988.892,941.873C978.048,929.721 974.932,916.548 981.363,906.258C992.36,888.663 1015.6,866.828 1054.87,836.305C1065.02,824.727 1076.59,825.398 1090.29,844.64C1099.4,856.442 1095.49,877.517 1090.29,899.507C1088.66,923.689 1083.24,945.034 1067.37,958.542L1024.31,1007.16L1004.87,1037.72L1006.25,1146.76L1006.95,1222.46L1003.84,1237.08L924.785,1237.08Z" style="fill:rgb(82,46,19);"/>
        <path d="M803.025,1234.95C806.836,1141.23 835.643,1037.48 848.236,945.306C837.524,877.311 832.793,815.43 851.75,797.873C888.012,758.484 920.265,752.497 943.191,796.091C960.837,776.432 977.342,777.33 992.025,811.013C1016.52,797.57 1036.35,802.815 1049,836.786C1065.83,820.848 1081.25,824.803 1095.12,850.351C1096.04,890.161 1088.42,921.424 1077.48,949.376C1036.88,995.2 1019.91,998.872 1011.02,1033.48C998.807,1080.96 1002.42,1152.13 1004.82,1237.7" style="fill:none;stroke:black;stroke-width:12px;stroke-linecap:butt;"/>
        <path d="M936.408,781.17C937.831,724.757 948.419,680.188 1003.19,629.703" style="fill:none;stroke:black;stroke-width:12px;"/>
        <g transform="matrix(1.12959,0,0,1.25116,-154.972,-180.285)">
            <ellipse cx="1195.87" cy="704.529" rx="128.626" ry="119.459" style="fill:white;stroke:black;stroke-width:10.07px;"/>
        </g>
        <path d="M1643.56,1078.5L1657.34,1202.07C1591.9,1176.99 1588.09,1135.59 1643.56,1078.5Z" style="fill:rgb(82,46,19);"/>
        <path d="M1852.02,1237.08L1763.68,1237.08C1739.67,1145.97 1745.26,1058.12 1798.69,985.825C1797.33,949.306 1764.43,922.758 1808.02,859.143C1825.85,834.78 1857.11,876.048 1857.05,920.046C1857.03,936.998 1852.21,975.537 1838.97,1005.98C1833.4,1018.79 1823.12,1030.57 1810.39,1053.6C1800.03,1072.36 1816.54,1112.12 1820.76,1137.56C1822.93,1150.62 1853.02,1215.13 1853.51,1229.45C1853.63,1232.9 1853.85,1235.25 1852.02,1237.08Z" style="fill:rgb(82,46,19);"/>
        <path d="M1286.06,974.037L1352.73,962.23L1425.65,982.372C1405.62,1246.99 1292.67,1234.79 1286.06,974.037Z" style="fill:rgb(235,166,153);"/>
        <g transform="matrix(0.991361,0,0,1.06744,321.479,-20.0115)">
            <ellipse cx="1195.87" cy="704.529" rx="128.626" ry="119.459" style="fill:white;stroke:black;stroke-width:11.65px;"/>
        </g>
        <g transform="matrix(0.332826,0.942988,-0.942988,0.332826,1740.57,-625.865)">
            <path d="M1047.92,584.632L1038.67,573.671L1033.9,534.445L1037.48,502.381L1045,488.956L1062.43,475.761L1085.77,472.982L1103.22,481.795L1117.78,491.868L1133.6,506.105L1142.33,516.975L1150.54,524.903L1143,524.655L1112.99,536.879L1082.43,556.326L1053.54,575.217L1047.92,584.632Z" style="fill:rgb(216,166,112);"/>
        </g>
        <path d="M990.181,639.317C842.471,430.383 1136.76,314.218 1218.56,509.87C1302.24,478.91 1389.27,482.776 1480.36,528.861C1597.5,403.02 1765.58,507.729 1651.28,680.789L1676.49,846.545" style="fill:none;stroke:black;stroke-width:12px;"/>
        <path d="M1480.36,528.861C1581.42,569.532 1629.89,622.099 1651.28,680.789" style="fill:none;stroke:black;stroke-width:12px;"/>
        <path d="M1537.59,1231.19L1538.89,1117.93C1525.44,1108.97 1520.1,1086.51 1524.44,1047.92" style="fill:none;stroke:black;stroke-width:12px;stroke-linecap:square;"/>
        <path d="M1533.89,1113.49C1570.74,1089.04 1586.49,1061.07 1587.78,1030.7C1603.73,1056.92 1614.06,1081.89 1616.67,1105.15L1640.57,1077.37" style="fill:none;stroke:black;stroke-width:12px;"/>
        <path d="M1656.39,1231.16C1656.41,1173.46 1651.47,1113.57 1635.95,1049.73C1624.1,1000.97 1597.75,954.988 1595,899.016C1607.57,848.327 1646.77,817.501 1681.68,852.9C1693.59,831.3 1710.52,832.643 1732.8,858.456C1759.34,835.038 1779.97,840.387 1796.14,867.346C1820.22,844.424 1833.37,849.33 1841.14,867.902C1859.49,909.835 1859.66,944.501 1848.37,974.581C1840.12,1004.24 1827.17,1032.34 1810.03,1059.04C1814.22,1127.62 1850.52,1204.07 1850.82,1231.21" style="fill:none;stroke:black;stroke-width:12px;stroke-linecap:square;"/>
        <path d="M1244.46,862.762C1162.97,875.008 1150.21,951.491 1245.24,974.442C1298.56,970.599 1336.01,968.284 1355.25,959.996C1381.26,975.73 1417.41,985.933 1459.71,992.777C1524.5,987.837 1563.75,901.411 1466.93,869.43" style="fill:none;stroke:black;stroke-width:12px;"/>
        <path d="M1284.13,974.998C1311.33,1305.33 1422.26,1175.5 1426.93,986.666" style="fill:none;stroke:black;stroke-width:12px;"/>
        <path d="M1243.57,973.72C1268.71,1348.3 1451.98,1268.67 1457.49,995" style="fill:none;stroke:black;stroke-width:12px;"/>
        <path d="M1032.98,590.218L1021.87,567.438L1018.54,533.545L1028.54,504.653L1039.09,486.873L1062.43,475.761L1085.77,472.982L1104.66,476.872L1119.1,482.984L1136.33,494.096L1155.77,509.653L1162.44,518.543L1143,524.655L1112.99,536.879L1082.43,556.326L1053.54,575.217L1032.98,590.218Z" style="fill:rgb(216,166,112);"/>
        <path d="M1033.17,591.176C1066.17,560.125 1108.57,535.788 1162.31,519.553C1084.99,422.05 977.896,492.45 1033.17,591.176Z" style="fill:none;stroke:black;stroke-width:12px;"/>
        <path d="M1537.85,553.513C1617.37,483.085 1695.95,531.525 1627.86,632.414" style="fill:none;stroke:black;stroke-width:12px;"/>
        <path d="M1004.61,1100.41C1024.94,1073.04 1036.63,1062.19 1045.11,1062.97C1055.12,1075.27 1060.57,1087.56 1064.65,1099.86C1086.69,1089.11 1096.3,1070.08 1096.12,1044.52" style="fill:none;stroke:black;stroke-width:12px;"/>
        <path d="M821.562,1008.15L841.095,990.258" style="fill:none;stroke:black;stroke-width:8.37px;"/>
        <path d="M821.562,1008.15L838.873,1003.04" style="fill:none;stroke:black;stroke-width:12px;"/>
        <g transform="matrix(1.22803,0,0,1.22803,-655.451,-209.206)">
            <ellipse cx="1514.52" cy="740.922" rx="21.669" ry="20.836" style="fill:rgb(10,6,3);stroke:rgb(10,6,3);stroke-width:6.81px;"/>
        </g>
        <ellipse cx="1514.52" cy="740.922" rx="21.669" ry="20.836" style="fill:rgb(10,6,3);stroke:rgb(10,6,3);stroke-width:8.37px;"/>
    </g>
</svg>
