<?xml version="1.0" encoding="UTF-8" standalone="no"?>
<!DOCTYPE svg PUBLIC "-//W3C//DTD SVG 1.1//EN" "http://www.w3.org/Graphics/SVG/1.1/DTD/svg11.dtd">
<svg width="100%" height="100%" viewBox="0 0 1242 1067" version="1.1" xmlns="http://www.w3.org/2000/svg" xmlns:xlink="http://www.w3.org/1999/xlink" xml:space="preserve" xmlns:serif="http://www.serif.com/" style="fill-rule:evenodd;clip-rule:evenodd;stroke-linecap:round;stroke-linejoin:round;stroke-miterlimit:1.5;">
    <g transform="matrix(1,0,0,1,0,0.00054602)">
        <g transform="matrix(1,0,0,1,-1272.34,-206.621)">
            <g transform="matrix(1,0,0,0.942563,0,163.058)">
                <rect x="1288.77" y="71.802" width="1198.95" height="439.167" style="fill:white;"/>
            </g>
        </g>
        <g transform="matrix(1,0,0,1,-1272.34,-206.621)">
            <g transform="matrix(1.28292,0,0,0.890903,-456.218,274.371)">
                <path d="M1652.67,8.73L1652.67,236.402L1600.92,236.402L1600.85,82.699L1580.25,236.402L1543.55,236.402L1521.82,86.215L1521.75,236.402L1470,236.402L1470,8.73L1546.6,8.73C1548.88,22.418 1551.22,38.552 1553.63,57.132L1562.04,115.043L1575.64,8.73L1652.67,8.73Z" style="fill-rule:nonzero;"/>
                <g transform="matrix(1,0,0,1,-34.5554,0)">
                    <rect x="1720.45" y="189.996" width="42.891" height="46.406"/>
                </g>
                <g transform="matrix(1,0,0,1,-77.7496,0)">
                    <path d="M2054.01,8.73L2027.65,236.402L1953.74,236.402C1946.97,201.423 1941,161.626 1935.82,117.012C1933.46,136.141 1927.95,175.938 1919.31,236.402L1845.81,236.402L1819.31,8.73L1876.83,8.73L1883.08,88.168L1889.13,164.965C1891.32,125.222 1896.77,73.144 1905.5,8.73L1966.98,8.73C1967.8,15.388 1969.95,40.419 1973.44,83.824L1979.98,170.449C1983.34,115.337 1988.85,61.431 1996.5,8.73L2054.01,8.73Z" style="fill-rule:nonzero;"/>
                </g>
                <g transform="matrix(1,0,0,1,-129.583,0)">
                    <rect x="2109.7" y="189.996" width="42.891" height="46.406"/>
                </g>
                <g transform="matrix(1,0,0,1,-146.86,0)">
                    <path d="M2322.71,8.73L2356.57,236.402L2296.07,236.402L2292.89,195.48L2271.71,195.48L2268.15,236.402L2206.94,236.402L2237.14,8.73L2322.71,8.73ZM2291.34,155.121C2288.34,129.334 2285.34,97.459 2282.32,59.496C2276.29,103.091 2272.5,134.966 2270.96,155.121L2291.34,155.121Z" style="fill-rule:nonzero;"/>
                </g>
            </g>
        </g>
        <g transform="matrix(1,0,0,1,-1272.34,-206.621)">
            <g transform="matrix(1,0,0,1.00942,8.47817,586.536)">
                <rect x="1288.77" y="71.802" width="1198.95" height="439.167" style="fill:rgb(211,211,211);"/>
            </g>
        </g>
        <g transform="matrix(1,0,0,1,-1272.34,-206.621)">
            <g transform="matrix(1.15611,0,0,1.24015,-241.045,77.4459)">
                <g transform="matrix(1,0,0,1,564.192,6.36305)">
                    <path d="M1256.4,540.164C1271.95,537.29 1287.51,538.068 1303.06,541.871C1305.56,538.979 1306.03,535.997 1307.52,533.725C1309.71,530.39 1312.95,529.258 1317.02,528.153C1336.67,522.813 1357.11,544.228 1340.89,562.638C1347.73,581.719 1349.73,595.27 1352.77,609.719C1353.98,615.505 1351.72,626.244 1352.88,631.296C1356.89,648.724 1364.4,655.521 1371.33,655.093C1366.95,659.455 1359.14,659.588 1346.87,654.24L1350,670.171C1384.52,705.497 1386.28,749.892 1343.28,754.945C1352.38,804.952 1308.66,846.561 1336.13,867.749C1343.67,873.564 1360.18,880.737 1352.27,890.428C1338.18,901.866 1327.13,898.429 1315.57,893.551C1306.07,889.544 1285.79,880.718 1293.42,870.996C1302.45,859.485 1289.95,837.265 1287.36,812.766C1260.68,804.295 1248.14,784.043 1243.32,757.363L1256.69,667.468L1229.95,566.194L1256.4,540.164Z" style="fill:rgb(136,83,52);"/>
                </g>
                <g transform="matrix(1,0,0,1,564.192,6.36305)">
                    <path d="M1316.44,796.864C1317.35,829.803 1305.41,854.149 1320.65,866.833C1337.3,870.938 1347.54,878.886 1352.06,890.274C1341.71,902.82 1328.81,899.795 1315.42,893.915C1301.18,889.544 1293.31,882.28 1292.43,871.84L1296.75,865.695C1295.37,849.525 1291.91,831.873 1286.29,812.668L1286.74,803.11C1297.54,802.225 1307.47,800.176 1316.44,796.864Z" style="fill:rgb(100,59,37);"/>
                </g>
                <g transform="matrix(1,0,0,1,564.192,6.36305)">
                    <path d="M1263.83,538.538C1242.48,560.894 1238.48,594.16 1264.94,618.07L1266,667.498C1257.02,690.778 1254.09,718.221 1253.13,737.939C1250.54,791.032 1266.95,814.631 1316.85,796.491C1303.69,804.762 1290.77,813.474 1272.05,811.249C1264.54,832.31 1257.7,861.328 1265.3,874.314C1266.96,877.151 1263,879.17 1263.51,882.724C1228.64,907.244 1200.66,901.575 1204.35,882.275C1205.61,875.693 1216.61,869.525 1226.53,862.81L1232.08,845.683C1225.62,818.558 1208.72,787.041 1214.8,754.353C1183.35,750.241 1163.15,715.3 1205.91,673.098C1204.44,666.59 1205.97,660.509 1208.75,654.607C1198.73,660.25 1192.33,659.847 1187.77,656.385C1199.44,651.848 1206.38,638.88 1205.6,617.976C1205.26,609.111 1203.63,599.55 1205.03,588.384C1205.74,582.647 1212.82,573.15 1213.02,566.863C1209.35,561.384 1204.36,556.628 1205.85,549.371C1210.11,528.58 1231.99,517.398 1252.27,540.776L1263.83,538.538Z" style="fill:rgb(100,59,37);"/>
                </g>
                <g transform="matrix(1,0,0,1,564.192,6.36305)">
                    <path d="M1315.82,544.547C1327.29,537.092 1336.59,545.78 1331.29,557.065L1315.82,544.547Z" style="fill:rgb(221,179,121);"/>
                </g>
                <g transform="matrix(1,0,0,1,564.192,6.36305)">
                    <path d="M1220.18,557.125C1214.14,542.754 1226.36,538.039 1237.24,544.153L1220.18,557.125Z" style="fill:rgb(221,179,121);"/>
                </g>
                <g transform="matrix(1,0,0,1,564.192,6.36305)">
                    <path d="M1252.09,620.219C1264.17,613.869 1280.75,613.217 1301.93,618.398C1316.95,628.708 1310.53,639.011 1296.7,639.944C1291.52,640.293 1287.26,637.763 1279.86,635.695C1268.52,638.594 1259.74,641.491 1253.82,640.627C1244.8,639.311 1242.39,631.98 1247.6,623.921C1248.74,622.169 1250.23,622.3 1252.09,620.219Z" style="fill:rgb(221,179,121);"/>
                </g>
                <g transform="matrix(1,0,0,1,564.192,6.36305)">
                    <path d="M1219.17,713.738L1223.72,753.822C1253.93,747.579 1253.71,717.687 1219.17,713.738Z" style="fill:rgb(100,59,37);"/>
                </g>
                <g transform="matrix(1,0,0,1,564.192,6.36305)">
                    <path d="M1338.9,712.782L1343.65,755.29C1309.66,749.884 1301.44,713.789 1338.9,712.782Z" style="fill:rgb(136,83,52);"/>
                </g>
                <g transform="matrix(1,0,0,1,564.192,6.36305)">
                    <path d="M1258.05,641.128C1259.8,658.376 1265.96,669.47 1278.59,671.57C1292.44,668.479 1298.53,657.619 1298.4,640.545C1286.84,634.118 1273.49,633.961 1258.05,641.128Z" style="fill:rgb(100,59,37);"/>
                    <path d="M1266.2,639.62C1268.82,666.42 1287.34,671.881 1290.33,639.393C1283.52,635.47 1275.44,635.654 1266.2,639.62Z" style="fill:rgb(247,186,193);"/>
                    <path d="M1263.71,806.87C1274.07,813.129 1285.23,812.749 1297.05,806.87" style="fill:none;stroke:black;stroke-width:2.5px;"/>
                    <path d="M1285.49,811.759C1292.73,830.098 1296.25,848.902 1295.72,868.211C1288.79,874.642 1296.09,883.267 1307.12,889.555C1317.34,895.38 1330.93,899.093 1335.28,899.77C1344.29,901.174 1359.57,886.083 1349.95,876.656C1298.84,851.407 1353.12,816.724 1343.28,754.864C1391.88,746.65 1380.02,701.63 1349.5,670.409L1346.39,653.962C1359.66,660.255 1367.28,659.766 1370.84,654.407C1340.16,646.016 1361.41,590.11 1339.28,561.729C1365.74,541.793 1311.01,506.329 1304.16,542.171C1285.55,537.327 1267.93,536.942 1251.27,540.838C1232.85,509.4 1195.09,549.735 1213.49,566.174C1192.83,602.427 1219.68,649.665 1185.93,656.407C1193.13,660.173 1200.46,661.064 1208.15,654.629C1206.82,661 1205.48,667.372 1204.15,673.743C1180.07,697.937 1164.7,741.153 1213.93,755.975C1213.25,829.998 1242.11,828.915 1226.82,862.655C1184.61,884.451 1203.08,906.097 1241.93,895.992C1258.88,888.927 1270.77,880.528 1261.93,866.655C1261.61,850.381 1264.71,832.181 1272.16,811.537L1285.49,811.759Z" style="fill:none;stroke:black;stroke-width:2.5px;"/>
                    <path d="M1212.66,754.724C1257.57,754.976 1253.24,710.699 1216.53,713.759" style="fill:none;stroke:black;stroke-width:2.5px;"/>
                    <path d="M1341.48,712.849C1307.22,709.305 1303.52,751.913 1343.98,754.724" style="fill:none;stroke:black;stroke-width:2.5px;"/>
                    <path d="M1253.86,618.117C1233.39,633.665 1248.29,642.993 1265.1,639.806C1268.97,639.071 1273.53,637.483 1277.53,636.666C1284.16,635.312 1285.4,637.833 1292.3,639.757C1305.27,643.376 1316.13,634.325 1303.47,617.889" style="fill:none;stroke:black;stroke-width:2.5px;"/>
                    <path d="M1266.38,640.136C1268.7,666.61 1284.9,671.36 1290.73,640.363" style="fill:none;stroke:black;stroke-width:2.5px;"/>
                    <path d="M1298.46,641.274C1295.01,683.833 1261.41,678.52 1258.18,641.046" style="fill:none;stroke:black;stroke-width:2.5px;"/>
                    <path d="M1220.18,557.125L1237.24,544.153C1228.88,534.174 1210.33,545.551 1220.18,557.125Z" style="fill:none;stroke:black;stroke-width:2.5px;"/>
                    <path d="M1314.62,544.38C1323.44,535.22 1341,546.94 1330.55,557.352L1314.62,544.38Z" style="fill:none;stroke:black;stroke-width:2.5px;"/>
                    <g transform="matrix(0.9,0,0,0.7,156.155,208.074)">
                        <ellipse cx="1246.35" cy="597.236" rx="10.241" ry="9.103" style="stroke:black;stroke-width:3.13px;"/>
                    </g>
                </g>
                <g transform="matrix(1,0,0,1,564.192,6.36305)">
                    <path d="M1306.52,663.929C1309.05,665.795 1309.63,669.242 1307.98,674.489C1312.81,672.659 1315.89,670.247 1316.54,667.024C1319.47,669.154 1321.02,672.009 1320.18,676.127C1324.83,673.042 1326.01,667.846 1325.09,661.38C1327.26,666.797 1330.37,671.33 1335.92,673.563C1337.8,671.439 1339.32,667.644 1338.02,663.929C1343.07,667.274 1346.21,671.471 1345.49,677.402C1349.31,675.188 1349.58,672.312 1349.03,667.91" style="fill:none;stroke:black;stroke-width:2.5px;"/>
                </g>
                <g transform="matrix(1,0,0,1,564.192,6.36305)">
                    <path d="M1208.93,655.554C1204.89,661.881 1204.48,668.89 1208.21,676.674C1210.62,670.472 1213.68,666.064 1218.04,665.203L1218.77,672.304C1223.55,671.648 1227.52,669.198 1229.87,663.201C1230.5,671.604 1232.03,677.44 1236.06,676.127C1233.83,672.258 1234.11,668.891 1239.16,666.478C1241.34,671.724 1245.48,676.162 1248.63,674.125C1246.14,670.787 1246.02,667.449 1249.35,664.111" style="fill:none;stroke:black;stroke-width:2.5px;"/>
                </g>
                <g transform="matrix(0.868462,0,0,0.868462,1025.1,84.0062)">
                    <path d="M895.156,577.152L926.035,603.37" style="fill:none;stroke:black;stroke-width:2.88px;"/>
                </g>
                <g transform="matrix(0.868462,0,0,0.868462,1025.1,84.0062)">
                    <path d="M900.4,581.376C881.262,606.953 910.379,620.096 920.354,598.272" style="stroke:black;stroke-width:2.88px;"/>
                </g>
                <g transform="matrix(-0.868462,0,0,0.868462,2661.28,84.0062)">
                    <path d="M895.156,577.152L926.035,603.37" style="fill:none;stroke:black;stroke-width:2.88px;"/>
                </g>
                <g transform="matrix(-0.868462,0,0,0.868462,2661.28,84.0062)">
                    <path d="M900.4,581.376C881.262,606.953 910.379,620.096 920.354,598.272" style="stroke:black;stroke-width:2.88px;"/>
                </g>
            </g>
        </g>
        <g transform="matrix(1,0,0,1,-1272.34,-206.621)">
            <g transform="matrix(0.195076,0,0,1.04323,1296.12,569.261)">
                <rect x="1288.77" y="71.802" width="1198.95" height="439.167" style="fill:rgb(211,211,211);"/>
            </g>
        </g>
        <g transform="matrix(1,0,0,1,-1272.34,-206.621)">
            <g transform="matrix(0.645459,3.58302e-17,0,0.645459,438.951,255.443)">
                <path d="M1482.38,1088.73C1399.02,1081.14 1487.66,862.49 1504.81,814.538C1511.01,797.192 1539.45,796.744 1544.69,815.25C1561.36,874.102 1664.95,1094.63 1571.4,1087.31C1572.78,1106.55 1579.86,1120.77 1597.39,1125.77C1646.05,1142.2 1654.24,1161.32 1638.7,1176.69C1612.28,1202.83 1455.61,1215.96 1425.75,1188.09C1405.3,1169 1416.57,1143.73 1474.89,1120.07C1481.6,1112.9 1484.21,1102.55 1482.38,1088.73Z"/>
                <path d="M1480.04,1091.09C1455.23,1087.72 1445.26,1065.99 1444.62,1035.28C1443.16,965.082 1490.31,847.366 1502.36,813.662C1505.85,803.91 1515.52,798.81 1525.12,798.848C1534.78,798.885 1544.23,804.08 1547.2,814.541C1558.9,855.864 1613.22,976.683 1612.64,1042.92C1612.48,1060.82 1608.27,1074.85 1598.71,1082.78C1592.79,1087.69 1584.79,1090.36 1574.26,1090.07C1576.03,1106.6 1582.61,1118.85 1598.16,1123.28L1598.22,1123.3C1618.15,1130.04 1631.42,1137.27 1639.19,1144.46C1645.54,1150.33 1648.36,1156.29 1648.42,1161.99C1648.49,1167.74 1645.77,1173.36 1640.53,1178.54C1635.57,1183.45 1626.25,1188 1614.05,1191.86C1586.57,1200.55 1544.16,1206.05 1506.01,1206.25C1484.13,1206.35 1463.65,1204.71 1448.16,1200.96C1437.41,1198.36 1429,1194.68 1423.98,1189.99C1417.23,1183.69 1413.74,1176.74 1413.72,1169.45C1413.71,1162.26 1417.12,1154.63 1424.65,1146.92C1434,1137.33 1449.9,1127.45 1473.37,1117.88C1479.01,1111.58 1481.23,1102.7 1480.04,1091.09ZM1484.96,1088.39C1486.92,1103.16 1483.96,1114.19 1476.79,1121.85L1476.4,1122.27L1475.87,1122.48C1452.98,1131.77 1437.45,1141.25 1428.37,1150.55C1422.02,1157.06 1418.91,1163.38 1418.93,1169.44C1418.94,1175.42 1422,1181.02 1427.53,1186.18C1432.05,1190.41 1439.7,1193.56 1449.38,1195.9C1464.54,1199.57 1484.58,1201.15 1505.99,1201.04C1543.59,1200.85 1585.39,1195.46 1612.49,1186.9C1623.68,1183.36 1632.32,1179.34 1636.87,1174.84C1640.95,1170.8 1643.28,1166.53 1643.22,1162.05C1643.17,1157.53 1640.69,1152.93 1635.66,1148.28C1628.26,1141.43 1615.58,1134.66 1596.63,1128.26C1578.01,1122.92 1570.28,1107.95 1568.81,1087.5L1571.61,1084.71C1582,1085.53 1589.8,1083.41 1595.39,1078.77C1603.96,1071.66 1607.29,1058.93 1607.43,1042.87C1608.02,977.044 1553.82,857.028 1542.19,815.959C1539.91,807.914 1532.53,804.08 1525.1,804.051C1517.62,804.022 1509.98,807.819 1507.26,815.414C1495.31,848.842 1448.38,965.549 1449.82,1035.17C1450.41,1063.53 1458.94,1083.99 1482.61,1086.14L1484.68,1086.33L1484.96,1088.39Z"/>
                <path d="M1472.06,1173.52C1469.68,1172.94 1468.22,1170.54 1468.8,1168.16C1469.38,1165.78 1471.78,1164.32 1474.16,1164.9C1494.83,1169.49 1514.29,1171.62 1532.39,1170.98C1552.64,1170.26 1571.14,1165.99 1587.67,1157.69C1591.09,1156.06 1595.18,1157.51 1596.81,1160.92C1598.43,1164.33 1596.98,1168.42 1593.57,1170.05C1575.12,1178.4 1554.74,1182.37 1532.57,1182.26C1513.65,1182.17 1493.43,1179.18 1472.06,1173.52Z" style="fill:rgb(71,71,71);"/>
                <path d="M1480.26,1072.55C1478.58,1072.37 1477.36,1070.86 1477.54,1069.17C1477.73,1067.49 1479.24,1066.28 1480.92,1066.46C1494.04,1067.4 1506.52,1067.67 1518.37,1067.23C1531.46,1066.75 1543.72,1065.37 1555.15,1063.09C1558.3,1062.58 1561.27,1064.72 1561.78,1067.86C1562.3,1071.01 1560.16,1073.98 1557.01,1074.49C1544.93,1076.02 1532.05,1076.55 1518.37,1076.07C1506.27,1075.65 1493.56,1074.47 1480.26,1072.55Z" style="fill:rgb(71,71,71);"/>
                <path d="M1581.39,1072.67C1578.02,1075.24 1573.2,1074.59 1570.63,1071.22C1568.06,1067.85 1568.71,1063.03 1572.08,1060.46C1582.13,1052.8 1585.64,1041.56 1584.79,1024.74C1583.29,995.168 1568.74,950.415 1545.94,880.94C1544.62,876.915 1546.82,872.574 1550.84,871.253C1554.87,869.932 1559.2,872.128 1560.53,876.153C1583.95,947.524 1598.58,993.583 1600.12,1023.96C1601.3,1047.11 1595.22,1062.12 1581.39,1072.67Z" style="fill:rgb(71,71,71);"/>
                <path d="M1478.98,1148.15C1477.63,1147.66 1476.94,1146.16 1477.43,1144.81C1477.93,1143.46 1479.43,1142.77 1480.78,1143.27C1510.29,1154.12 1539.81,1153.91 1569.32,1141.53C1570.64,1140.97 1572.17,1141.6 1572.73,1142.92C1573.28,1144.25 1572.66,1145.77 1571.33,1146.33C1540.55,1159.24 1509.76,1159.48 1478.98,1148.15Z"/>
                <path d="M1504.08,1093.45C1502.66,1093.25 1501.67,1091.93 1501.87,1090.51C1502.07,1089.08 1503.39,1088.09 1504.81,1088.29C1520,1090.44 1536.42,1090.95 1554.43,1089.35C1555.86,1089.22 1557.12,1090.28 1557.25,1091.71C1557.38,1093.14 1556.32,1094.4 1554.89,1094.53C1536.45,1096.17 1519.64,1095.65 1504.08,1093.45Z"/>
                <path d="M1558.13,1097C1557.69,1094.79 1559.14,1092.64 1561.35,1092.2C1563.56,1091.77 1565.71,1093.21 1566.14,1095.43L1569.7,1113.59C1570.14,1115.8 1568.69,1117.95 1566.48,1118.38C1564.27,1118.81 1562.12,1117.37 1561.69,1115.16L1558.13,1097Z" style="fill:rgb(71,71,71);"/>
                <path d="M1592.63,1142.64C1590.39,1142.37 1588.79,1140.34 1589.06,1138.1C1589.33,1135.86 1591.37,1134.26 1593.6,1134.53C1608.05,1136.27 1616.6,1140.84 1621.16,1146.88C1624.44,1151.21 1625.83,1156.37 1625.69,1162.19C1625.63,1164.44 1623.76,1166.23 1621.51,1166.17C1619.25,1166.12 1617.47,1164.24 1617.52,1161.99C1617.62,1158.13 1616.83,1154.67 1614.65,1151.81C1611.05,1147.04 1604.04,1144.02 1592.63,1142.64Z" style="fill:rgb(71,71,71);"/>
            </g>
        </g>
        <g transform="matrix(1,0,0,1,-1272.34,-206.621)">
            <g transform="matrix(0.195076,0,0,1.02391,1756.39,577.011)">
                <rect x="1288.77" y="71.802" width="1198.95" height="439.167" style="fill:rgb(211,211,211);"/>
            </g>
        </g>
        <g transform="matrix(1,0,0,1,-1272.34,-206.621)">
            <g transform="matrix(1,0,0,1,605.339,-54.2601)">
                <g transform="matrix(1.45103,0,0,1.47774,-179.363,108.264)">
                    <path d="M1438.58,791.789L583.288,791.789L583.288,103.277L1438.58,103.277L1438.58,791.789ZM1405.67,132.614L616.202,132.614L616.202,762.452L1405.67,762.452L1405.67,132.614Z"/>
                </g>
                <g transform="matrix(1,0,0,0.927835,667.001,308.676)">
                    <rect x="0" y="999.232" width="1241.06" height="98.272"/>
                </g>
                <g transform="matrix(1.43814,0,0,0.196142,-158.918,547.985)">
                    <path d="M1432.75,855.015L589.121,855.015L589.121,40.052L1432.75,40.052L1432.75,855.015ZM1411.5,195.839L610.368,195.84L610.368,699.227L1411.5,699.227L1411.5,195.839Z"/>
                </g>
                <g transform="matrix(0.990338,0,0,0.764395,15.8005,269.409)">
                    <path d="M1650.78,1163.46L917.932,1163.46L917.932,545.281L1650.78,545.281L1650.78,1163.46ZM1619.92,585.256L948.787,585.256L948.787,1123.49L1619.92,1123.49L1619.92,585.256Z"/>
                </g>
                <g transform="matrix(0.333333,0,0,0.762893,861.323,271.126)">
                    <path d="M1681.18,1163.5L887.525,1163.5L887.525,545.242L1681.18,545.242L1681.18,1163.5ZM1589.51,585.295L979.194,585.295L979.194,1123.45L1589.51,1123.45L1589.51,585.295Z"/>
                </g>
                <g transform="matrix(1,0,0,0.534883,0,538.199)">
                    <rect x="719.71" y="1131.61" width="1161.51" height="218.736" style="stroke:black;stroke-width:38.1px;stroke-linejoin:miter;"/>
                </g>
                <g transform="matrix(0.94626,0,0,0.94626,-432.463,58.9287)">
                    <path d="M2185.54,1183.95L2166.61,1183.95L2166.61,1180.81C2166.61,1177.46 2166.39,1175.28 2165.95,1174.25C2165.51,1173.21 2164.57,1172.7 2163.14,1172.7C2161.98,1172.7 2161.11,1173.14 2160.53,1174.04C2159.96,1174.93 2159.67,1176.26 2159.67,1178.04C2159.67,1181.01 2160.26,1183.09 2161.45,1184.28C2162.61,1185.46 2166.01,1187.78 2171.67,1191.21C2176.48,1194.12 2179.76,1196.35 2181.51,1197.89C2183.26,1199.44 2184.74,1201.63 2185.94,1204.46C2187.14,1207.29 2187.74,1210.81 2187.74,1215.03C2187.74,1221.78 2186.12,1227.07 2182.87,1230.92C2179.62,1234.76 2174.74,1237.14 2168.24,1238.04L2168.24,1245.17L2159.53,1245.17L2159.53,1237.81C2154.46,1237.31 2150.04,1235.36 2146.26,1231.97C2142.48,1228.58 2140.59,1222.67 2140.59,1214.23L2140.59,1210.53L2159.53,1210.53L2159.53,1215.17C2159.53,1220.26 2159.72,1223.43 2160.11,1224.66C2160.5,1225.89 2161.45,1226.51 2162.95,1226.51C2164.23,1226.51 2165.18,1226.08 2165.81,1225.22C2166.43,1224.36 2166.74,1223.09 2166.74,1221.4C2166.74,1217.15 2166.45,1214.11 2165.86,1212.29C2165.26,1210.46 2163.23,1208.46 2159.76,1206.31C2153.98,1202.68 2150.05,1200.02 2147.97,1198.32C2145.89,1196.61 2144.1,1194.21 2142.58,1191.12C2141.07,1188.03 2140.31,1184.53 2140.31,1180.62C2140.31,1174.96 2141.91,1170.53 2145.11,1167.31C2148.32,1164.09 2153.12,1162.11 2159.53,1161.36L2159.53,1155.31L2168.24,1155.31L2168.24,1161.36C2174.09,1162.11 2178.46,1164.07 2181.37,1167.24C2184.28,1170.41 2185.73,1174.79 2185.73,1180.39C2185.73,1181.17 2185.67,1182.36 2185.54,1183.95Z" style="fill:white;fill-rule:nonzero;"/>
                    <path d="M2241.3,1161.82L2229.98,1196.09L2242.38,1237.71L2221.99,1237.71L2213.99,1205.18L2213.99,1237.71L2194.26,1237.71L2194.26,1161.82L2213.99,1161.82L2213.99,1191.31L2222.78,1161.82L2241.3,1161.82Z" style="fill:white;fill-rule:nonzero;"/>
                    <path d="M2290.64,1161.82L2290.64,1212.54C2290.64,1218.29 2290.45,1222.33 2290.07,1224.66C2289.7,1226.99 2288.59,1229.38 2286.74,1231.83C2284.9,1234.29 2282.47,1236.14 2279.46,1237.41C2276.44,1238.68 2272.89,1239.31 2268.79,1239.31C2264.26,1239.31 2260.26,1238.56 2256.79,1237.06C2253.32,1235.56 2250.73,1233.61 2249.01,1231.2C2247.29,1228.79 2246.28,1226.25 2245.96,1223.58C2245.65,1220.91 2245.49,1215.29 2245.49,1206.73L2245.49,1161.82L2265.23,1161.82L2265.23,1218.73C2265.23,1222.04 2265.41,1224.16 2265.77,1225.08C2266.13,1226 2266.86,1226.46 2267.95,1226.46C2269.2,1226.46 2270,1225.96 2270.36,1224.94C2270.72,1223.93 2270.9,1221.53 2270.9,1217.75L2270.9,1161.82L2290.64,1161.82Z" style="fill:white;fill-rule:nonzero;"/>
                    <path d="M2359.17,1161.82L2359.17,1237.71L2341.92,1237.71L2341.89,1186.48L2335.03,1237.71L2322.79,1237.71L2315.55,1187.65L2315.53,1237.71L2298.28,1237.71L2298.28,1161.82L2323.81,1161.82C2324.57,1166.39 2325.35,1171.77 2326.15,1177.96L2328.96,1197.26L2333.49,1161.82L2359.17,1161.82Z" style="fill:white;fill-rule:nonzero;"/>
                    <path d="M2401.2,1161.82L2412.49,1237.71L2392.32,1237.71L2391.26,1224.07L2384.2,1224.07L2383.01,1237.71L2362.61,1237.71L2372.68,1161.82L2401.2,1161.82ZM2390.74,1210.62C2389.74,1202.03 2388.74,1191.4 2387.74,1178.75C2385.73,1193.28 2384.47,1203.9 2383.95,1210.62L2390.74,1210.62Z" style="fill:white;fill-rule:nonzero;"/>
                </g>
            </g>
        </g>
        <g transform="matrix(1,0,0,1,-1272.34,-206.621)">
            <g transform="matrix(1.00636,0,0,1,-13.7575,0)">
                <rect x="1325.49" y="1103.92" width="839.335" height="72.064" style="fill:white;"/>
            </g>
        </g>
        <g transform="matrix(1,0,0,1,-1272.34,-206.621)">
            <g transform="matrix(1,0,0,1.3552,79.9625,5.27811)">
                <path d="M1442.37,397.913L1442.37,454.831L1429.43,454.831L1429.41,416.405L1424.26,454.831L1415.09,454.831L1409.66,417.284L1409.64,454.831L1396.7,454.831L1396.7,397.913L1415.85,397.913C1416.42,401.334 1417.01,405.368 1417.61,410.013L1419.71,424.491L1423.11,397.913L1442.37,397.913Z" style="fill-rule:nonzero;"/>
                <path d="M1461,397.913L1485.68,397.913L1485.68,409.303L1475.8,409.303L1475.8,420.096L1485.05,420.096L1485.05,430.924L1475.8,430.924L1475.8,443.44L1486.67,443.44L1486.67,454.831L1461,454.831L1461,397.913Z" style="fill-rule:nonzero;"/>
                <path d="M1549.28,397.913L1549.28,454.831L1536.34,454.831L1536.33,416.405L1531.17,454.831L1522,454.831L1516.57,417.284L1516.55,454.831L1503.61,454.831L1503.61,397.913L1522.76,397.913C1523.33,401.334 1523.92,405.368 1524.52,410.013L1526.62,424.491L1530.02,397.913L1549.28,397.913Z" style="fill-rule:nonzero;"/>
                <path d="M1567.91,397.913L1592.59,397.913L1592.59,409.303L1582.71,409.303L1582.71,420.096L1591.96,420.096L1591.96,430.924L1582.71,430.924L1582.71,443.44L1593.58,443.44L1593.58,454.831L1567.91,454.831L1567.91,397.913Z" style="fill-rule:nonzero;"/>
                <path d="M1704.32,397.913L1697.73,454.831L1679.25,454.831C1677.56,446.086 1676.07,436.137 1674.77,424.983C1674.18,429.765 1672.8,439.714 1670.64,454.831L1652.27,454.831L1645.64,397.913L1660.02,397.913L1661.59,417.772L1663.1,436.971C1663.64,427.036 1665.01,414.016 1667.19,397.913L1682.56,397.913C1682.77,399.577 1683.3,405.835 1684.17,416.686L1685.81,438.342C1686.65,424.564 1688.03,411.088 1689.94,397.913L1704.32,397.913Z" style="fill-rule:nonzero;"/>
                <rect x="1719.93" y="397.913" width="14.801" height="56.918"/>
                <path d="M1783.17,397.913L1783.17,409.303L1774.39,409.303L1774.39,454.831L1759.59,454.831L1759.59,409.303L1750.83,409.303L1750.83,397.913L1783.17,397.913Z" style="fill-rule:nonzero;"/>
                <path d="M1833.27,397.913L1833.27,454.831L1818.47,454.831L1818.47,430.924L1814.04,430.924L1814.04,454.831L1799.24,454.831L1799.24,397.913L1814.04,397.913L1814.04,418.268L1818.47,418.268L1818.47,397.913L1833.27,397.913Z" style="fill-rule:nonzero;"/>
                <path d="M1915.56,397.913L1924.03,454.831L1908.9,454.831L1908.11,444.6L1902.81,444.6L1901.92,454.831L1886.62,454.831L1894.17,397.913L1915.56,397.913ZM1907.72,434.51C1906.97,428.063 1906.22,420.095 1905.47,410.604C1903.96,421.503 1903.01,429.472 1902.62,434.51L1907.72,434.51Z" style="fill-rule:nonzero;"/>
                <path d="M1969.05,397.913L1969.05,409.303L1960.26,409.303L1960.26,454.831L1945.46,454.831L1945.46,409.303L1936.7,409.303L1936.7,397.913L1969.05,397.913Z" style="fill-rule:nonzero;"/>
                <path d="M2014.92,397.913L2014.92,409.303L2006.14,409.303L2006.14,454.831L1991.34,454.831L1991.34,409.303L1982.58,409.303L1982.58,397.913L2014.92,397.913Z" style="fill-rule:nonzero;"/>
                <rect x="2030.99" y="397.913" width="14.801" height="56.918"/>
                <path d="M2094.24,397.913L2094.24,409.303L2085.45,409.303L2085.45,454.831L2070.65,454.831L2070.65,409.303L2061.89,409.303L2061.89,397.913L2094.24,397.913Z" style="fill-rule:nonzero;"/>
                <path d="M2143.95,397.913L2143.95,435.952C2143.95,440.264 2143.81,443.293 2143.53,445.04C2143.24,446.786 2142.41,448.579 2141.03,450.418C2139.65,452.258 2137.82,453.653 2135.56,454.602C2133.3,455.551 2130.64,456.026 2127.57,456.026C2124.17,456.026 2121.17,455.463 2118.57,454.338C2115.96,453.213 2114.02,451.749 2112.73,449.944C2111.44,448.139 2110.68,446.235 2110.44,444.231C2110.21,442.227 2110.09,438.014 2110.09,431.592L2110.09,397.913L2124.89,397.913L2124.89,440.592C2124.89,443.077 2125.03,444.665 2125.3,445.356C2125.57,446.047 2126.11,446.393 2126.93,446.393C2127.87,446.393 2128.47,446.012 2128.74,445.251C2129.01,444.489 2129.15,442.69 2129.15,439.854L2129.15,397.913L2143.95,397.913Z" style="fill-rule:nonzero;"/>
                <path d="M2162.37,397.913L2173.44,397.913C2180.59,397.913 2185.43,398.241 2187.95,398.897C2190.47,399.553 2192.38,400.631 2193.69,402.131C2195.01,403.631 2195.83,405.301 2196.16,407.141C2196.48,408.981 2196.65,412.596 2196.65,417.987L2196.65,437.92C2196.65,443.03 2196.41,446.446 2195.93,448.168C2195.45,449.891 2194.61,451.239 2193.41,452.211C2192.22,453.184 2190.74,453.864 2188.98,454.251C2187.22,454.637 2184.58,454.831 2181.04,454.831L2162.37,454.831L2162.37,397.913ZM2177.17,407.651L2177.17,445.092C2179.3,445.092 2180.62,444.665 2181.11,443.809C2181.6,442.954 2181.85,440.627 2181.85,436.831L2181.85,414.717C2181.85,412.139 2181.76,410.487 2181.6,409.76C2181.44,409.034 2181.06,408.501 2180.47,408.161C2179.89,407.821 2178.79,407.651 2177.17,407.651Z" style="fill-rule:nonzero;"/>
                <path d="M2214.86,397.913L2239.54,397.913L2239.54,409.303L2229.66,409.303L2229.66,420.096L2238.91,420.096L2238.91,430.924L2229.66,430.924L2229.66,443.44L2240.52,443.44L2240.52,454.831L2214.86,454.831L2214.86,397.913Z" style="fill-rule:nonzero;"/>
            </g>
        </g>
        <g transform="matrix(1,0,0,1,-1272.34,-206.621)">
            <g transform="matrix(0.41368,-0.269537,0.269537,0.41368,1412.23,1075.24)">
                <g>
                    <g transform="matrix(1,0,0,1,1016.37,97.0608)">
                        <path d="M592.03,796.088C588.086,813.629 593.672,829.488 610.392,843.382C627.551,838.481 641.766,831.898 654.67,824.566L654.214,812.031L787.538,747.763L795.286,758.246L803.719,758.702L813.974,752.093L839.5,731.809L847.248,706.512L833.346,704.917L820.356,693.294C801.724,696.602 788.165,703.051 782.296,714.261L781.384,719.958C733.742,737.407 686.338,756.885 639.913,784.683L631.709,777.162L592.03,796.088Z" style="fill:rgb(71,71,71);"/>
                    </g>
                    <g transform="matrix(1,0,0,1,1016.37,97.0608)">
                        <path d="M633.077,768.013C633.077,768.013 640.902,775.185 640.901,775.185C684.806,749.476 729.545,730.907 774.521,714.31L774.921,711.813L775.502,710.704C782.277,697.763 797.505,689.562 819.015,685.743L822.689,685.09L836.643,697.576L848.123,698.893L854.581,708.758L846.135,736.332L818.448,758.333L805.785,766.494L791.266,765.709L785.146,757.429L662.061,816.763L662.503,828.936L658.459,831.234C645.065,838.844 630.308,845.67 612.498,850.756L608.604,851.868L605.49,849.28C586.134,833.195 579.982,814.713 584.548,794.405L585.365,790.77L633.077,768.013ZM598.871,801.322C597.209,813.583 601.532,824.748 612.273,834.821C625.294,830.787 636.534,825.733 646.835,820.145L646.368,807.3L789.929,738.096L799.307,750.783L801.652,750.91L809.501,745.852L832.864,727.287L837.215,713.08L830.049,712.258L818.068,701.538C804.665,704.295 794.492,708.714 789.655,716.81L788.246,725.613L784.022,727.16C736.821,744.447 689.847,763.723 643.853,791.263L638.947,794.201L630.341,786.312L598.871,801.322Z" style="fill:none;"/>
                    </g>
                    <path d="M1869.26,811.006C1865.59,813.1 1860.9,811.813 1858.81,808.134C1856.71,804.456 1858,799.769 1861.68,797.676L1952.66,745.896C1956.33,743.802 1961.02,745.089 1963.12,748.768C1965.21,752.446 1963.92,757.133 1960.24,759.227L1869.26,811.006Z"/>
                    <path d="M1821.32,832.057L1855.05,816.195L1857.42,836.797L1823.33,852.841L1821.32,832.057"/>
                    <path d="M1820.17,829.617L1853.9,813.755L1857.73,815.887L1860.32,838.412L1824.47,855.28L1820.64,853.1L1818.64,832.316C1818.53,831.183 1819.14,830.102 1820.17,829.617ZM1824.18,833.688L1825.64,848.773L1854.52,835.182L1852.8,820.231L1824.18,833.688Z"/>
                    <path d="M1650.32,872.272C1667.72,888.732 1674.59,905.259 1673.41,921.719L1673.32,922.961L1672.32,923.698C1658.6,933.768 1643.85,941.098 1627.09,943.119L1625.97,943.253L1625.09,942.557C1605.75,927.258 1601.6,910.323 1605.78,892.532L1606.03,891.465L1606.95,890.876C1619.64,882.787 1633.37,876.773 1647.56,871.693L1649.11,871.135L1650.32,872.272ZM1647.81,877.334C1634.9,882.031 1622.4,887.55 1610.79,894.83C1607.54,910.039 1611.42,924.468 1627.56,937.623C1642.52,935.583 1655.75,929.006 1668.1,920.095C1668.73,905.823 1662.45,891.607 1647.81,877.334Z"/>
                    <path d="M1623.76,912.013C1623.14,910.664 1623.72,909.059 1625.07,908.432C1626.42,907.806 1628.03,908.392 1628.65,909.741C1633.92,921.075 1636.89,930.612 1632.57,940.348C1631.96,941.707 1630.37,942.321 1629.01,941.717C1627.65,941.113 1627.04,939.519 1627.64,938.159C1631.34,929.82 1628.28,921.722 1623.76,912.013Z"/>
                    <path d="M1631.77,918.11L1666.27,901.974L1669.05,919.779L1633.44,935.359L1631.77,918.11Z"/>
                    <path d="M1665.13,899.533L1668.93,901.558L1672.04,921.416L1634.52,937.828L1630.76,935.618L1628.91,916.475L1665.13,899.533ZM1634.64,919.745L1635.77,931.399L1666.07,918.143L1664.16,905.937L1634.64,919.745Z"/>
                    <path d="M1667.94,895.854C1667.94,895.854 1781.93,840.54 1805.86,833.492C1812.68,831.484 1814.51,845.083 1810.07,854.279L1672.39,914.772L1667.94,895.854Z"/>
                    <path d="M1666.76,893.429C1666.76,893.429 1781.1,837.975 1805.1,830.907C1810.03,829.454 1813.75,833 1814.84,839.218C1815.68,843.998 1814.96,850.338 1812.49,855.452L1812.06,856.347L1673.47,917.24L1669.77,915.389L1664.82,894.371L1666.76,893.429ZM1671.06,897.339L1674.27,911.001C1674.27,911.001 1808.04,852.227 1808.04,852.226C1810.02,847.53 1810.33,841.81 1809.03,838.207C1808.54,836.842 1807.9,835.701 1806.62,836.078C1784.61,842.562 1686.14,890.04 1671.06,897.339Z"/>
                    <path d="M1658.16,883.817C1656.88,884.576 1655.23,884.153 1654.47,882.874C1653.71,881.594 1654.13,879.939 1655.41,879.18C1694.38,856.072 1746.3,834.19 1804.32,812.034C1805.71,811.503 1807.27,812.201 1807.8,813.591C1808.33,814.98 1807.63,816.54 1806.24,817.07C1748.55,839.102 1696.91,860.839 1658.16,883.817Z"/>
                    <path d="M1797.95,811.389C1796.56,810.883 1795.83,809.336 1796.34,807.937C1796.84,806.538 1798.39,805.814 1799.79,806.32C1816.59,812.399 1825.73,828.603 1824.35,853.87C1824.27,855.356 1823,856.496 1821.52,856.415C1820.03,856.333 1818.89,855.061 1818.97,853.576C1820.19,831.325 1812.75,816.743 1797.95,811.389Z"/>
                    <path d="M1807.89,855C1807.19,853.689 1807.68,852.054 1808.99,851.349C1810.3,850.644 1811.94,851.136 1812.64,852.447C1813.13,853.349 1814.01,853.746 1815.14,853.882C1816.94,854.1 1819.19,853.705 1821.83,852.916C1830.57,850.303 1842.88,843.352 1856.24,835.191C1856.24,835.191 1854.98,818.42 1854.97,818.418C1849.86,806.863 1843.61,798.48 1836.03,793.511C1822.38,795.687 1810.48,801.348 1800.32,810.501C1799.21,811.497 1797.51,811.408 1796.51,810.303C1795.52,809.198 1795.61,807.492 1796.71,806.496C1807.91,796.401 1821.09,790.242 1836.23,788.026L1837.2,787.885L1838.03,788.398C1846.87,793.835 1854.25,803.287 1860.1,816.678L1860.28,817.097L1861.86,838.068L1860.46,838.928C1843.57,849.295 1828.06,857.833 1818.72,859.137C1813.4,859.878 1809.73,858.422 1807.89,855Z"/>
                    <path d="M1798.27,815.831C1798.66,817.268 1797.81,818.748 1796.37,819.136C1794.93,819.524 1793.45,818.673 1793.06,817.237C1792.14,813.829 1792.7,810.386 1796.34,806.978C1797.43,805.962 1799.13,806.019 1800.15,807.105C1801.17,808.191 1801.11,809.898 1800.02,810.915C1798.26,812.567 1797.82,814.18 1798.27,815.831Z"/>
                    <g transform="matrix(-0.934909,-0.354887,-0.354887,0.934909,3768.04,690.707)">
                        <path d="M1793.06,817.237C1793.45,818.673 1794.93,819.524 1796.37,819.136C1797.81,818.748 1798.66,817.268 1798.27,815.831C1797.82,814.18 1798.26,812.567 1800.02,810.915C1801.11,809.898 1801.17,808.191 1800.15,807.105C1799.13,806.019 1797.43,805.962 1796.34,806.978C1792.7,810.386 1792.14,813.829 1793.06,817.237Z"/>
                    </g>
                    <path d="M1850.52,806.355L1887.91,763.268L1926.73,713.77L1943.11,672.106L1934.56,637.565L1935.99,619.76C1935.82,604.659 1926.9,592.96 1909.63,584.506L1877.59,560.113L1900.02,559.757L1918.18,530.557C1936.09,542.608 1951.9,558.151 1964.12,579.699L1981.43,552.869C2002.44,624.404 1997.82,693.431 1960.91,751.338L1850.52,806.355Z"/>
                    <path d="M1850.52,806.355L1887.42,762.875L1925.62,713.151L1941.34,672.005L1932.64,638.041L1932.56,637.728C1932.56,637.728 1933.86,619.704 1933.86,619.697C1933.7,612.13 1931.2,605.497 1926.41,599.768C1922.19,594.719 1916.22,590.383 1908.56,586.695L1908.35,586.59L1875.98,562.219L1877.54,557.467L1898.47,557.044L1915.77,529.057L1917.32,526.558L1919.77,528.201C1929.2,534.547 1938.08,541.836 1946.15,550.449C1952.76,557.496 1958.82,565.426 1964.25,574.418L1979.22,551.441L1983.96,552.127C1994.06,587.314 1998.07,621.864 1995.12,654.766C1992.01,689.4 1981.21,722.19 1961.89,751.962L1961.72,752.233L1850.52,806.355ZM1850.52,806.355L1960.1,750.451C1978.55,720.881 1988.56,688.498 1991.12,654.436C1993.43,623.777 1989.71,591.75 1980.52,559.176L1966.45,581.202L1961.7,581.066C1955.9,570.879 1949.27,562.075 1942,554.35C1934.9,546.81 1927.2,540.297 1919.02,534.575L1902.35,561.206L1901.56,562.477L1885.25,562.671C1885.25,562.671 1910.93,582.431 1910.93,582.43C1919.11,586.531 1925.46,591.344 1929.94,596.857C1935.32,603.471 1938.07,611.086 1938.11,619.736L1938.11,619.833L1936.57,637.418L1944.74,671.701L1944.87,672.223L1927.89,714.229L1927.83,714.4C1927.83,714.4 1888.4,763.653 1888.39,763.666L1850.52,806.355Z" style="fill:none;"/>
                    <g transform="matrix(0.985809,-0.167873,0.167873,0.985809,-98.4555,314.084)">
                        <path d="M1902.02,777.499C1904.2,774.918 1906.1,772.332 1908.08,769.64C1908.92,768.504 1909.72,767.392 1910.56,766.263C1911.67,764.776 1912.74,763.287 1913.86,761.811C1914.6,760.836 1915.35,759.875 1916.13,758.927C1916.71,758.215 1917.31,757.522 1917.92,756.833C1919.36,755.21 1920.81,753.635 1922.25,752.001C1923.49,750.587 1924.71,749.215 1925.95,747.783C1927.82,745.617 1929.63,743.522 1931.42,741.262C1930.4,743.987 1929.38,746.587 1928.2,749.216C1927.4,750.981 1926.57,752.673 1925.66,754.372C1924.6,756.359 1923.49,758.28 1922.25,760.153C1921.72,760.955 1921.17,761.735 1920.57,762.49C1919.78,763.497 1918.95,764.468 1918.07,765.394C1916.74,766.792 1915.34,768.091 1913.87,769.349C1912.77,770.296 1911.66,771.182 1910.48,772.044C1907.75,774.049 1904.98,775.772 1902.02,777.499Z" style="fill:rgb(71,71,71);"/>
                    </g>
                    <g transform="matrix(1.26341,-1.61398,1.22432,0.958383,-1375.8,3003.11)">
                        <path d="M1902.02,777.499C1904.3,775.143 1906.42,772.715 1908.51,770.243C1909.35,769.242 1910.18,768.246 1911.01,767.247C1912.26,765.738 1913.48,764.219 1914.7,762.703C1915.35,761.889 1916,761.082 1916.66,760.28C1917.09,759.743 1917.53,759.212 1917.98,758.687C1919.66,756.695 1921.32,754.713 1922.93,752.676C1924.11,751.199 1925.26,749.733 1926.4,748.229C1928.13,745.942 1929.8,743.654 1931.42,741.262C1930.14,744.01 1928.82,746.693 1927.39,749.335C1926.44,751.09 1925.46,752.801 1924.43,754.489C1923.23,756.444 1921.99,758.352 1920.67,760.199C1920.11,760.985 1919.53,761.753 1918.94,762.499C1918.15,763.487 1917.33,764.445 1916.48,765.368C1915.23,766.74 1913.92,768.039 1912.57,769.297C1911.57,770.23 1910.56,771.123 1909.51,771.989C1907.11,773.965 1904.62,775.755 1902.02,777.499Z" style="fill:rgb(71,71,71);"/>
                    </g>
                    <g transform="matrix(1.51076,-1.92998,1.32116,1.03419,-1919.45,3522.23)">
                        <path d="M1902.02,777.499C1904.37,775.121 1906.55,772.65 1908.7,770.162C1910.17,768.467 1911.59,766.762 1912.99,765.058C1914.18,763.617 1915.34,762.165 1916.51,760.746C1917.7,759.304 1918.89,757.9 1920.06,756.476C1922.05,754.047 1923.98,751.62 1925.86,749.109C1927.78,746.536 1929.64,743.962 1931.42,741.262C1930.08,744.043 1928.7,746.765 1927.22,749.436C1926.24,751.2 1925.23,752.924 1924.17,754.621C1922.95,756.577 1921.68,758.488 1920.34,760.335C1919.78,761.118 1919.2,761.884 1918.6,762.628C1917.81,763.61 1917,764.564 1916.16,765.483C1914.92,766.843 1913.63,768.134 1912.3,769.384C1911.32,770.307 1910.33,771.192 1909.3,772.05C1906.97,773.999 1904.55,775.773 1902.02,777.499Z" style="fill:rgb(71,71,71);"/>
                    </g>
                    <g transform="matrix(0.973833,0,0,1.00109,52.7992,-0.521971)">
                        <path d="M1965.02,485.118C1962.72,480.694 1964.55,475.285 1969.1,473.047C1973.64,470.809 1979.2,472.583 1981.5,477.007C2027.5,565.452 2037.54,637.638 2016.46,694.966C1995.25,752.635 1942.46,795.942 1860.75,825.548C1855.98,827.279 1850.66,824.912 1848.88,820.266C1847.1,815.62 1849.53,810.443 1854.31,808.713C1929.85,781.342 1979.46,742.229 1999.07,688.914C2018.8,635.257 2008.08,567.899 1965.02,485.118Z"/>
                    </g>
                    <path d="M1743.97,686.509C1740.52,688.628 1736,687.546 1733.88,684.094C1731.76,680.643 1732.84,676.12 1736.29,674.001C1791.34,640.212 1841.16,623.155 1878.76,620.125C1905.6,617.962 1926.54,623.025 1939.6,633.595C1953.53,644.869 1959.47,662.384 1954.03,685.611C1946.84,716.313 1918.51,758.351 1861.33,808.718C1858.29,811.395 1853.65,811.101 1850.97,808.062C1848.29,805.022 1848.59,800.381 1851.63,797.704C1905.51,750.24 1932.96,711.196 1939.74,682.263C1943.61,665.731 1940.28,653.028 1930.37,645.003C1919.58,636.275 1902.1,632.968 1879.94,634.755C1844.03,637.649 1796.55,654.235 1743.97,686.509Z"/>
                    <path d="M1720.65,642.168C1717.56,643.393 1714.07,641.883 1712.84,638.797C1711.62,635.712 1713.12,632.212 1716.21,630.987C1786.08,603.245 1841.62,592.619 1882.07,597.001C1910.38,600.067 1931.56,610.43 1945.6,627.145C1947.73,629.687 1947.4,633.485 1944.86,635.62C1942.32,637.755 1938.52,637.424 1936.39,634.882C1924.14,620.297 1905.47,611.637 1880.77,608.961C1841.71,604.729 1788.14,615.372 1720.65,642.168Z"/>
                    <path d="M1768.47,646.737C1766.86,648.869 1763.82,649.288 1761.69,647.673C1759.55,646.058 1759.13,643.016 1760.75,640.885C1800.72,588.117 1849.29,559.46 1913.8,575.681C1916.39,576.333 1917.97,578.969 1917.32,581.562C1916.66,584.156 1914.03,585.732 1911.43,585.08C1851.07,569.899 1805.88,597.354 1768.47,646.737Z"/>
                    <path d="M1749.29,595.428C1746.82,596.184 1744.2,594.791 1743.44,592.321C1742.69,589.85 1744.08,587.232 1746.55,586.476C1790.89,572.92 1830.01,564.831 1861.41,564.688C1883.08,564.59 1901.16,568.289 1914.97,576.337C1917.2,577.638 1917.96,580.506 1916.66,582.738C1915.36,584.969 1912.49,585.725 1910.26,584.424C1897.69,577.098 1881.17,573.959 1861.45,574.049C1830.78,574.188 1792.59,582.188 1749.29,595.428Z"/>
                    <path d="M1709.1,582.989C1707.66,583.364 1706.18,582.501 1705.81,581.062C1705.43,579.622 1706.29,578.148 1707.73,577.773C1766.32,562.475 1816.09,554.604 1853.76,556.822C1879.42,558.333 1899.55,564.555 1913.24,576.094C1914.38,577.053 1914.52,578.755 1913.56,579.893C1912.6,581.03 1910.9,581.175 1909.77,580.216C1896.82,569.302 1877.71,563.633 1853.44,562.204C1816.2,560.011 1767.02,567.866 1709.1,582.989Z"/>
                    <path d="M1741.87,549.616C1739.22,549.963 1736.79,548.093 1736.44,545.441C1736.09,542.789 1737.96,540.354 1740.61,540.006C1829.81,528.309 1894.76,538.267 1932.63,571.442C1958.31,593.937 1971.92,627.087 1972.14,671.843C1972.15,674.517 1969.99,676.699 1967.32,676.713C1964.64,676.726 1962.46,674.565 1962.45,671.891C1962.24,630.432 1950.03,599.57 1926.24,578.732C1889.91,546.907 1827.44,538.394 1741.87,549.616Z"/>
                    <path d="M1801.73,526.689C1799.16,526.506 1797.21,524.266 1797.4,521.689C1797.58,519.112 1799.82,517.169 1802.4,517.352C1857.15,521.24 1899.26,535.762 1928.21,561.087C1957.42,586.633 1973.45,623.187 1975.39,671.394C1975.49,673.975 1973.48,676.155 1970.9,676.259C1968.32,676.362 1966.14,674.351 1966.04,671.77C1964.22,626.531 1949.46,592.106 1922.05,568.133C1894.39,543.939 1854.04,530.404 1801.73,526.689Z"/>
                    <path d="M1795.77,502.981C1791.18,502.652 1787.73,498.661 1788.06,494.075C1788.39,489.489 1792.38,486.033 1796.96,486.363C1848.73,490.084 1891.38,504.871 1922.15,533.749C1952.95,562.66 1972.09,605.819 1975.89,667.077C1976.18,671.666 1972.68,675.623 1968.1,675.908C1963.51,676.194 1959.55,672.7 1959.26,668.111C1955.78,612.078 1938.92,572.343 1910.74,545.898C1882.53,519.421 1843.23,506.393 1795.77,502.981Z"/>
                    <path d="M1850.12,485.965C1846.28,485.523 1843.52,482.044 1843.96,478.202C1844.4,474.36 1847.88,471.6 1851.72,472.042C1909.98,478.754 1957.14,522.477 1978.85,580.826C1980.2,584.451 1978.35,588.489 1974.72,589.837C1971.1,591.186 1967.06,589.338 1965.71,585.713C1945.9,532.467 1903.28,492.09 1850.12,485.965Z"/>
                    <g transform="matrix(0.936815,0,0,1.03951,119.344,-18.2849)">
                        <path d="M1884.78,471.728C1879.33,469.721 1876.72,464.109 1878.94,459.202C1881.17,454.294 1887.4,451.939 1892.84,453.946C1938.36,470.719 1971.3,502.296 1988.44,552.301C1990.18,557.366 1987.03,562.749 1981.41,564.315C1975.79,565.88 1969.82,563.039 1968.08,557.974C1953.08,514.245 1924.58,486.395 1884.78,471.728Z"/>
                    </g>
                    <path d="M1902.02,777.499C1904.2,774.918 1906.1,772.332 1908.08,769.64C1908.92,768.504 1909.72,767.392 1910.56,766.263C1911.67,764.776 1912.74,763.287 1913.86,761.811C1914.6,760.836 1915.35,759.875 1916.13,758.927C1916.71,758.215 1917.31,757.522 1917.92,756.833C1919.36,755.21 1920.81,753.635 1922.25,752.001C1923.49,750.587 1924.71,749.215 1925.95,747.783C1927.82,745.617 1929.63,743.522 1931.42,741.262C1930.4,743.987 1929.38,746.587 1928.2,749.216C1927.4,750.981 1926.57,752.673 1925.66,754.372C1924.6,756.359 1923.49,758.28 1922.25,760.153C1921.72,760.955 1921.17,761.735 1920.57,762.49C1919.78,763.497 1918.95,764.468 1918.07,765.394C1916.74,766.792 1915.34,768.091 1913.87,769.349C1912.77,770.296 1911.66,771.182 1910.48,772.044C1907.75,774.049 1904.98,775.772 1902.02,777.499Z" style="fill:rgb(71,71,71);"/>
                    <g transform="matrix(0.983816,-0.179182,0.179182,0.983816,-99.2602,327.688)">
                        <path d="M1902.02,777.499C1904.2,774.918 1906.1,772.332 1908.08,769.64C1908.92,768.504 1909.72,767.392 1910.56,766.263C1911.67,764.776 1912.74,763.287 1913.86,761.811C1914.6,760.836 1915.35,759.875 1916.13,758.927C1916.71,758.215 1917.31,757.522 1917.92,756.833C1919.36,755.21 1920.81,753.635 1922.25,752.001C1923.49,750.587 1924.71,749.215 1925.95,747.783C1927.82,745.617 1929.63,743.522 1931.42,741.262C1930.4,743.987 1929.38,746.587 1928.2,749.216C1927.4,750.981 1926.57,752.673 1925.66,754.372C1924.6,756.359 1923.49,758.28 1922.25,760.153C1921.72,760.955 1921.17,761.735 1920.57,762.49C1919.78,763.497 1918.95,764.468 1918.07,765.394C1916.74,766.792 1915.34,768.091 1913.87,769.349C1912.77,770.296 1911.66,771.182 1910.48,772.044C1907.75,774.049 1904.98,775.772 1902.02,777.499Z" style="fill:rgb(71,71,71);"/>
                    </g>
                    <g transform="matrix(0.985809,-0.167873,0.167873,0.985809,-87.5162,329.125)">
                        <path d="M1902.02,777.499C1904.2,774.918 1906.1,772.332 1908.08,769.64C1908.92,768.504 1909.72,767.392 1910.56,766.263C1911.67,764.776 1912.74,763.287 1913.86,761.811C1914.6,760.836 1915.35,759.875 1916.13,758.927C1916.71,758.215 1917.31,757.522 1917.92,756.833C1919.36,755.21 1920.81,753.635 1922.25,752.001C1923.49,750.587 1924.71,749.215 1925.95,747.783C1927.82,745.617 1929.63,743.522 1931.42,741.262C1930.4,743.987 1929.38,746.587 1928.2,749.216C1927.4,750.981 1926.57,752.673 1925.66,754.372C1924.6,756.359 1923.49,758.28 1922.25,760.153C1921.72,760.955 1921.17,761.735 1920.57,762.49C1919.78,763.497 1918.95,764.468 1918.07,765.394C1916.74,766.792 1915.34,768.091 1913.87,769.349C1912.77,770.296 1911.66,771.182 1910.48,772.044C1907.75,774.049 1904.98,775.772 1902.02,777.499Z" style="fill:rgb(71,71,71);"/>
                    </g>
                    <g transform="matrix(2.1,-1.89318,1.59466,1.76887,-3292.24,2985.01)">
                        <path d="M1902.02,777.499C1904.82,775.895 1907.4,774.037 1909.84,771.965C1910.9,771.072 1911.91,770.14 1912.91,769.171C1914.24,767.887 1915.5,766.525 1916.74,765.102C1917.55,764.164 1918.35,763.202 1919.13,762.212C1919.72,761.477 1920.29,760.731 1920.87,759.969C1922.18,758.222 1923.45,756.39 1924.66,754.44C1925.67,752.816 1926.65,751.132 1927.59,749.361C1928.94,746.815 1930.23,744.134 1931.42,741.262C1930.52,744.304 1929.53,747.179 1928.41,749.906C1927.62,751.825 1926.78,753.658 1925.88,755.414C1924.79,757.548 1923.61,759.562 1922.34,761.448C1921.78,762.276 1921.2,763.076 1920.6,763.845C1919.79,764.883 1918.95,765.869 1918.07,766.801C1916.74,768.211 1915.34,769.502 1913.87,770.692C1912.78,771.582 1911.65,772.408 1910.48,773.172C1907.82,774.914 1905.01,776.329 1902.02,777.499Z" style="fill:rgb(71,71,71);"/>
                    </g>
                </g>
            </g>
        </g>
        <g transform="matrix(1,0,0,1,-1272.34,-206.621)">
            <g transform="matrix(1,0,0,1.4788,-1.88475,-495.101)">
                <path d="M1660.97,873.123L1660.97,834.882L1667.09,834.882L1667.09,873.123L1684.41,873.123L1684.41,1026.62L1643.66,1026.62L1643.66,873.123L1660.97,873.123Z" style="fill:rgb(255,0,0);stroke:black;stroke-width:1.65px;stroke-linejoin:miter;"/>
            </g>
        </g>
        <g transform="matrix(1,0,0,1,-1272.34,-206.621)">
            <g transform="matrix(2.6179e-17,-0.427536,0.962776,5.8953e-17,1385.6,1486.73)">
                <path d="M1152.4,766.279C1152.4,759.361 1146.79,753.745 1139.87,753.745L1096.79,753.745C1089.88,753.745 1084.26,759.361 1084.26,766.279L1084.26,791.349C1084.26,798.267 1089.88,803.883 1096.79,803.883L1139.87,803.883C1146.79,803.883 1152.4,798.267 1152.4,791.349L1152.4,766.279Z" style="fill:rgb(211,211,211);"/>
                <path d="M1153.28,766.279L1153.28,791.349C1153.28,798.75 1147.27,804.759 1139.87,804.759L1096.79,804.759C1089.39,804.759 1083.38,798.75 1083.38,791.349L1083.38,766.279C1083.38,758.878 1089.39,752.869 1096.79,752.869L1139.87,752.869C1147.27,752.869 1153.28,758.878 1153.28,766.279ZM1151.53,766.279C1151.53,759.845 1146.3,754.621 1139.87,754.621L1096.79,754.621C1090.36,754.621 1085.13,759.845 1085.13,766.279L1085.13,791.349C1085.13,797.783 1090.36,803.007 1096.79,803.007L1139.87,803.007C1146.3,803.007 1151.53,797.783 1151.53,791.349L1151.53,766.279Z"/>
                <g transform="matrix(0.782609,0,0,0.672727,243.685,253.973)">
                    <path d="M1152.4,766.279C1152.4,759.361 1147.57,753.745 1141.63,753.745L1095.03,753.745C1089.09,753.745 1084.26,759.361 1084.26,766.279L1084.26,791.349C1084.26,798.267 1089.09,803.883 1095.03,803.883L1141.63,803.883C1147.57,803.883 1152.4,798.267 1152.4,791.349L1152.4,766.279Z" style="fill:rgb(211,211,211);"/>
                </g>
                <g transform="matrix(0.782609,0,0,0.672727,243.685,253.973)">
                    <path d="M1153.52,766.279L1153.52,791.349C1153.52,798.985 1148.19,805.185 1141.63,805.185L1095.03,805.185C1088.47,805.185 1083.14,798.985 1083.14,791.349L1083.14,766.279C1083.14,758.643 1088.47,752.443 1095.03,752.443L1141.63,752.443C1148.19,752.443 1153.52,758.643 1153.52,766.279ZM1151.28,766.279C1151.28,760.08 1146.96,755.047 1141.63,755.047L1095.03,755.047C1089.7,755.047 1085.38,760.08 1085.38,766.279L1085.38,791.349C1085.38,797.548 1089.7,802.581 1095.03,802.581L1141.63,802.581C1146.96,802.581 1151.28,797.548 1151.28,791.349L1151.28,766.279Z"/>
                </g>
                <g transform="matrix(1.06536,0,0,1,-71.9416,0)">
                    <rect x="1100.67" y="774.028" width="32.134" height="7.521" style="fill:rgb(211,211,211);"/>
                </g>
                <g transform="matrix(1.06536,0,0,1,-71.9416,0)">
                    <path d="M1133.62,782.425L1099.85,782.425L1099.85,773.152L1133.62,773.152L1133.62,782.425ZM1131.98,774.904L1101.49,774.904L1101.49,780.673L1131.98,780.673L1131.98,774.904Z"/>
                </g>
                <g transform="matrix(0.745819,0,0,1,438.12,-0.911611)">
                    <path d="M1152.4,766.279C1152.4,759.361 1144.87,753.745 1135.6,753.745L1101.07,753.745C1091.79,753.745 1084.26,759.361 1084.26,766.279L1084.26,791.349C1084.26,798.267 1091.79,803.883 1101.07,803.883L1135.6,803.883C1144.87,803.883 1152.4,798.267 1152.4,791.349L1152.4,766.279Z" style="fill:rgb(211,211,211);"/>
                </g>
                <g transform="matrix(0.745819,0,0,1,438.12,-0.911611)">
                    <path d="M1153.58,766.279L1153.58,791.349C1153.58,798.75 1145.52,804.759 1135.6,804.759L1101.07,804.759C1091.14,804.759 1083.09,798.75 1083.09,791.349L1083.09,766.279C1083.09,758.878 1091.14,752.869 1101.07,752.869L1135.6,752.869C1145.52,752.869 1153.58,758.878 1153.58,766.279ZM1151.23,766.279C1151.23,759.845 1144.22,754.621 1135.6,754.621L1101.07,754.621C1092.44,754.621 1085.43,759.845 1085.43,766.279L1085.43,791.349C1085.43,797.783 1092.44,803.007 1101.07,803.007L1135.6,803.007C1144.22,803.007 1151.23,797.783 1151.23,791.349L1151.23,766.279Z"/>
                </g>
                <path d="M1258.29,763.772L1141.19,763.772C1141.01,761.548 1138.8,761.135 1135.12,762.022L1134.83,793.947L1140.55,792.488L1258.29,792.488L1258.29,763.772Z"/>
                <path d="M1259.16,793.364L1140.66,793.364L1135.04,794.796L1133.95,793.939L1134.25,761.331L1134.91,761.171C1136.93,760.684 1138.55,760.586 1139.69,760.883C1140.85,761.185 1141.61,761.842 1141.92,762.897L1259.16,762.897L1259.16,793.364ZM1257.41,764.648L1140.38,764.648L1140.32,763.842C1140.26,763.152 1139.89,762.746 1139.25,762.578C1138.44,762.367 1137.34,762.442 1135.99,762.724L1135.71,792.817L1140.44,791.612L1257.41,791.612L1257.41,764.648Z"/>
                <g transform="matrix(0.694291,0,0,1,496.821,-0.455799)">
                    <rect x="1134.54" y="763.772" width="123.751" height="28.716"/>
                </g>
                <g transform="matrix(0.694291,0,0,1,496.821,-0.455799)">
                    <path d="M1259.55,793.364L1133.27,793.364L1133.27,762.897L1259.55,762.897L1259.55,793.364ZM1257.03,764.648L1135.8,764.648L1135.8,791.612L1257.03,791.612L1257.03,764.648Z"/>
                </g>
                <g transform="matrix(0.745819,0,0,1,745.329,-1.13951)">
                    <path d="M1152.4,766.279C1152.4,759.361 1144.87,753.745 1135.6,753.745L1101.07,753.745C1091.79,753.745 1084.26,759.361 1084.26,766.279L1084.26,791.349C1084.26,798.267 1091.79,803.883 1101.07,803.883L1135.6,803.883C1144.87,803.883 1152.4,798.267 1152.4,791.349L1152.4,766.279Z" style="fill:rgb(211,211,211);"/>
                </g>
                <g transform="matrix(0.745819,0,0,1,745.329,-1.13951)">
                    <path d="M1153.58,766.279L1153.58,791.349C1153.58,798.75 1145.52,804.759 1135.6,804.759L1101.07,804.759C1091.14,804.759 1083.09,798.75 1083.09,791.349L1083.09,766.279C1083.09,758.878 1091.14,752.869 1101.07,752.869L1135.6,752.869C1145.52,752.869 1153.58,758.878 1153.58,766.279ZM1151.23,766.279C1151.23,759.845 1144.22,754.621 1135.6,754.621L1101.07,754.621C1092.44,754.621 1085.43,759.845 1085.43,766.279L1085.43,791.349C1085.43,797.783 1092.44,803.007 1101.07,803.007L1135.6,803.007C1144.22,803.007 1151.23,797.783 1151.23,791.349L1151.23,766.279Z"/>
                </g>
                <g transform="matrix(0.721915,0,0,1,657.375,-0.455799)">
                    <rect x="1134.54" y="763.772" width="123.751" height="28.716"/>
                </g>
                <g transform="matrix(0.721915,0,0,1,657.375,-0.455799)">
                    <path d="M1259.5,793.364L1133.32,793.364L1133.32,762.897L1259.5,762.897L1259.5,793.364ZM1257.07,764.648L1135.75,764.648L1135.75,791.612L1257.07,791.612L1257.07,764.648Z"/>
                </g>
                <g transform="matrix(1.01842,0,0,1,435.858,-0.455799)">
                    <rect x="1134.54" y="763.772" width="123.751" height="28.716"/>
                </g>
                <g transform="matrix(1.01842,0,0,1,435.858,-0.455799)">
                    <path d="M1259.15,793.364L1133.67,793.364L1133.67,762.897L1259.15,762.897L1259.15,793.364ZM1257.43,764.648L1135.39,764.648L1135.39,791.612L1257.43,791.612L1257.43,764.648Z"/>
                </g>
                <g transform="matrix(0.535117,0,0,0.695455,980.314,236.387)">
                    <path d="M1152.4,766.279C1152.4,759.361 1145.1,753.745 1136.11,753.745L1100.55,753.745C1091.56,753.745 1084.26,759.361 1084.26,766.279L1084.26,791.349C1084.26,798.267 1091.56,803.883 1100.55,803.883L1136.11,803.883C1145.1,803.883 1152.4,798.267 1152.4,791.349L1152.4,766.279Z" style="fill:rgb(211,211,211);"/>
                </g>
                <g transform="matrix(0.535117,0,0,0.695455,980.314,236.387)">
                    <path d="M1154.04,766.279L1154.04,791.349C1154.04,798.962 1146.01,805.143 1136.11,805.143L1100.55,805.143C1090.65,805.143 1082.62,798.962 1082.62,791.349L1082.62,766.279C1082.62,758.666 1090.65,752.485 1100.55,752.485L1136.11,752.485C1146.01,752.485 1154.04,758.666 1154.04,766.279ZM1150.77,766.279C1150.77,760.056 1144.2,755.004 1136.11,755.004L1100.55,755.004C1092.46,755.004 1085.9,760.056 1085.9,766.279L1085.9,791.349C1085.9,797.572 1092.46,802.624 1100.55,802.624L1136.11,802.624C1144.2,802.624 1150.77,797.572 1150.77,791.349L1150.77,766.279Z"/>
                </g>
                <g transform="matrix(0.595318,0,0,0.672727,606.973,253.745)">
                    <path d="M1152.4,766.279C1152.4,759.361 1146.06,753.745 1138.24,753.745L1098.42,753.745C1090.61,753.745 1084.26,759.361 1084.26,766.279L1084.26,791.349C1084.26,798.267 1090.61,803.883 1098.42,803.883L1138.24,803.883C1146.06,803.883 1152.4,798.267 1152.4,791.349L1152.4,766.279Z" style="fill:rgb(211,211,211);"/>
                </g>
                <g transform="matrix(0.595318,0,0,0.672727,606.973,253.745)">
                    <path d="M1153.87,766.279L1153.87,791.349C1153.87,798.985 1146.87,805.185 1138.24,805.185L1098.42,805.185C1089.79,805.185 1082.79,798.985 1082.79,791.349L1082.79,766.279C1082.79,758.643 1089.79,752.443 1098.42,752.443L1138.24,752.443C1146.87,752.443 1153.87,758.643 1153.87,766.279ZM1150.93,766.279C1150.93,760.08 1145.24,755.047 1138.24,755.047L1098.42,755.047C1091.42,755.047 1085.73,760.08 1085.73,766.279L1085.73,791.349C1085.73,797.548 1091.42,802.581 1098.42,802.581L1138.24,802.581C1145.24,802.581 1150.93,797.548 1150.93,791.349L1150.93,766.279Z"/>
                </g>
                <path d="M1716.21,763.387L1742.79,762.861C1741.48,780.879 1733.48,791.659 1716.99,792.053"/>
                <path d="M1716.22,764.263C1715.74,764.273 1715.34,763.888 1715.33,763.405C1715.32,762.921 1715.71,762.521 1716.19,762.512L1743.73,761.966L1743.66,762.924C1742.86,774.022 1739.53,782.423 1733.38,787.473C1729.24,790.865 1723.83,792.766 1717.01,792.929C1716.53,792.94 1716.12,792.557 1716.11,792.074C1716.1,791.591 1716.48,791.189 1716.97,791.177C1723.34,791.025 1728.41,789.287 1732.26,786.119C1737.92,781.477 1740.96,773.808 1741.84,763.756L1716.22,764.263Z"/>
                <g transform="matrix(2.95098,-9.0934e-33,1.11487e-31,2.66699,-2815.22,-1270.59)">
                    <ellipse cx="1436.7" cy="767.945" rx="19.618" ry="12.398" style="fill:rgb(255,0,0);"/>
                </g>
                <g>
                    <ellipse cx="1164.03" cy="778.244" rx="7.749" ry="6.951" style="fill:rgb(211,211,211);"/>
                    <g transform="matrix(1,0,0,1,35.5529,0)">
                        <ellipse cx="1164.03" cy="778.244" rx="7.749" ry="6.951" style="fill:rgb(211,211,211);"/>
                    </g>
                    <g transform="matrix(1,0,0,1,70.1941,-0.455808)">
                        <ellipse cx="1164.03" cy="778.244" rx="7.749" ry="6.951" style="fill:rgb(211,211,211);"/>
                    </g>
                    <g transform="matrix(1,0,0,1,149.504,-0.227908)">
                        <ellipse cx="1164.03" cy="778.244" rx="7.749" ry="6.951" style="fill:rgb(211,211,211);"/>
                    </g>
                    <g transform="matrix(1,0,0,1,184.374,-8.69381e-06)">
                        <ellipse cx="1164.03" cy="778.244" rx="7.749" ry="6.951" style="fill:rgb(211,211,211);"/>
                    </g>
                    <g transform="matrix(1,0,0,1,337.98,-0.227917)">
                        <ellipse cx="1164.03" cy="778.244" rx="7.749" ry="6.951" style="fill:rgb(211,211,211);"/>
                    </g>
                    <g transform="matrix(1,0,0,1,373.077,-0.227917)">
                        <ellipse cx="1164.03" cy="778.244" rx="7.749" ry="6.951" style="fill:rgb(211,211,211);"/>
                    </g>
                    <g transform="matrix(1,0,0,1,456.718,-1.73876e-05)">
                        <ellipse cx="1164.03" cy="778.244" rx="7.749" ry="6.951" style="fill:rgb(211,211,211);"/>
                    </g>
                    <g transform="matrix(1,0,0,1,492.043,-0.227926)">
                        <ellipse cx="1164.03" cy="778.244" rx="7.749" ry="6.951" style="fill:rgb(211,211,211);"/>
                    </g>
                    <g transform="matrix(1,0,0,1,527.14,0.227882)">
                        <ellipse cx="1164.03" cy="778.244" rx="7.749" ry="6.951" style="fill:rgb(211,211,211);"/>
                    </g>
                </g>
                <g transform="matrix(1.32484,-4.08248e-33,3.28148e-32,0.784995,-462.171,173.62)">
                    <path d="M1423.62,726.52C1448.1,726.52 1467.96,745.645 1467.96,769.186C1467.96,792.728 1448.1,811.853 1423.62,811.853C1399.14,811.853 1379.28,792.728 1379.28,769.186C1379.28,745.645 1399.14,726.52 1423.62,726.52ZM1423.62,727.836C1399.88,727.836 1380.6,746.358 1380.6,769.186C1380.6,792.015 1399.88,810.537 1423.62,810.537C1447.36,810.537 1466.64,792.015 1466.64,769.186C1466.64,746.358 1447.36,727.836 1423.62,727.836Z"/>
                </g>
            </g>
        </g>
        <g transform="matrix(1,0,0,1,-1272.34,-206.621)">
            <path d="M1811.63,801.314C1867,783.262 1917.32,783.205 1964.79,800.403" style="fill:none;stroke:rgb(211,211,211);stroke-width:9.69px;stroke-linejoin:miter;"/>
        </g>
        <g transform="matrix(1,0,0,1,-1272.34,-206.621)">
            <path d="M1803.89,798.579C1801.01,737.084 1824.61,700.999 1882.51,697.846C1886.14,694.642 1890.13,694.974 1894.36,697.846C1950.68,704.771 1977.45,736.806 1972.99,795.389C1972.23,798.769 1970.48,800.669 1967.29,800.403C1921.14,782.629 1868.65,781.864 1809.13,799.947C1804.95,801.01 1803.2,800.555 1803.89,798.579Z"/>
        </g>
        <g transform="matrix(1,0,0,1,-1272.34,-206.621)">
            <path d="M1813.46,815.9C1801.72,819.537 1802.9,805.662 1812.55,801.77C1855.89,784.279 1926.53,780.411 1967.07,803.365C1976.08,808.47 1972.18,819.151 1961.37,815.216C1904.08,794.37 1874.46,796.996 1813.46,815.9Z"/>
        </g>
        <g transform="matrix(1,0,0,1,-1272.34,-206.621)">
            <g transform="matrix(1,0,0,1,0,-23.7305)">
                <g transform="matrix(0.954738,-0.297447,0.297447,0.954738,1831.69,785.963)">
                    <text x="0px" y="0px" style="font-family:'OldEnglishFive', 'Old English Five';font-size:24px;fill:white;">C</text>
                </g>
                <g transform="matrix(0.979473,-0.201578,0.201578,0.979473,1852.28,779.696)">
                    <text x="0px" y="0px" style="font-family:'OldEnglishFive', 'Old English Five';font-size:24px;fill:white;">o</text>
                </g>
                <g transform="matrix(0.996727,-0.0808352,0.0808352,0.996727,1865.86,776.626)">
                    <text x="0px" y="0px" style="font-family:'OldEnglishFive', 'Old English Five';font-size:24px;fill:white;">m</text>
                </g>
                <g transform="matrix(0.999063,0.0432883,-0.0432883,0.999063,1888.4,775.052)">
                    <text x="0px" y="0px" style="font-family:'OldEnglishFive', 'Old English Five';font-size:24px;fill:white;">p</text>
                </g>
                <g transform="matrix(0.990951,0.134224,-0.134224,0.990951,1903.41,775.829)">
                    <text x="0px" y="0px" style="font-family:'OldEnglishFive', 'Old English Five';font-size:24px;fill:white;">t</text>
                </g>
                <g transform="matrix(0.978911,0.204286,-0.204286,0.978911,1912.53,776.966)">
                    <text x="0px" y="0px" style="font-family:'OldEnglishFive', 'Old English Five';font-size:24px;fill:white;">o</text>
                </g>
                <g transform="matrix(0.95409,0.299519,-0.299519,0.95409,1926.15,779.774)">
                    <text x="0px" y="0px" style="font-family:'OldEnglishFive', 'Old English Five';font-size:24px;fill:white;">n</text>
                </g>
            </g>
        </g>
        <g transform="matrix(1,0,0,1,-1272.34,-206.621)">
            <g transform="matrix(1,0,0,1,11.9539,10.8673)">
                <path d="M1375.94,1113.36L1375.94,1120.01L1370.82,1120.01L1370.82,1146.57L1362.18,1146.57L1362.18,1120.01L1357.08,1120.01L1357.08,1113.36L1375.94,1113.36Z" style="fill-rule:nonzero;"/>
                <path d="M1385.95,1113.36L1385.95,1120.83C1386.66,1120.18 1387.43,1119.68 1388.26,1119.35C1389.09,1119.02 1389.97,1118.86 1390.91,1118.86C1392.36,1118.86 1393.6,1119.23 1394.62,1119.97C1395.63,1120.71 1396.26,1121.56 1396.48,1122.52C1396.71,1123.48 1396.82,1125.25 1396.82,1127.8L1396.82,1146.57L1388.54,1146.57L1388.54,1127.41C1388.54,1125.83 1388.46,1124.81 1388.3,1124.36C1388.14,1123.9 1387.79,1123.68 1387.24,1123.68C1386.74,1123.68 1386.39,1123.91 1386.22,1124.38C1386.04,1124.84 1385.95,1125.76 1385.95,1127.14L1385.95,1146.57L1377.67,1146.57L1377.67,1113.36L1385.95,1113.36Z" style="fill-rule:nonzero;"/>
                <path d="M1418.43,1133.44L1407.71,1133.44L1407.71,1139.33C1407.71,1140.56 1407.8,1141.35 1407.98,1141.71C1408.15,1142.06 1408.5,1142.24 1409,1142.24C1409.63,1142.24 1410.05,1142 1410.26,1141.53C1410.48,1141.06 1410.58,1140.15 1410.58,1138.79L1410.58,1135.2L1418.43,1135.2L1418.43,1137.21C1418.43,1138.9 1418.33,1140.19 1418.12,1141.09C1417.9,1141.99 1417.41,1142.96 1416.63,1143.98C1415.85,1145.01 1414.86,1145.78 1413.67,1146.29C1412.47,1146.8 1410.97,1147.06 1409.17,1147.06C1407.42,1147.06 1405.87,1146.81 1404.53,1146.3C1403.19,1145.79 1402.15,1145.1 1401.4,1144.22C1400.66,1143.34 1400.14,1142.37 1399.86,1141.31C1399.57,1140.25 1399.42,1138.7 1399.42,1136.68L1399.42,1128.75C1399.42,1126.37 1399.75,1124.49 1400.39,1123.12C1401.03,1121.74 1402.08,1120.69 1403.55,1119.96C1405.01,1119.23 1406.69,1118.86 1408.59,1118.86C1410.92,1118.86 1412.83,1119.3 1414.34,1120.18C1415.86,1121.06 1416.91,1122.23 1417.52,1123.69C1418.13,1125.15 1418.43,1127.19 1418.43,1129.83L1418.43,1133.44ZM1410.13,1129.01L1410.13,1127.02C1410.13,1125.61 1410.05,1124.7 1409.9,1124.29C1409.75,1123.88 1409.45,1123.68 1408.98,1123.68C1408.41,1123.68 1408.05,1123.85 1407.91,1124.2C1407.78,1124.55 1407.71,1125.49 1407.71,1127.02L1407.71,1129.01L1410.13,1129.01Z" style="fill-rule:nonzero;"/>
                <path d="M1461.3,1113.36L1457.45,1146.57L1446.67,1146.57C1445.69,1141.46 1444.82,1135.66 1444.06,1129.15C1443.71,1131.94 1442.91,1137.75 1441.65,1146.57L1430.93,1146.57L1427.07,1113.36L1435.46,1113.36L1436.37,1124.95L1437.25,1136.15C1437.57,1130.35 1438.37,1122.76 1439.64,1113.36L1448.6,1113.36C1448.72,1114.34 1449.04,1117.99 1449.55,1124.32L1450.5,1136.95C1450.99,1128.91 1451.79,1121.05 1452.91,1113.36L1461.3,1113.36Z" style="fill-rule:nonzero;"/>
                <path d="M1481.5,1128.91L1481.5,1135.57C1481.5,1138.02 1481.37,1139.82 1481.13,1140.96C1480.88,1142.1 1480.36,1143.16 1479.55,1144.16C1478.74,1145.15 1477.71,1145.88 1476.44,1146.35C1475.18,1146.82 1473.72,1147.06 1472.08,1147.06C1470.25,1147.06 1468.7,1146.86 1467.43,1146.45C1466.16,1146.05 1465.17,1145.44 1464.46,1144.63C1463.76,1143.81 1463.26,1142.83 1462.96,1141.67C1462.66,1140.52 1462.51,1138.79 1462.51,1136.48L1462.51,1129.5C1462.51,1126.97 1462.78,1125 1463.33,1123.58C1463.87,1122.15 1464.86,1121.01 1466.28,1120.15C1467.7,1119.29 1469.52,1118.86 1471.74,1118.86C1473.59,1118.86 1475.19,1119.14 1476.52,1119.69C1477.86,1120.24 1478.88,1120.96 1479.61,1121.85C1480.34,1122.74 1480.83,1123.66 1481.1,1124.6C1481.36,1125.55 1481.5,1126.98 1481.5,1128.91ZM1473.21,1126.86C1473.21,1125.46 1473.14,1124.59 1472.99,1124.22C1472.84,1123.86 1472.51,1123.68 1472.02,1123.68C1471.53,1123.68 1471.2,1123.86 1471.04,1124.22C1470.87,1124.59 1470.79,1125.46 1470.79,1126.86L1470.79,1139.14C1470.79,1140.43 1470.87,1141.27 1471.04,1141.65C1471.2,1142.04 1471.52,1142.24 1472,1142.24C1472.49,1142.24 1472.82,1142.06 1472.98,1141.71C1473.13,1141.35 1473.21,1140.58 1473.21,1139.41L1473.21,1126.86Z" style="fill-rule:nonzero;"/>
                <path d="M1492.51,1119.35L1492.18,1122.93C1493.38,1120.37 1495.13,1119.01 1497.41,1118.86L1497.41,1128.44C1495.89,1128.44 1494.78,1128.64 1494.07,1129.05C1493.36,1129.46 1492.92,1130.03 1492.76,1130.77C1492.59,1131.5 1492.51,1133.18 1492.51,1135.82L1492.51,1146.57L1484.22,1146.57L1484.22,1119.35L1492.51,1119.35Z" style="fill-rule:nonzero;"/>
                <rect x="1499.26" y="1113.36" width="8.531" height="33.202"/>
                <path d="M1529.61,1113.36L1529.61,1146.57L1521.32,1146.57L1521.32,1144.59C1520.53,1145.41 1519.7,1146.03 1518.82,1146.44C1517.95,1146.85 1517.03,1147.06 1516.07,1147.06C1514.79,1147.06 1513.67,1146.72 1512.73,1146.04C1511.79,1145.37 1511.18,1144.58 1510.91,1143.69C1510.65,1142.81 1510.52,1141.36 1510.52,1139.35L1510.52,1126.61C1510.52,1124.52 1510.65,1123.04 1510.91,1122.16C1511.18,1121.29 1511.79,1120.52 1512.75,1119.85C1513.71,1119.19 1514.85,1118.86 1516.17,1118.86C1517.2,1118.86 1518.14,1119.05 1519,1119.41C1519.85,1119.79 1520.63,1120.34 1521.32,1121.08L1521.32,1113.36L1529.61,1113.36ZM1521.32,1126.2C1521.32,1125.2 1521.24,1124.53 1521.07,1124.19C1520.9,1123.85 1520.56,1123.68 1520.05,1123.68C1519.56,1123.68 1519.23,1123.83 1519.06,1124.14C1518.89,1124.45 1518.8,1125.13 1518.8,1126.2L1518.8,1139.53C1518.8,1140.64 1518.88,1141.37 1519.05,1141.72C1519.21,1142.06 1519.53,1142.24 1519.99,1142.24C1520.52,1142.24 1520.88,1142.04 1521.06,1141.65C1521.23,1141.27 1521.32,1140.31 1521.32,1138.79L1521.32,1126.2Z" style="fill-rule:nonzero;"/>
                <path d="M1532.93,1124.05L1531.84,1118.45L1531.84,1113.36L1538.12,1113.36L1538.12,1118.45L1537.17,1124.05L1532.93,1124.05Z" style="fill-rule:nonzero;"/>
                <path d="M1557.27,1128.05L1549.93,1128.05L1549.93,1126.57C1549.93,1125.31 1549.86,1124.52 1549.72,1124.18C1549.57,1123.85 1549.21,1123.68 1548.64,1123.68C1548.17,1123.68 1547.83,1123.83 1547.59,1124.14C1547.36,1124.45 1547.25,1124.91 1547.25,1125.53C1547.25,1126.36 1547.3,1126.97 1547.42,1127.36C1547.54,1127.75 1547.88,1128.18 1548.47,1128.64C1549.05,1129.11 1550.24,1129.78 1552.04,1130.67C1554.45,1131.85 1556.03,1132.96 1556.78,1134C1557.53,1135.03 1557.91,1136.54 1557.91,1138.53C1557.91,1140.74 1557.62,1142.41 1557.05,1143.54C1556.47,1144.67 1555.51,1145.54 1554.17,1146.15C1552.82,1146.75 1551.2,1147.06 1549.3,1147.06C1547.19,1147.06 1545.39,1146.73 1543.89,1146.07C1542.39,1145.42 1541.37,1144.53 1540.81,1143.41C1540.25,1142.29 1539.96,1140.59 1539.96,1138.32L1539.96,1137.01L1547.31,1137.01L1547.31,1138.73C1547.31,1140.19 1547.4,1141.14 1547.58,1141.58C1547.77,1142.02 1548.13,1142.24 1548.68,1142.24C1549.27,1142.24 1549.68,1142.09 1549.91,1141.8C1550.14,1141.5 1550.26,1140.88 1550.26,1139.94C1550.26,1138.64 1550.11,1137.83 1549.81,1137.5C1549.49,1137.17 1547.89,1136.2 1544.99,1134.59C1542.56,1133.22 1541.07,1131.98 1540.54,1130.87C1540.01,1129.75 1539.74,1128.43 1539.74,1126.9C1539.74,1124.73 1540.03,1123.12 1540.6,1122.09C1541.17,1121.06 1542.15,1120.26 1543.52,1119.7C1544.9,1119.14 1546.49,1118.86 1548.31,1118.86C1550.12,1118.86 1551.65,1119.09 1552.91,1119.55C1554.18,1120.01 1555.15,1120.61 1555.83,1121.36C1556.5,1122.11 1556.91,1122.81 1557.06,1123.45C1557.2,1124.1 1557.27,1125.1 1557.27,1126.47L1557.27,1128.05Z" style="fill-rule:nonzero;"/>
                <path d="M1601.82,1113.36L1601.82,1146.57L1594.27,1146.57L1594.26,1124.15L1591.25,1146.57L1585.9,1146.57L1582.73,1124.66L1582.72,1146.57L1575.18,1146.57L1575.18,1113.36L1586.35,1113.36C1586.68,1115.36 1587.02,1117.71 1587.37,1120.42L1588.6,1128.87L1590.58,1113.36L1601.82,1113.36Z" style="fill-rule:nonzero;"/>
                <path d="M1623.78,1128.91L1623.78,1135.57C1623.78,1138.02 1623.66,1139.82 1623.41,1140.96C1623.16,1142.1 1622.64,1143.16 1621.83,1144.16C1621.03,1145.15 1619.99,1145.88 1618.73,1146.35C1617.46,1146.82 1616.01,1147.06 1614.37,1147.06C1612.54,1147.06 1610.98,1146.86 1609.71,1146.45C1608.44,1146.05 1607.45,1145.44 1606.75,1144.63C1606.04,1143.81 1605.54,1142.83 1605.24,1141.67C1604.94,1140.52 1604.79,1138.79 1604.79,1136.48L1604.79,1129.5C1604.79,1126.97 1605.06,1125 1605.61,1123.58C1606.16,1122.15 1607.14,1121.01 1608.56,1120.15C1609.99,1119.29 1611.8,1118.86 1614.02,1118.86C1615.88,1118.86 1617.47,1119.14 1618.81,1119.69C1620.14,1120.24 1621.17,1120.96 1621.89,1121.85C1622.62,1122.74 1623.11,1123.66 1623.38,1124.6C1623.65,1125.55 1623.78,1126.98 1623.78,1128.91ZM1615.5,1126.86C1615.5,1125.46 1615.42,1124.59 1615.27,1124.22C1615.12,1123.86 1614.8,1123.68 1614.31,1123.68C1613.81,1123.68 1613.49,1123.86 1613.32,1124.22C1613.16,1124.59 1613.08,1125.46 1613.08,1126.86L1613.08,1139.14C1613.08,1140.43 1613.16,1141.27 1613.32,1141.65C1613.49,1142.04 1613.81,1142.24 1614.29,1142.24C1614.78,1142.24 1615.1,1142.06 1615.26,1141.71C1615.42,1141.35 1615.5,1140.58 1615.5,1139.41L1615.5,1126.86Z" style="fill-rule:nonzero;"/>
                <path d="M1643.43,1128.05L1636.09,1128.05L1636.09,1126.57C1636.09,1125.31 1636.01,1124.52 1635.87,1124.18C1635.73,1123.85 1635.37,1123.68 1634.79,1123.68C1634.33,1123.68 1633.98,1123.83 1633.75,1124.14C1633.51,1124.45 1633.4,1124.91 1633.4,1125.53C1633.4,1126.36 1633.46,1126.97 1633.57,1127.36C1633.69,1127.75 1634.04,1128.18 1634.62,1128.64C1635.2,1129.11 1636.39,1129.78 1638.2,1130.67C1640.6,1131.85 1642.18,1132.96 1642.93,1134C1643.69,1135.03 1644.06,1136.54 1644.06,1138.53C1644.06,1140.74 1643.78,1142.41 1643.2,1143.54C1642.63,1144.67 1641.67,1145.54 1640.32,1146.15C1638.97,1146.75 1637.35,1147.06 1635.45,1147.06C1633.34,1147.06 1631.54,1146.73 1630.05,1146.07C1628.55,1145.42 1627.52,1144.53 1626.96,1143.41C1626.4,1142.29 1626.12,1140.59 1626.12,1138.32L1626.12,1137.01L1633.46,1137.01L1633.46,1138.73C1633.46,1140.19 1633.55,1141.14 1633.74,1141.58C1633.92,1142.02 1634.29,1142.24 1634.83,1142.24C1635.42,1142.24 1635.83,1142.09 1636.06,1141.8C1636.3,1141.5 1636.41,1140.88 1636.41,1139.94C1636.41,1138.64 1636.26,1137.83 1635.96,1137.5C1635.65,1137.17 1634.04,1136.2 1631.14,1134.59C1628.71,1133.22 1627.23,1131.98 1626.69,1130.87C1626.16,1129.75 1625.89,1128.43 1625.89,1126.9C1625.89,1124.73 1626.18,1123.12 1626.75,1122.09C1627.33,1121.06 1628.3,1120.26 1629.68,1119.7C1631.05,1119.14 1632.65,1118.86 1634.46,1118.86C1636.27,1118.86 1637.8,1119.09 1639.07,1119.55C1640.33,1120.01 1641.3,1120.61 1641.98,1121.36C1642.66,1122.11 1643.07,1122.81 1643.21,1123.45C1643.36,1124.1 1643.43,1125.1 1643.43,1126.47L1643.43,1128.05Z" style="fill-rule:nonzero;"/>
                <path d="M1655.01,1115.72L1655.01,1120.01L1657.25,1120.01L1657.25,1124.32L1655.01,1124.32L1655.01,1138.88C1655.01,1140.67 1655.11,1141.66 1655.29,1141.87C1655.48,1142.08 1656.24,1142.18 1657.6,1142.18L1657.6,1146.57L1654.25,1146.57C1652.37,1146.57 1651.02,1146.49 1650.21,1146.33C1649.41,1146.17 1648.7,1145.81 1648.08,1145.24C1647.47,1144.68 1647.08,1144.03 1646.93,1143.3C1646.78,1142.56 1646.71,1140.84 1646.71,1138.14L1646.71,1124.32L1644.92,1124.32L1644.92,1120.01L1646.71,1120.01L1646.71,1115.72L1655.01,1115.72Z" style="fill-rule:nonzero;"/>
                <path d="M1674.13,1113.36L1680.59,1113.36C1684.76,1113.36 1687.58,1113.56 1689.05,1113.94C1690.52,1114.32 1691.63,1114.95 1692.4,1115.83C1693.16,1116.7 1693.64,1117.67 1693.84,1118.75C1694.03,1119.82 1694.12,1121.93 1694.12,1125.07L1694.12,1136.7C1694.12,1139.68 1693.98,1141.67 1693.7,1142.68C1693.42,1143.68 1692.93,1144.47 1692.24,1145.04C1691.54,1145.61 1690.68,1146 1689.65,1146.23C1688.63,1146.45 1687.08,1146.57 1685.02,1146.57L1674.13,1146.57L1674.13,1113.36ZM1682.76,1119.04L1682.76,1140.88C1684,1140.88 1684.77,1140.64 1685.06,1140.14C1685.34,1139.64 1685.49,1138.28 1685.49,1136.07L1685.49,1123.17C1685.49,1121.66 1685.44,1120.7 1685.34,1120.28C1685.25,1119.85 1685.03,1119.54 1684.69,1119.34C1684.35,1119.14 1683.7,1119.04 1682.76,1119.04Z" style="fill-rule:nonzero;"/>
                <path d="M1704.5,1129.89L1696.73,1129.89L1696.73,1128.07C1696.73,1125.96 1696.97,1124.34 1697.45,1123.2C1697.94,1122.06 1698.91,1121.05 1700.38,1120.17C1701.84,1119.3 1703.74,1118.86 1706.08,1118.86C1708.88,1118.86 1710.99,1119.36 1712.41,1120.35C1713.84,1121.34 1714.69,1122.56 1714.98,1124C1715.27,1125.44 1715.41,1128.41 1715.41,1132.91L1715.41,1146.57L1707.35,1146.57L1707.35,1144.14C1706.84,1145.11 1706.19,1145.84 1705.39,1146.33C1704.59,1146.82 1703.64,1147.06 1702.53,1147.06C1701.08,1147.06 1699.75,1146.65 1698.54,1145.84C1697.33,1145.02 1696.73,1143.24 1696.73,1140.5L1696.73,1138.26C1696.73,1136.22 1697.05,1134.84 1697.69,1134.1C1698.33,1133.36 1699.92,1132.5 1702.47,1131.51C1705.19,1130.45 1706.64,1129.73 1706.84,1129.36C1707.03,1128.99 1707.12,1128.24 1707.12,1127.1C1707.12,1125.68 1707.02,1124.76 1706.81,1124.33C1706.59,1123.89 1706.24,1123.68 1705.75,1123.68C1705.19,1123.68 1704.84,1123.86 1704.7,1124.22C1704.57,1124.59 1704.5,1125.53 1704.5,1127.04L1704.5,1129.89ZM1707.12,1133.62C1705.8,1134.6 1705.03,1135.41 1704.82,1136.07C1704.61,1136.72 1704.5,1137.67 1704.5,1138.9C1704.5,1140.3 1704.59,1141.21 1704.78,1141.62C1704.96,1142.03 1705.33,1142.24 1705.87,1142.24C1706.39,1142.24 1706.73,1142.08 1706.89,1141.76C1707.05,1141.44 1707.12,1140.59 1707.12,1139.22L1707.12,1133.62Z" style="fill-rule:nonzero;"/>
                <path d="M1726.69,1119.35L1726.54,1121.86C1727.15,1120.86 1727.88,1120.11 1728.75,1119.61C1729.62,1119.11 1730.62,1118.86 1731.75,1118.86C1733.17,1118.86 1734.34,1119.19 1735.24,1119.87C1736.14,1120.54 1736.72,1121.38 1736.98,1122.4C1737.24,1123.42 1737.37,1125.12 1737.37,1127.49L1737.37,1146.57L1729.09,1146.57L1729.09,1127.72C1729.09,1125.85 1729.03,1124.7 1728.9,1124.29C1728.78,1123.88 1728.44,1123.68 1727.88,1123.68C1727.29,1123.68 1726.92,1123.91 1726.77,1124.39C1726.62,1124.86 1726.54,1126.12 1726.54,1128.17L1726.54,1146.57L1718.26,1146.57L1718.26,1119.35L1726.69,1119.35Z" style="fill-rule:nonzero;"/>
                <path d="M1759.05,1119.35L1759.05,1140.31C1759.05,1143.14 1758.98,1144.97 1758.86,1145.8C1758.73,1146.62 1758.26,1147.5 1757.47,1148.42C1756.68,1149.35 1755.57,1150.05 1754.16,1150.53C1752.74,1151.02 1750.96,1151.26 1748.82,1151.26C1746.18,1151.26 1744.06,1150.81 1742.46,1149.92C1740.86,1149.02 1740.03,1147.26 1739.98,1144.64L1748.02,1144.64C1748.02,1145.84 1748.45,1146.44 1749.33,1146.44C1749.96,1146.44 1750.38,1146.26 1750.58,1145.89C1750.79,1145.52 1750.89,1144.75 1750.89,1143.57L1750.89,1141.52C1750.18,1142.16 1749.43,1142.65 1748.64,1142.98C1747.86,1143.31 1747.03,1143.47 1746.17,1143.47C1744.68,1143.47 1743.45,1143.17 1742.49,1142.57C1741.53,1141.96 1740.87,1141.18 1740.51,1140.2C1740.15,1139.22 1739.98,1137.83 1739.98,1136.03L1739.98,1126.14C1739.98,1123.56 1740.44,1121.7 1741.37,1120.56C1742.3,1119.43 1743.72,1118.86 1745.62,1118.86C1746.66,1118.86 1747.6,1119.07 1748.46,1119.5C1749.31,1119.92 1750.07,1120.56 1750.74,1121.41L1751.34,1119.35L1759.05,1119.35ZM1750.74,1126.57C1750.74,1125.33 1750.67,1124.53 1750.53,1124.19C1750.38,1123.85 1750.07,1123.68 1749.58,1123.68C1749.1,1123.68 1748.76,1123.87 1748.56,1124.26C1748.36,1124.65 1748.26,1125.42 1748.26,1126.57L1748.26,1135.72C1748.26,1136.93 1748.34,1137.72 1748.49,1138.09C1748.64,1138.45 1748.95,1138.63 1749.43,1138.63C1749.98,1138.63 1750.33,1138.41 1750.5,1137.97C1750.66,1137.54 1750.74,1136.54 1750.74,1135L1750.74,1126.57Z" style="fill-rule:nonzero;"/>
                <path d="M1780.77,1133.44L1770.04,1133.44L1770.04,1139.33C1770.04,1140.56 1770.13,1141.35 1770.31,1141.71C1770.49,1142.06 1770.83,1142.24 1771.33,1142.24C1771.96,1142.24 1772.38,1142 1772.6,1141.53C1772.81,1141.06 1772.91,1140.15 1772.91,1138.79L1772.91,1135.2L1780.77,1135.2L1780.77,1137.21C1780.77,1138.9 1780.66,1140.19 1780.45,1141.09C1780.24,1141.99 1779.74,1142.96 1778.96,1143.98C1778.18,1145.01 1777.19,1145.78 1776,1146.29C1774.8,1146.8 1773.3,1147.06 1771.5,1147.06C1769.75,1147.06 1768.2,1146.81 1766.86,1146.3C1765.52,1145.79 1764.48,1145.1 1763.74,1144.22C1762.99,1143.34 1762.47,1142.37 1762.19,1141.31C1761.9,1140.25 1761.76,1138.7 1761.76,1136.68L1761.76,1128.75C1761.76,1126.37 1762.08,1124.49 1762.72,1123.12C1763.36,1121.74 1764.42,1120.69 1765.88,1119.96C1767.34,1119.23 1769.02,1118.86 1770.92,1118.86C1773.25,1118.86 1775.16,1119.3 1776.68,1120.18C1778.19,1121.06 1779.25,1122.23 1779.86,1123.69C1780.46,1125.15 1780.77,1127.19 1780.77,1129.83L1780.77,1133.44ZM1772.46,1129.01L1772.46,1127.02C1772.46,1125.61 1772.39,1124.7 1772.24,1124.29C1772.09,1123.88 1771.78,1123.68 1771.31,1123.68C1770.74,1123.68 1770.38,1123.85 1770.25,1124.2C1770.11,1124.55 1770.04,1125.49 1770.04,1127.02L1770.04,1129.01L1772.46,1129.01Z" style="fill-rule:nonzero;"/>
                <path d="M1791.76,1119.35L1791.43,1122.93C1792.63,1120.37 1794.38,1119.01 1796.66,1118.86L1796.66,1128.44C1795.14,1128.44 1794.03,1128.64 1793.32,1129.05C1792.61,1129.46 1792.17,1130.03 1792.01,1130.77C1791.84,1131.5 1791.76,1133.18 1791.76,1135.82L1791.76,1146.57L1783.47,1146.57L1783.47,1119.35L1791.76,1119.35Z" style="fill-rule:nonzero;"/>
                <path d="M1817.25,1128.91L1817.25,1135.57C1817.25,1138.02 1817.13,1139.82 1816.88,1140.96C1816.63,1142.1 1816.11,1143.16 1815.3,1144.16C1814.5,1145.15 1813.46,1145.88 1812.19,1146.35C1810.93,1146.82 1809.48,1147.06 1807.84,1147.06C1806.01,1147.06 1804.45,1146.86 1803.18,1146.45C1801.91,1146.05 1800.92,1145.44 1800.22,1144.63C1799.52,1143.81 1799.01,1142.83 1798.71,1141.67C1798.41,1140.52 1798.26,1138.79 1798.26,1136.48L1798.26,1129.5C1798.26,1126.97 1798.53,1125 1799.08,1123.58C1799.63,1122.15 1800.61,1121.01 1802.03,1120.15C1803.46,1119.29 1805.27,1118.86 1807.49,1118.86C1809.35,1118.86 1810.94,1119.14 1812.28,1119.69C1813.61,1120.24 1814.64,1120.96 1815.36,1121.85C1816.09,1122.74 1816.58,1123.66 1816.85,1124.6C1817.12,1125.55 1817.25,1126.98 1817.25,1128.91ZM1808.97,1126.86C1808.97,1125.46 1808.89,1124.59 1808.74,1124.22C1808.59,1123.86 1808.27,1123.68 1807.78,1123.68C1807.28,1123.68 1806.96,1123.86 1806.79,1124.22C1806.63,1124.59 1806.55,1125.46 1806.55,1126.86L1806.55,1139.14C1806.55,1140.43 1806.63,1141.27 1806.79,1141.65C1806.96,1142.04 1807.28,1142.24 1807.76,1142.24C1808.25,1142.24 1808.57,1142.06 1808.73,1141.71C1808.89,1141.35 1808.97,1140.58 1808.97,1139.41L1808.97,1126.86Z" style="fill-rule:nonzero;"/>
                <path d="M1838.95,1119.35L1838.95,1146.57L1830.52,1146.57L1830.66,1144.31C1830.09,1145.22 1829.38,1145.91 1828.54,1146.37C1827.7,1146.83 1826.73,1147.06 1825.64,1147.06C1824.39,1147.06 1823.36,1146.84 1822.54,1146.4C1821.72,1145.96 1821.12,1145.38 1820.73,1144.66C1820.34,1143.93 1820.09,1143.18 1820,1142.39C1819.9,1141.61 1819.86,1140.04 1819.86,1137.71L1819.86,1119.35L1828.14,1119.35L1828.14,1137.87C1828.14,1139.99 1828.2,1141.25 1828.34,1141.64C1828.47,1142.04 1828.82,1142.24 1829.39,1142.24C1830.01,1142.24 1830.37,1142.03 1830.49,1141.62C1830.61,1141.21 1830.66,1139.89 1830.66,1137.67L1830.66,1119.35L1838.95,1119.35Z" style="fill-rule:nonzero;"/>
                <path d="M1858.84,1128.05L1851.5,1128.05L1851.5,1126.57C1851.5,1125.31 1851.43,1124.52 1851.28,1124.18C1851.14,1123.85 1850.78,1123.68 1850.21,1123.68C1849.74,1123.68 1849.39,1123.83 1849.16,1124.14C1848.93,1124.45 1848.81,1124.91 1848.81,1125.53C1848.81,1126.36 1848.87,1126.97 1848.99,1127.36C1849.1,1127.75 1849.45,1128.18 1850.03,1128.64C1850.61,1129.11 1851.81,1129.78 1853.61,1130.67C1856.02,1131.85 1857.6,1132.96 1858.35,1134C1859.1,1135.03 1859.48,1136.54 1859.48,1138.53C1859.48,1140.74 1859.19,1142.41 1858.62,1143.54C1858.04,1144.67 1857.08,1145.54 1855.73,1146.15C1854.39,1146.75 1852.76,1147.06 1850.86,1147.06C1848.76,1147.06 1846.96,1146.73 1845.46,1146.07C1843.96,1145.42 1842.93,1144.53 1842.37,1143.41C1841.81,1142.29 1841.53,1140.59 1841.53,1138.32L1841.53,1137.01L1848.87,1137.01L1848.87,1138.73C1848.87,1140.19 1848.97,1141.14 1849.15,1141.58C1849.34,1142.02 1849.7,1142.24 1850.25,1142.24C1850.84,1142.24 1851.25,1142.09 1851.48,1141.8C1851.71,1141.5 1851.83,1140.88 1851.83,1139.94C1851.83,1138.64 1851.68,1137.83 1851.38,1137.5C1851.06,1137.17 1849.45,1136.2 1846.56,1134.59C1844.12,1133.22 1842.64,1131.98 1842.11,1130.87C1841.57,1129.75 1841.31,1128.43 1841.31,1126.9C1841.31,1124.73 1841.59,1123.12 1842.17,1122.09C1842.74,1121.06 1843.72,1120.26 1845.09,1119.7C1846.46,1119.14 1848.06,1118.86 1849.88,1118.86C1851.68,1118.86 1853.22,1119.09 1854.48,1119.55C1855.75,1120.01 1856.72,1120.61 1857.39,1121.36C1858.07,1122.11 1858.48,1122.81 1858.62,1123.45C1858.77,1124.1 1858.84,1125.1 1858.84,1126.47L1858.84,1128.05Z" style="fill-rule:nonzero;"/>
                <path d="M1903.38,1113.36L1903.38,1146.57L1895.84,1146.57L1895.83,1124.15L1892.82,1146.57L1887.47,1146.57L1884.3,1124.66L1884.29,1146.57L1876.74,1146.57L1876.74,1113.36L1887.91,1113.36C1888.25,1115.36 1888.59,1117.71 1888.94,1120.42L1890.17,1128.87L1892.15,1113.36L1903.38,1113.36Z" style="fill-rule:nonzero;"/>
                <path d="M1925.37,1133.44L1914.64,1133.44L1914.64,1139.33C1914.64,1140.56 1914.73,1141.35 1914.91,1141.71C1915.09,1142.06 1915.43,1142.24 1915.93,1142.24C1916.56,1142.24 1916.98,1142 1917.19,1141.53C1917.41,1141.06 1917.51,1140.15 1917.51,1138.79L1917.51,1135.2L1925.37,1135.2L1925.37,1137.21C1925.37,1138.9 1925.26,1140.19 1925.05,1141.09C1924.84,1141.99 1924.34,1142.96 1923.56,1143.98C1922.78,1145.01 1921.8,1145.78 1920.6,1146.29C1919.4,1146.8 1917.9,1147.06 1916.1,1147.06C1914.35,1147.06 1912.8,1146.81 1911.46,1146.3C1910.12,1145.79 1909.08,1145.1 1908.34,1144.22C1907.59,1143.34 1907.08,1142.37 1906.79,1141.31C1906.5,1140.25 1906.36,1138.7 1906.36,1136.68L1906.36,1128.75C1906.36,1126.37 1906.68,1124.49 1907.32,1123.12C1907.96,1121.74 1909.02,1120.69 1910.48,1119.96C1911.94,1119.23 1913.62,1118.86 1915.52,1118.86C1917.85,1118.86 1919.77,1119.3 1921.28,1120.18C1922.79,1121.06 1923.85,1122.23 1924.45,1123.69C1925.06,1125.15 1925.37,1127.19 1925.37,1129.83L1925.37,1133.44ZM1917.06,1129.01L1917.06,1127.02C1917.06,1125.61 1916.99,1124.7 1916.84,1124.29C1916.69,1123.88 1916.38,1123.68 1915.91,1123.68C1915.34,1123.68 1914.98,1123.85 1914.85,1124.2C1914.71,1124.55 1914.64,1125.49 1914.64,1127.02L1914.64,1129.01L1917.06,1129.01Z" style="fill-rule:nonzero;"/>
                <path d="M1936.26,1119.35L1936.11,1121.94C1936.76,1120.91 1937.52,1120.14 1938.41,1119.63C1939.3,1119.12 1940.31,1118.86 1941.45,1118.86C1943.66,1118.86 1945.4,1119.89 1946.67,1121.94C1947.37,1120.91 1948.16,1120.14 1949.03,1119.63C1949.91,1119.12 1950.88,1118.86 1951.95,1118.86C1953.35,1118.86 1954.52,1119.2 1955.44,1119.88C1956.37,1120.57 1956.96,1121.41 1957.22,1122.4C1957.48,1123.39 1957.61,1125 1957.61,1127.23L1957.61,1146.57L1949.57,1146.57L1949.57,1128.83C1949.57,1126.5 1949.49,1125.06 1949.33,1124.51C1949.17,1123.96 1948.81,1123.68 1948.23,1123.68C1947.65,1123.68 1947.27,1123.95 1947.1,1124.5C1946.92,1125.05 1946.84,1126.49 1946.84,1128.83L1946.84,1146.57L1938.8,1146.57L1938.8,1129.28C1938.8,1126.61 1938.74,1125.01 1938.61,1124.48C1938.48,1123.95 1938.12,1123.68 1937.53,1123.68C1937.16,1123.68 1936.85,1123.82 1936.59,1124.1C1936.33,1124.38 1936.18,1124.72 1936.15,1125.12C1936.13,1125.53 1936.11,1126.39 1936.11,1127.7L1936.11,1146.57L1928.08,1146.57L1928.08,1119.35L1936.26,1119.35Z" style="fill-rule:nonzero;"/>
                <path d="M1979.22,1133.44L1968.5,1133.44L1968.5,1139.33C1968.5,1140.56 1968.59,1141.35 1968.76,1141.71C1968.94,1142.06 1969.28,1142.24 1969.79,1142.24C1970.42,1142.24 1970.84,1142 1971.05,1141.53C1971.26,1141.06 1971.37,1140.15 1971.37,1138.79L1971.37,1135.2L1979.22,1135.2L1979.22,1137.21C1979.22,1138.9 1979.12,1140.19 1978.9,1141.09C1978.69,1141.99 1978.2,1142.96 1977.42,1143.98C1976.64,1145.01 1975.65,1145.78 1974.45,1146.29C1973.26,1146.8 1971.76,1147.06 1969.95,1147.06C1968.2,1147.06 1966.66,1146.81 1965.32,1146.3C1963.98,1145.79 1962.93,1145.1 1962.19,1144.22C1961.44,1143.34 1960.93,1142.37 1960.64,1141.31C1960.35,1140.25 1960.21,1138.7 1960.21,1136.68L1960.21,1128.75C1960.21,1126.37 1960.53,1124.49 1961.17,1123.12C1961.82,1121.74 1962.87,1120.69 1964.33,1119.96C1965.8,1119.23 1967.48,1118.86 1969.38,1118.86C1971.7,1118.86 1973.62,1119.3 1975.13,1120.18C1976.64,1121.06 1977.7,1122.23 1978.31,1123.69C1978.92,1125.15 1979.22,1127.19 1979.22,1129.83L1979.22,1133.44ZM1970.92,1129.01L1970.92,1127.02C1970.92,1125.61 1970.84,1124.7 1970.69,1124.29C1970.54,1123.88 1970.23,1123.68 1969.77,1123.68C1969.19,1123.68 1968.84,1123.85 1968.7,1124.2C1968.56,1124.55 1968.5,1125.49 1968.5,1127.02L1968.5,1129.01L1970.92,1129.01Z" style="fill-rule:nonzero;"/>
                <path d="M1996.98,1113.36L2003.09,1113.36C2007.17,1113.36 2009.92,1113.52 2011.37,1113.84C2012.81,1114.15 2013.99,1114.95 2014.89,1116.25C2015.8,1117.54 2016.26,1119.6 2016.26,1122.43C2016.26,1125.01 2015.94,1126.75 2015.29,1127.64C2014.65,1128.53 2013.39,1129.06 2011.5,1129.24C2013.21,1129.66 2014.36,1130.23 2014.95,1130.94C2015.53,1131.65 2015.9,1132.3 2016.04,1132.9C2016.19,1133.49 2016.26,1135.13 2016.26,1137.81L2016.26,1146.57L2008.24,1146.57L2008.24,1135.53C2008.24,1133.76 2008.1,1132.65 2007.82,1132.23C2007.54,1131.81 2006.8,1131.6 2005.62,1131.6L2005.62,1146.57L1996.98,1146.57L1996.98,1113.36ZM2005.62,1119.04L2005.62,1126.43C2006.59,1126.43 2007.27,1126.29 2007.65,1126.03C2008.05,1125.76 2008.24,1124.9 2008.24,1123.43L2008.24,1121.61C2008.24,1120.56 2008.05,1119.87 2007.68,1119.54C2007.3,1119.21 2006.61,1119.04 2005.62,1119.04Z" style="fill-rule:nonzero;"/>
                <path d="M2026.76,1129.89L2018.99,1129.89L2018.99,1128.07C2018.99,1125.96 2019.23,1124.34 2019.71,1123.2C2020.2,1122.06 2021.17,1121.05 2022.64,1120.17C2024.1,1119.3 2026,1118.86 2028.34,1118.86C2031.14,1118.86 2033.25,1119.36 2034.67,1120.35C2036.1,1121.34 2036.95,1122.56 2037.24,1124C2037.53,1125.44 2037.67,1128.41 2037.67,1132.91L2037.67,1146.57L2029.61,1146.57L2029.61,1144.14C2029.1,1145.11 2028.45,1145.84 2027.65,1146.33C2026.85,1146.82 2025.9,1147.06 2024.79,1147.06C2023.34,1147.06 2022.01,1146.65 2020.8,1145.84C2019.59,1145.02 2018.99,1143.24 2018.99,1140.5L2018.99,1138.26C2018.99,1136.22 2019.31,1134.84 2019.95,1134.1C2020.59,1133.36 2022.18,1132.5 2024.73,1131.51C2027.45,1130.45 2028.9,1129.73 2029.1,1129.36C2029.29,1128.99 2029.38,1128.24 2029.38,1127.1C2029.38,1125.68 2029.28,1124.76 2029.07,1124.33C2028.85,1123.89 2028.5,1123.68 2028.01,1123.68C2027.45,1123.68 2027.1,1123.86 2026.96,1124.22C2026.83,1124.59 2026.76,1125.53 2026.76,1127.04L2026.76,1129.89ZM2029.38,1133.62C2028.06,1134.6 2027.29,1135.41 2027.08,1136.07C2026.86,1136.72 2026.76,1137.67 2026.76,1138.9C2026.76,1140.3 2026.85,1141.21 2027.04,1141.62C2027.22,1142.03 2027.59,1142.24 2028.13,1142.24C2028.65,1142.24 2028.99,1142.08 2029.15,1141.76C2029.31,1141.44 2029.38,1140.59 2029.38,1139.22L2029.38,1133.62Z" style="fill-rule:nonzero;"/>
                <path d="M2048.95,1119.35L2048.8,1121.76C2049.54,1120.78 2050.36,1120.06 2051.24,1119.58C2052.13,1119.1 2053.1,1118.86 2054.16,1118.86C2055.44,1118.86 2056.55,1119.2 2057.49,1119.9C2058.43,1120.59 2059.01,1121.38 2059.24,1122.29C2059.47,1123.19 2059.59,1124.72 2059.59,1126.88L2059.59,1138.34C2059.59,1140.82 2059.44,1142.58 2059.15,1143.62C2058.86,1144.67 2058.26,1145.5 2057.35,1146.12C2056.44,1146.75 2055.34,1147.06 2054.05,1147.06C2053.03,1147.06 2052.08,1146.82 2051.2,1146.34C2050.33,1145.86 2049.53,1145.15 2048.8,1144.2L2048.8,1150.44L2040.52,1150.44L2040.52,1119.35L2048.95,1119.35ZM2051.31,1127.27C2051.31,1125.59 2051.24,1124.57 2051.12,1124.21C2051,1123.86 2050.66,1123.68 2050.1,1123.68C2049.55,1123.68 2049.2,1123.88 2049.04,1124.29C2048.88,1124.7 2048.8,1125.7 2048.8,1127.27L2048.8,1138.55C2048.8,1140.19 2048.89,1141.21 2049.05,1141.62C2049.21,1142.03 2049.57,1142.24 2050.12,1142.24C2050.65,1142.24 2050.98,1142.05 2051.11,1141.67C2051.24,1141.3 2051.31,1140.39 2051.31,1138.94L2051.31,1127.27Z" style="fill-rule:nonzero;"/>
                <path d="M2070.85,1113.36L2070.85,1117.69L2062.32,1117.69L2062.32,1113.36L2070.85,1113.36ZM2070.85,1119.35L2070.85,1146.57L2062.32,1146.57L2062.32,1119.35L2070.85,1119.35Z" style="fill-rule:nonzero;"/>
                <path d="M2090.74,1128.05L2083.4,1128.05L2083.4,1126.57C2083.4,1125.31 2083.33,1124.52 2083.19,1124.18C2083.04,1123.85 2082.68,1123.68 2082.11,1123.68C2081.64,1123.68 2081.3,1123.83 2081.06,1124.14C2080.83,1124.45 2080.71,1124.91 2080.71,1125.53C2080.71,1126.36 2080.77,1126.97 2080.89,1127.36C2081.01,1127.75 2081.35,1128.18 2081.93,1128.64C2082.52,1129.11 2083.71,1129.78 2085.51,1130.67C2087.92,1131.85 2089.5,1132.96 2090.25,1134C2091,1135.03 2091.38,1136.54 2091.38,1138.53C2091.38,1140.74 2091.09,1142.41 2090.52,1143.54C2089.94,1144.67 2088.98,1145.54 2087.64,1146.15C2086.29,1146.75 2084.67,1147.06 2082.76,1147.06C2080.66,1147.06 2078.86,1146.73 2077.36,1146.07C2075.86,1145.42 2074.84,1144.53 2074.28,1143.41C2073.71,1142.29 2073.43,1140.59 2073.43,1138.32L2073.43,1137.01L2080.78,1137.01L2080.78,1138.73C2080.78,1140.19 2080.87,1141.14 2081.05,1141.58C2081.24,1142.02 2081.6,1142.24 2082.15,1142.24C2082.74,1142.24 2083.15,1142.09 2083.38,1141.8C2083.61,1141.5 2083.73,1140.88 2083.73,1139.94C2083.73,1138.64 2083.58,1137.83 2083.28,1137.5C2082.96,1137.17 2081.36,1136.2 2078.46,1134.59C2076.03,1133.22 2074.54,1131.98 2074.01,1130.87C2073.47,1129.75 2073.21,1128.43 2073.21,1126.9C2073.21,1124.73 2073.5,1123.12 2074.07,1122.09C2074.64,1121.06 2075.62,1120.26 2076.99,1119.7C2078.37,1119.14 2079.96,1118.86 2081.78,1118.86C2083.59,1118.86 2085.12,1119.09 2086.39,1119.55C2087.65,1120.01 2088.62,1120.61 2089.3,1121.36C2089.97,1122.11 2090.38,1122.81 2090.53,1123.45C2090.67,1124.1 2090.74,1125.1 2090.74,1126.47L2090.74,1128.05Z" style="fill-rule:nonzero;"/>
                <path d="M2102.33,1115.72L2102.33,1120.01L2104.57,1120.01L2104.57,1124.32L2102.33,1124.32L2102.33,1138.88C2102.33,1140.67 2102.42,1141.66 2102.61,1141.87C2102.79,1142.08 2103.56,1142.18 2104.91,1142.18L2104.91,1146.57L2101.57,1146.57C2099.68,1146.57 2098.34,1146.49 2097.53,1146.33C2096.72,1146.17 2096.01,1145.81 2095.4,1145.24C2094.78,1144.68 2094.4,1144.03 2094.25,1143.3C2094.1,1142.56 2094.02,1140.84 2094.02,1138.14L2094.02,1124.32L2092.24,1124.32L2092.24,1120.01L2094.02,1120.01L2094.02,1115.72L2102.33,1115.72Z" style="fill-rule:nonzero;"/>
            </g>
        </g>
    </g>
</svg>
