<?xml version="1.0" encoding="UTF-8" standalone="no"?>
<!DOCTYPE svg PUBLIC "-//W3C//DTD SVG 1.1//EN" "http://www.w3.org/Graphics/SVG/1.1/DTD/svg11.dtd">
<svg width="100%" height="100%" viewBox="0 0 1776 1369" version="1.1" xmlns="http://www.w3.org/2000/svg" xmlns:xlink="http://www.w3.org/1999/xlink" xml:space="preserve" xmlns:serif="http://www.serif.com/" style="fill-rule:evenodd;clip-rule:evenodd;stroke-linecap:round;stroke-linejoin:round;stroke-miterlimit:1.5;">
    <g transform="matrix(1,0,0,1,-30.8865,-43.3483)">
        <g transform="matrix(1.00603,0,0,1,-324.919,-4.23904)">
            <rect x="357.649" y="51.587" width="1757.09" height="1354.38" style="fill:rgb(211,211,211);stroke:black;stroke-width:7.98px;"/>
        </g>
        <g transform="matrix(1.00603,0,0,1,-2.93973,0)">
            <g transform="matrix(1,0,0,1,-320.049,-4.23904)">
                <path d="M871.529,868.157L849.304,799.816L865.972,744.253L920.979,700.359L942.093,684.802L959.317,618.127L1058.77,638.685L1175.45,717.583C1580.86,746.879 1664.23,1065.58 1271.02,820.929L1189.9,794.259L1132.67,782.591L1067.11,784.258L1002.1,797.593L994.877,743.698L980.986,769.256L962.651,781.48L970.429,809.817L871.529,868.157Z" style="fill:rgb(137,84,47);"/>
            </g>
            <g transform="matrix(1,0,0,1,-320.049,-4.23904)">
                <path d="M1175.33,736.396C1263.22,767.342 1299.49,813.038 1323.96,862.105L1320.48,895.443L1298.95,910.722L1250.34,905.861L1189.91,898.221L1168.38,921.835L1167.69,952.394L1192,993.371L1300.34,1021.85L1346.88,1016.99L1399.66,987.815L1414.94,1014.9L1400.35,1128.46L1351.04,1207.63L1455.22,1227.78L1508.7,1210.41L1533.7,1129.15L1553.85,993.024L1525.37,863.842L1473.28,737.264L1441.33,684.479L1412.86,662.255L1175.33,736.396" style="fill:rgb(99,61,30);"/>
            </g>
            <g transform="matrix(1,0,0,1,-320.049,-4.23904)">
                <path d="M991.377,741.478L1000.06,796.172" style="fill:none;stroke:black;stroke-width:18.54px;"/>
            </g>
            <g transform="matrix(0.803207,-0.0685775,0.0685775,0.803207,-250.814,-31.6712)">
                <path d="M1495.4,1025.01C1419.03,1050.27 1343.36,1062.06 1267.94,1069.29L1215.85,1045.85L1081.29,1007.65C1053.8,991.086 1048.1,959.14 1037.88,930.385C1027.62,950.508 1018.77,968.714 1000.17,978.113L975.373,904.341L921.547,900.868C949.4,879.86 966.485,852.122 975.373,819.261L1010.97,691.642L1038.05,590.554L1059.58,531.033L1031.8,477.859L1018.78,423.165L1028.33,370.207L1057.85,336.349L1093.44,319.854L1145.53,323.327L1182.86,346.767C1201.65,351.248 1214.68,365.309 1222.8,387.57C1234.82,391.178 1257.3,384.318 1280.1,377.153L1366.91,378.672C1402.2,382.16 1435.19,388.722 1459.8,406.453L1478.9,394.299C1483.82,369.722 1504.39,355.982 1524.92,342.209C1546.04,323.434 1567.17,317.077 1588.29,319.637L1646.46,331.791C1671.2,341.975 1686.37,357.269 1693.34,376.936C1712.62,404.63 1712.86,424.163 1707.23,441.179C1712.64,457.998 1712.2,476.046 1695.07,497.609L1657.74,556.644L1656.01,576.611L1674.24,636.514L1680.32,704.231L1685.53,793L1695.94,863.32L1716.49,934.195L1737.61,974.444L1679.45,947.531L1689.21,992.606L1695.94,1041.29C1696.64,1051.06 1690.35,1049.19 1677.71,1036.73L1645.59,1015.9L1656.01,1064.52L1596.1,1022.84L1577.01,1078.41L1544.02,1022.84L1517.1,1054.1L1495.4,1025.01Z" style="fill:rgb(99,61,30);"/>
                <path d="M1081.72,1005.26C1056.67,988.044 1048.23,956.291 1041.79,922.789L1005.32,976.615C989.271,967.56 982.131,939.308 978.411,903.689L922.849,908.03L953.235,868.095L990.565,751.762L1005.32,678.837L1029.63,605.044L1057.41,537.327L1093.92,486.749L1126.87,450.946C1147.75,432.564 1171.09,415.718 1204.13,404.934L1291.82,378.021C1394.44,422.172 1459.77,497.082 1469.79,617.632C1493.28,676.177 1468.3,727.799 1410.75,774.768L1440.27,829.028L1430.72,869.831L1405.54,894.14L1378.63,904.558L1365.61,959.251C1352.09,996.122 1332.01,1027.72 1307.44,1053.01C1285.07,1065.68 1261.66,1070.25 1236.25,1059.09L1211.94,1043.46C1185.54,1053.66 1127.51,1035.87 1081.72,1005.26Z" style="fill:rgb(137,84,47);"/>
                <path d="M1168.04,757.579L1130.53,795.083L1121.51,819.391L1121.51,843.7L1139.56,869.397L1168.04,887.455L1195.12,885.371L1233.32,873.564L1263.19,870.092L1315.28,885.371L1356.25,896.484L1391.67,899.262L1431.96,877.732L1444.46,845.783L1435.43,813.835L1400.01,768.691C1317.98,729.222 1240.81,726.669 1168.04,757.579Z" style="fill:rgb(216,166,112);"/>
                <path d="M1081.86,496.958L1058.94,442.785L1053.38,402.503L1071.44,376.111L1104.08,370.555L1138.12,382.361L1157.56,396.252L1174.23,413.615L1131.17,443.48L1094.36,479.595L1081.86,496.958Z" style="fill:rgb(216,166,112);"/>
                <g transform="matrix(0.126018,0.992028,-0.992028,0.126018,1887.89,-709.165)">
                    <path d="M1081.86,496.958C1057.06,516.229 1039.14,469.311 1042.78,426.73L1053.38,402.503L1073.41,382.662L1103.38,376.066L1138.12,382.361L1165.74,397.991L1174.23,413.615L1131.17,443.48L1094.36,479.595L1081.86,496.958Z" style="fill:rgb(216,166,112);"/>
                </g>
                <path d="M1210.07,884.527C1203.6,916.39 1209.84,945.708 1217.7,968.02C1224.93,988.7 1233.32,1001.29 1243.39,1002.05C1257.31,1013.68 1270.63,1016.9 1282.64,1003.88C1292.6,1000.39 1302.2,984.286 1312.15,969.409L1331.6,918.014L1332.29,889.539L1280.2,870.092L1210.07,884.527Z" style="fill:rgb(249,168,205);"/>
                <path d="M1061.86,530.292C1103.23,457.517 1160.61,409.395 1230.92,391.603" style="fill:none;stroke:black;stroke-width:23.05px;"/>
                <path d="M1107.17,948.877C1100.05,975.159 1089.68,994.942 1076.78,1009.65C1060.22,1000.7 1049.21,972.29 1044.22,922.832C1031.93,940.06 1019.63,959.141 1007.33,979.263C992.011,974.335 981.77,949.102 978.028,897.873C950.17,906.197 930.646,906.188 917.257,900.043C975.864,866.105 984.063,760.516 1024.97,629.188C1034.87,597.413 1046.68,564.13 1061.59,529.991C926.09,350.65 1135.59,235.825 1228.71,392.172C1310.53,364.343 1390.7,371.167 1469.62,404.109C1561.85,216.51 1834.55,363.847 1647.59,570.144C1715.06,617.556 1650.69,882.248 1743.09,973.837L1680.15,952.133L1699.68,1056.31L1650.85,1015.07L1660.62,1063.91L1598.76,1012.9L1580.31,1076.93L1543.41,1011.82L1516.29,1062.82L1491.33,1017.24" style="fill:none;stroke:black;stroke-width:23.05px;"/>
                <path d="M1079.29,493.485C1020.35,397.932 1082.16,323.472 1174.43,407.702" style="fill:none;stroke:black;stroke-width:23.05px;"/>
                <path d="M1522.8,417.131C1578.77,333.686 1705.93,394.227 1631.32,510.458C1602.64,476.351 1565.94,445.451 1522.8,417.131Z" style="fill:none;stroke:black;stroke-width:23.05px;"/>
                <path d="M1165.77,755.712C1091.49,809.788 1116.37,873.546 1177.7,889.191L1261.26,869.658L1380.64,901.128C1446.35,891.863 1466.71,837.643 1399.08,768.735" style="fill:none;stroke:black;stroke-width:23.05px;"/>
                <path d="M1177.7,893.532C1181.27,1116.15 1323.59,1124.75 1382.81,905.469" style="fill:none;stroke:black;stroke-width:23.05px;"/>
                <path d="M1330.72,892.447C1319.71,1019.05 1241.61,1052.97 1215.69,961.899" style="fill:none;stroke:black;stroke-width:23.05px;"/>
                <g transform="matrix(1,0,0,1,-0.444489,2.22248)">
                    <path d="M1626.98,548.169L1648.68,568.787" style="fill:none;stroke:black;stroke-width:23.05px;"/>
                </g>
                <path d="M1084.38,575.298L1221.11,682.733" style="fill:none;stroke:black;stroke-width:23.05px;"/>
                <path d="M1370.87,689.244L1500.01,578.554" style="fill:none;stroke:black;stroke-width:23.05px;"/>
                <path d="M1391.77,672.218C1460.79,771.723 1539.56,694.793 1481.56,598.088L1391.77,672.218Z" style="stroke:black;stroke-width:14.83px;"/>
                <path d="M1102.83,593.747C1068.33,652.311 1086.89,699.883 1119.87,706.483C1140.97,710.704 1167.95,698.166 1190.73,661.029L1102.83,593.747Z" style="stroke:black;stroke-width:14.83px;"/>
                <g transform="matrix(1.19512,0,0,1,-249.305,-4.16692)">
                    <ellipse cx="1267.01" cy="805.848" rx="42.713" ry="43.408" style="fill:rgb(11,6,0);"/>
                </g>
            </g>
            <g transform="matrix(1,0,0,1,-320.049,-4.23904)">
                <path d="M943.628,682.443C852.939,722.356 823.063,788.091 868.966,867.361" style="fill:none;stroke:black;stroke-width:18.54px;"/>
            </g>
            <g transform="matrix(1,0,0,1,-320.049,-4.23904)">
                <path d="M993.113,760.577C964.169,772.305 958.391,786.759 968.804,803.117" style="fill:none;stroke:black;stroke-width:18.54px;"/>
            </g>
            <g transform="matrix(1,0,0,1,-320.049,-4.23904)">
                <path d="M1391.82,989.338C1409.57,1026.51 1415.45,1061.85 1403.1,1094.38" style="fill:none;stroke:black;stroke-width:18.54px;"/>
            </g>
            <g transform="matrix(0.961095,-0.580284,0.673642,1.11572,-892.536,166.814)">
                <path d="M591.522,870.458L467.809,870.458C481.555,949.828 481.698,1035.49 467.809,1127.65L591.522,1127.65C576.79,1039.87 575.828,954.002 591.522,870.458Z" style="fill:rgb(240,231,172);stroke:black;stroke-width:15.21px;"/>
            </g>
            <g transform="matrix(0.856669,-0.515866,0.604341,1.00359,-754.76,238.117)">
                <ellipse cx="514.058" cy="816.488" rx="84.646" ry="64.027" style="fill:rgb(240,231,172);stroke:black;stroke-width:16.99px;"/>
            </g>
            <g transform="matrix(1.14785,-0.803053,0.677784,0.968798,-1262.34,1386.17)">
                <rect x="1577.97" y="1035.41" width="186.655" height="100.924" style="fill:rgb(240,231,172);stroke:black;stroke-width:14.26px;"/>
            </g>
            <g transform="matrix(0.735368,0.797955,-0.975233,0.898742,1968.14,-167.24)">
                <ellipse cx="514.058" cy="816.488" rx="84.646" ry="64.027" style="fill:rgb(240,231,172);stroke:black;stroke-width:15.35px;"/>
            </g>
            <g transform="matrix(0.828833,-0.559496,1.18965,1.76233,-1512.32,-398.594)">
                <rect x="629.262" y="1084.55" width="183.911" height="91.122" style="fill:rgb(42,39,32);stroke:black;stroke-width:11.15px;"/>
            </g>
            <g transform="matrix(0.828833,-0.559496,1.18965,1.76233,-720.461,-347.725)">
                <rect x="629.262" y="1084.55" width="183.911" height="91.122" style="fill:rgb(42,39,32);stroke:black;stroke-width:11.15px;"/>
            </g>
            <g transform="matrix(1.04843,0,0,0.984177,-358.267,-21.9072)">
                <path d="M1377.78,1024.44C1382.02,1042.44 1384.25,1061.1 1384.25,1080.23C1384.25,1228.09 1250.91,1348.14 1086.67,1348.14C922.431,1348.14 789.088,1228.09 789.088,1080.23C789.088,932.367 922.431,812.321 1086.67,812.321C1174.32,812.321 1250.52,843.689 1305,898.051" style="fill:rgb(240,231,172);stroke:black;stroke-width:18.23px;"/>
            </g>
            <g transform="matrix(1,0,0,1,-320.049,-4.23904)">
                <path d="M1333.69,853.071L1315.46,901.688L1291.15,912.974L1237.33,902.556L1189.58,896.479L1167.01,932.073L1173.95,975.481L1220.83,1005.87L1307.65,1020.63L1376.23,1000.66L1424.85,966.8L1333.69,853.071" style="fill:rgb(99,61,30);"/>
            </g>
            <g transform="matrix(1,0,0,1,-320.049,-4.23904)">
                <path d="M1336.69,809.194C1337.51,827.506 1335.29,850.112 1329.77,869.589C1323.13,893.011 1311.7,911.909 1295.02,913.374C1270.59,915.518 1198.41,880.321 1177.81,902.088C1156.26,924.87 1138.11,1015.2 1315.85,1023.63C1429.61,1001.59 1422.35,939.476 1466.91,884.203" style="fill:none;stroke:black;stroke-width:18.54px;"/>
            </g>
            <g transform="matrix(1,0,0,1,-320.049,-4.23904)">
                <path d="M1440.43,688.086C1541.95,852.903 1593.69,1015.23 1509.89,1170.78" style="fill:none;stroke:black;stroke-width:18.54px;"/>
            </g>
            <g transform="matrix(1,0,0,1,-320.049,-4.23904)">
                <path d="M806.63,710.901C773.33,725.518 751.329,747.994 760.848,792.291" style="fill:none;stroke:black;stroke-width:7.98px;"/>
            </g>
            <g transform="matrix(0.56604,0,0,0.744,56.9086,204.664)">
                <path d="M806.63,710.901C773.33,725.518 751.329,747.994 760.848,792.291" style="fill:none;stroke:black;stroke-width:12.08px;"/>
            </g>
            <g transform="matrix(-1.13699,1.00529,-0.788692,-0.892017,2789.04,765.24)">
                <path d="M806.63,710.901C773.33,725.518 751.329,747.994 760.848,792.291" style="fill:none;stroke:black;stroke-width:5.83px;"/>
            </g>
            <g transform="matrix(-1.13699,1.00529,-0.788692,-0.892017,2742.16,789.548)">
                <path d="M806.63,710.901C773.33,725.518 751.329,747.994 760.848,792.291" style="fill:none;stroke:black;stroke-width:5.83px;"/>
            </g>
        </g>
        <path d="M1126.19,1106.96L1075.69,1089.54L1033.02,1084.2L978.616,1094.16L952.302,1120.48L944.835,1152.83L965.815,1208.31L1055.43,1231.78L1143.97,1208.31L1187.71,1175.59L1197.66,1146.79L1204.42,1132.92L1126.19,1106.96Z" style="fill:rgb(99,61,30);"/>
        <path d="M1090.88,1093.18C1004.09,1069.45 973.287,1093.6 953.391,1115.3C933.496,1137.01 947.248,1193.54 972.925,1216.23C1048.38,1282.9 1196.84,1211.58 1205.66,1135.55" style="fill:none;stroke:black;stroke-width:18.6px;"/>
        <g transform="matrix(1,0,0,1,-320.049,-4.23904)">
            <rect x="361.459" y="1202.55" width="1753.81" height="203.999" style="stroke:black;stroke-width:18.6px;"/>
        </g>
        <g transform="matrix(1,0,0,1,116.574,108.096)">
            <path d="M182.646,1124.35L182.646,1254L153.097,1254L135.56,1195.06L135.56,1254L107.373,1254L107.373,1124.35L135.56,1124.35L154.458,1182.73L154.458,1124.35L182.646,1124.35Z" style="fill:white;fill-rule:nonzero;"/>
            <path d="M268.41,1185.05L268.41,1211.07C268.41,1220.63 267.929,1227.64 266.968,1232.09C266.007,1236.55 263.952,1240.71 260.802,1244.59C257.652,1248.46 253.609,1251.31 248.67,1253.15C243.732,1255 238.06,1255.92 231.654,1255.92C224.5,1255.92 218.441,1255.13 213.476,1253.56C208.511,1251.98 204.654,1249.6 201.905,1246.43C199.155,1243.25 197.194,1239.41 196.019,1234.9C194.845,1230.38 194.257,1223.62 194.257,1214.6L194.257,1187.37C194.257,1177.49 195.325,1169.78 197.46,1164.23C199.596,1158.67 203.44,1154.22 208.992,1150.85C214.544,1147.49 221.644,1145.81 230.292,1145.81C237.553,1145.81 243.786,1146.89 248.991,1149.05C254.196,1151.21 258.213,1154.03 261.042,1157.5C263.872,1160.97 265.807,1164.55 266.848,1168.23C267.889,1171.91 268.41,1177.52 268.41,1185.05ZM236.058,1177.04C236.058,1171.6 235.764,1168.16 235.177,1166.75C234.59,1165.34 233.335,1164.63 231.414,1164.63C229.492,1164.63 228.21,1165.34 227.57,1166.75C226.929,1168.16 226.609,1171.6 226.609,1177.04L226.609,1225.01C226.609,1230.03 226.929,1233.3 227.57,1234.82C228.21,1236.34 229.465,1237.1 231.333,1237.1C233.255,1237.1 234.523,1236.4 235.137,1235.02C235.751,1233.63 236.058,1230.64 236.058,1226.05L236.058,1177.04Z" style="fill:white;fill-rule:nonzero;"/>
            <path d="M313.173,1133.56L313.173,1150.29L321.902,1150.29L321.902,1167.11L313.173,1167.11L313.173,1223.97C313.173,1230.96 313.534,1234.86 314.254,1235.66C314.975,1236.46 317.978,1236.86 323.263,1236.86L323.263,1254L310.21,1254C302.843,1254 297.585,1253.69 294.435,1253.07C291.285,1252.46 288.509,1251.05 286.107,1248.83C283.705,1246.62 282.21,1244.08 281.623,1241.22C281.035,1238.37 280.742,1231.65 280.742,1221.08L280.742,1167.11L273.775,1167.11L273.775,1150.29L280.742,1150.29L280.742,1133.56L313.173,1133.56Z" style="fill:white;fill-rule:nonzero;"/>
            <path d="M361.38,1124.35L361.38,1153.52C364.156,1150.95 367.159,1149.02 370.389,1147.74C373.619,1146.45 377.076,1145.81 380.759,1145.81C386.418,1145.81 391.236,1147.25 395.213,1150.13C399.191,1153.02 401.62,1156.34 402.5,1160.1C403.381,1163.87 403.822,1170.74 403.822,1180.72L403.822,1254L371.47,1254L371.47,1179.2C371.47,1173.01 371.163,1169.03 370.549,1167.27C369.935,1165.51 368.561,1164.63 366.425,1164.63C364.45,1164.63 363.115,1165.54 362.421,1167.35C361.727,1169.17 361.38,1172.77 361.38,1178.16L361.38,1254L329.029,1254L329.029,1124.35L361.38,1124.35Z" style="fill:white;fill-rule:nonzero;"/>
            <path d="M448.265,1124.35L448.265,1141.25L414.953,1141.25L414.953,1124.35L448.265,1124.35ZM448.265,1147.73L448.265,1254L414.953,1254L414.953,1147.73L448.265,1147.73Z" style="fill:white;fill-rule:nonzero;"/>
            <path d="M492.789,1147.73L492.228,1157.52C494.577,1153.62 497.446,1150.69 500.836,1148.74C504.226,1146.79 508.137,1145.81 512.568,1145.81C518.12,1145.81 522.658,1147.12 526.181,1149.73C529.705,1152.35 531.973,1155.65 532.988,1159.62C534.002,1163.6 534.509,1170.23 534.509,1179.52L534.509,1254L502.158,1254L502.158,1180.4C502.158,1173.09 501.917,1168.63 501.437,1167.03C500.957,1165.43 499.622,1164.63 497.433,1164.63C495.138,1164.63 493.696,1165.55 493.109,1167.39C492.522,1169.23 492.228,1174.16 492.228,1182.16L492.228,1254L459.876,1254L459.876,1147.73L492.789,1147.73Z" style="fill:white;fill-rule:nonzero;"/>
            <path d="M619.152,1147.73L619.152,1229.57C619.152,1240.62 618.898,1247.76 618.391,1250.99C617.884,1254.22 616.082,1257.64 612.986,1261.24C609.889,1264.85 605.579,1267.6 600.053,1269.49C594.528,1271.38 587.574,1272.33 579.193,1272.33C568.889,1272.33 560.615,1270.59 554.369,1267.09C548.123,1263.59 544.893,1256.72 544.679,1246.47L576.07,1246.47C576.07,1251.17 577.778,1253.52 581.195,1253.52C583.651,1253.52 585.279,1252.79 586.08,1251.35C586.88,1249.91 587.281,1246.89 587.281,1242.29L587.281,1234.28C584.505,1236.79 581.582,1238.69 578.512,1239.98C575.443,1241.26 572.226,1241.9 568.863,1241.9C563.044,1241.9 558.252,1240.73 554.489,1238.38C550.725,1236.03 548.149,1232.95 546.761,1229.13C545.373,1225.31 544.679,1219.88 544.679,1212.84L544.679,1174.24C544.679,1164.15 546.494,1156.89 550.124,1152.46C553.755,1148.03 559.28,1145.81 566.701,1145.81C570.758,1145.81 574.455,1146.64 577.791,1148.3C581.128,1149.95 584.104,1152.44 586.72,1155.76L589.042,1147.73L619.152,1147.73ZM586.72,1175.92C586.72,1171.06 586.44,1167.96 585.879,1166.63C585.319,1165.3 584.078,1164.63 582.156,1164.63C580.287,1164.63 578.966,1165.39 578.192,1166.91C577.418,1168.43 577.031,1171.43 577.031,1175.92L577.031,1211.63C577.031,1216.38 577.324,1219.47 577.912,1220.88C578.499,1222.3 579.727,1223.01 581.595,1223.01C583.731,1223.01 585.119,1222.15 585.759,1220.44C586.4,1218.73 586.72,1214.86 586.72,1208.83L586.72,1175.92Z" style="fill:white;fill-rule:nonzero;"/>
            <path d="M692.904,1124.35L692.904,1141.25L659.591,1141.25L659.591,1124.35L692.904,1124.35ZM692.904,1147.73L692.904,1254L659.591,1254L659.591,1147.73L692.904,1147.73Z" style="fill:white;fill-rule:nonzero;"/>
            <path d="M770.58,1181.68L741.912,1181.68L741.912,1175.92C741.912,1171.01 741.631,1167.9 741.071,1166.59C740.51,1165.28 739.109,1164.63 736.867,1164.63C735.052,1164.63 733.69,1165.23 732.783,1166.43C731.875,1167.63 731.421,1169.43 731.421,1171.84C731.421,1175.09 731.648,1177.48 732.102,1179C732.556,1180.52 733.917,1182.19 736.186,1184.01C738.455,1185.82 743.113,1188.46 750.16,1191.93C759.555,1196.53 765.722,1200.85 768.658,1204.91C771.594,1208.96 773.062,1214.86 773.062,1222.6C773.062,1231.25 771.941,1237.78 769.699,1242.18C767.457,1246.59 763.706,1249.98 758.448,1252.35C753.189,1254.73 746.85,1255.92 739.429,1255.92C731.208,1255.92 724.174,1254.64 718.329,1252.07C712.483,1249.51 708.466,1246.04 706.277,1241.66C704.088,1237.29 702.994,1230.67 702.994,1221.8L702.994,1216.68L731.662,1216.68L731.662,1223.4C731.662,1229.12 732.022,1232.83 732.743,1234.54C733.463,1236.24 734.891,1237.1 737.027,1237.1C739.322,1237.1 740.924,1236.53 741.832,1235.38C742.739,1234.23 743.193,1231.81 743.193,1228.13C743.193,1223.06 742.606,1219.88 741.431,1218.6C740.203,1217.32 733.93,1213.53 722.613,1207.23C713.11,1201.89 707.318,1197.05 705.236,1192.69C703.154,1188.34 702.113,1183.18 702.113,1177.2C702.113,1168.71 703.234,1162.45 705.476,1158.42C707.718,1154.39 711.522,1151.28 716.887,1149.09C722.252,1146.9 728.485,1145.81 735.585,1145.81C742.632,1145.81 748.625,1146.7 753.563,1148.49C758.501,1150.28 762.291,1152.64 764.934,1155.58C767.577,1158.52 769.178,1161.24 769.739,1163.75C770.299,1166.26 770.58,1170.18 770.58,1175.52L770.58,1181.68Z" style="fill:white;fill-rule:nonzero;"/>
            <path d="M851.859,1124.35L851.859,1140.77C845.186,1140.77 841.249,1141.07 840.047,1141.69C838.846,1142.3 838.246,1144.05 838.246,1146.93L838.246,1150.29L851.859,1150.29L851.859,1167.11L844.171,1167.11L844.171,1254L811.82,1254L811.82,1167.11L805.173,1167.11L805.173,1150.29L811.82,1150.29C811.82,1143.3 812.06,1138.63 812.541,1136.28C813.021,1133.93 814.209,1131.84 816.104,1129.99C817.999,1128.15 820.655,1126.75 824.072,1125.79C827.488,1124.83 832.8,1124.35 840.007,1124.35L851.859,1124.35Z" style="fill:white;fill-rule:nonzero;"/>
            <path d="M890.376,1147.73L889.095,1161.7C893.793,1151.7 900.6,1146.4 909.515,1145.81L909.515,1183.21C903.589,1183.21 899.238,1184.01 896.462,1185.61C893.686,1187.21 891.978,1189.44 891.337,1192.3C890.697,1195.15 890.376,1201.73 890.376,1212.03L890.376,1254L858.025,1254L858.025,1147.73L890.376,1147.73Z" style="fill:white;fill-rule:nonzero;"/>
            <path d="M989.994,1202.75L948.113,1202.75L948.113,1225.73C948.113,1230.53 948.46,1233.63 949.154,1235.02C949.848,1236.4 951.182,1237.1 953.158,1237.1C955.613,1237.1 957.255,1236.18 958.083,1234.34C958.91,1232.49 959.324,1228.93 959.324,1223.64L959.324,1209.63L989.994,1209.63L989.994,1217.48C989.994,1224.05 989.58,1229.09 988.752,1232.61C987.925,1236.14 985.99,1239.9 982.947,1243.9C979.904,1247.91 976.047,1250.91 971.375,1252.91C966.704,1254.92 960.845,1255.92 953.798,1255.92C946.965,1255.92 940.932,1254.93 935.701,1252.95C930.469,1250.98 926.398,1248.27 923.489,1244.83C920.579,1241.38 918.564,1237.59 917.443,1233.45C916.322,1229.32 915.761,1223.3 915.761,1215.4L915.761,1184.41C915.761,1175.12 917.016,1167.79 919.525,1162.43C922.034,1157.06 926.145,1152.95 931.857,1150.09C937.569,1147.24 944.136,1145.81 951.556,1145.81C960.632,1145.81 968.119,1147.53 974.018,1150.98C979.917,1154.42 984.055,1158.98 986.43,1164.67C988.806,1170.35 989.994,1178.35 989.994,1188.65L989.994,1202.75ZM957.562,1185.45L957.562,1177.68C957.562,1172.18 957.268,1168.63 956.681,1167.03C956.094,1165.43 954.893,1164.63 953.078,1164.63C950.835,1164.63 949.447,1165.31 948.914,1166.67C948.38,1168.03 948.113,1171.7 948.113,1177.68L948.113,1185.45L957.562,1185.45Z" style="fill:white;fill-rule:nonzero;"/>
            <path d="M1073.84,1202.75L1031.95,1202.75L1031.95,1225.73C1031.95,1230.53 1032.3,1233.63 1033,1235.02C1033.69,1236.4 1035.02,1237.1 1037,1237.1C1039.45,1237.1 1041.1,1236.18 1041.92,1234.34C1042.75,1232.49 1043.17,1228.93 1043.17,1223.64L1043.17,1209.63L1073.84,1209.63L1073.84,1217.48C1073.84,1224.05 1073.42,1229.09 1072.59,1232.61C1071.77,1236.14 1069.83,1239.9 1066.79,1243.9C1063.75,1247.91 1059.89,1250.91 1055.22,1252.91C1050.55,1254.92 1044.69,1255.92 1037.64,1255.92C1030.81,1255.92 1024.77,1254.93 1019.54,1252.95C1014.31,1250.98 1010.24,1248.27 1007.33,1244.83C1004.42,1241.38 1002.41,1237.59 1001.28,1233.45C1000.16,1229.32 999.603,1223.3 999.603,1215.4L999.603,1184.41C999.603,1175.12 1000.86,1167.79 1003.37,1162.43C1005.88,1157.06 1009.99,1152.95 1015.7,1150.09C1021.41,1147.24 1027.98,1145.81 1035.4,1145.81C1044.47,1145.81 1051.96,1147.53 1057.86,1150.98C1063.76,1154.42 1067.9,1158.98 1070.27,1164.67C1072.65,1170.35 1073.84,1178.35 1073.84,1188.65L1073.84,1202.75ZM1041.4,1185.45L1041.4,1177.68C1041.4,1172.18 1041.11,1168.63 1040.52,1167.03C1039.94,1165.43 1038.74,1164.63 1036.92,1164.63C1034.68,1164.63 1033.29,1165.31 1032.76,1166.67C1032.22,1168.03 1031.95,1171.7 1031.95,1177.68L1031.95,1185.45L1041.4,1185.45Z" style="fill:white;fill-rule:nonzero;"/>
            <path d="M1145.67,1124.35L1145.67,1153.52C1148.44,1150.95 1151.44,1149.02 1154.67,1147.74C1157.9,1146.45 1161.36,1145.81 1165.04,1145.81C1170.7,1145.81 1175.52,1147.25 1179.5,1150.13C1183.48,1153.02 1185.9,1156.34 1186.79,1160.1C1187.67,1163.87 1188.11,1170.74 1188.11,1180.72L1188.11,1254L1155.76,1254L1155.76,1179.2C1155.76,1173.01 1155.45,1169.03 1154.83,1167.27C1154.22,1165.51 1152.85,1164.63 1150.71,1164.63C1148.74,1164.63 1147.4,1165.54 1146.71,1167.35C1146.01,1169.17 1145.67,1172.77 1145.67,1178.16L1145.67,1254L1113.31,1254L1113.31,1124.35L1145.67,1124.35Z" style="fill:white;fill-rule:nonzero;"/>
            <path d="M1272.51,1202.75L1230.63,1202.75L1230.63,1225.73C1230.63,1230.53 1230.98,1233.63 1231.67,1235.02C1232.36,1236.4 1233.7,1237.1 1235.67,1237.1C1238.13,1237.1 1239.77,1236.18 1240.6,1234.34C1241.43,1232.49 1241.84,1228.93 1241.84,1223.64L1241.84,1209.63L1272.51,1209.63L1272.51,1217.48C1272.51,1224.05 1272.1,1229.09 1271.27,1232.61C1270.44,1236.14 1268.51,1239.9 1265.46,1243.9C1262.42,1247.91 1258.56,1250.91 1253.89,1252.91C1249.22,1254.92 1243.36,1255.92 1236.31,1255.92C1229.48,1255.92 1223.45,1254.93 1218.22,1252.95C1212.99,1250.98 1208.91,1248.27 1206,1244.83C1203.1,1241.38 1201.08,1237.59 1199.96,1233.45C1198.84,1229.32 1198.28,1223.3 1198.28,1215.4L1198.28,1184.41C1198.28,1175.12 1199.53,1167.79 1202.04,1162.43C1204.55,1157.06 1208.66,1152.95 1214.37,1150.09C1220.09,1147.24 1226.65,1145.81 1234.07,1145.81C1243.15,1145.81 1250.63,1147.53 1256.53,1150.98C1262.43,1154.42 1266.57,1158.98 1268.95,1164.67C1271.32,1170.35 1272.51,1178.35 1272.51,1188.65L1272.51,1202.75ZM1240.08,1185.45L1240.08,1177.68C1240.08,1172.18 1239.78,1168.63 1239.2,1167.03C1238.61,1165.43 1237.41,1164.63 1235.59,1164.63C1233.35,1164.63 1231.96,1165.31 1231.43,1166.67C1230.89,1168.03 1230.63,1171.7 1230.63,1177.68L1230.63,1185.45L1240.08,1185.45Z" style="fill:white;fill-rule:nonzero;"/>
            <path d="M1315.43,1147.73L1314.15,1161.7C1318.85,1151.7 1325.65,1146.4 1334.57,1145.81L1334.57,1183.21C1328.64,1183.21 1324.29,1184.01 1321.52,1185.61C1318.74,1187.21 1317.03,1189.44 1316.39,1192.3C1315.75,1195.15 1315.43,1201.73 1315.43,1212.03L1315.43,1254L1283.08,1254L1283.08,1147.73L1315.43,1147.73Z" style="fill:white;fill-rule:nonzero;"/>
            <path d="M1415.05,1202.75L1373.17,1202.75L1373.17,1225.73C1373.17,1230.53 1373.51,1233.63 1374.21,1235.02C1374.9,1236.4 1376.24,1237.1 1378.21,1237.1C1380.67,1237.1 1382.31,1236.18 1383.14,1234.34C1383.96,1232.49 1384.38,1228.93 1384.38,1223.64L1384.38,1209.63L1415.05,1209.63L1415.05,1217.48C1415.05,1224.05 1414.63,1229.09 1413.81,1232.61C1412.98,1236.14 1411.04,1239.9 1408,1243.9C1404.96,1247.91 1401.1,1250.91 1396.43,1252.91C1391.76,1254.92 1385.9,1255.92 1378.85,1255.92C1372.02,1255.92 1365.99,1254.93 1360.76,1252.95C1355.52,1250.98 1351.45,1248.27 1348.54,1244.83C1345.63,1241.38 1343.62,1237.59 1342.5,1233.45C1341.38,1229.32 1340.82,1223.3 1340.82,1215.4L1340.82,1184.41C1340.82,1175.12 1342.07,1167.79 1344.58,1162.43C1347.09,1157.06 1351.2,1152.95 1356.91,1150.09C1362.62,1147.24 1369.19,1145.81 1376.61,1145.81C1385.69,1145.81 1393.17,1147.53 1399.07,1150.98C1404.97,1154.42 1409.11,1158.98 1411.49,1164.67C1413.86,1170.35 1415.05,1178.35 1415.05,1188.65L1415.05,1202.75ZM1382.62,1185.45L1382.62,1177.68C1382.62,1172.18 1382.32,1168.63 1381.74,1167.03C1381.15,1165.43 1379.95,1164.63 1378.13,1164.63C1375.89,1164.63 1374.5,1165.31 1373.97,1166.67C1373.43,1168.03 1373.17,1171.7 1373.17,1177.68L1373.17,1185.45L1382.62,1185.45Z" style="fill:white;fill-rule:nonzero;"/>
            <path d="M1461.17,1124.35L1455.89,1221.96L1430.9,1221.96L1425.62,1124.35L1461.17,1124.35ZM1458.53,1228.05L1458.53,1254L1428.26,1254L1428.26,1228.05L1458.53,1228.05Z" style="fill:white;fill-rule:nonzero;"/>
        </g>
    </g>
</svg>
